<svg xmlns="http://www.w3.org/2000/svg" viewBox="0 0 231.71 214.44"><defs><style>.cls-1{fill:#f6262c;}.cls-2{fill:#e4ff7b;}.cls-3{fill:#fff;}.cls-4{stroke:#fff;stroke-miterlimit:10;}</style></defs><g id="レイヤー_2" data-name="レイヤー 2"><g id="レイヤー_1-2" data-name="レイヤー 1"><path d="M196.76,91.87c1.86.59,2.32,3.23,1,5a7.81,7.81,0,0,1-2.12,2c-.53.34-.76.6-.35,1.29,1.17,2,.86,3.55-.87,5a10.27,10.27,0,0,1-8.13,2.28,3.31,3.31,0,0,1-2.22-1.29,13.54,13.54,0,0,0-3.27-2.71c-1-.64-1.21-.27-1.47.62a55.16,55.16,0,0,0-1.18,6.51c-.56,3.56-1.14,7.12-3.59,10a25.21,25.21,0,0,1-2.86,3,40.2,40.2,0,0,0-7.2,8.32c-1.55,2.27-2.42,4.75-1.51,7.56a26,26,0,0,0,.75,2.51,17.18,17.18,0,0,1,1.21,7.83c-.12,3.3-1.47,4.53-4.72,4.08.14,1.51.28,3,.43,4.49a138.92,138.92,0,0,1,.23,20c-.29,6.75-.26,13.52-.4,20.28a1.18,1.18,0,0,0,.85,1.24c3.43,1.59,5.4,4.46,6.76,7.85a6.63,6.63,0,0,1,.37,1.32c.51,2.92-.56,4.39-3.46,5-5.37,1.24-9.63-.75-13.33-4.42a25.2,25.2,0,0,1-2.51-3.12,5.29,5.29,0,0,1-.9-4.29c.4-2.14-.19-4.3-.38-6.45a151.17,151.17,0,0,0-6-30.69,38.35,38.35,0,0,0-5.34-10.85,14.31,14.31,0,0,0-9-6c-5.72-1.2-11.32-1.06-16.65,1.67a14.2,14.2,0,0,0-6.52,6.34c-2.29,4.6-5.19,9-6.15,14.12-.94,5-1.85,10-2.38,15a18.66,18.66,0,0,1-.93,4.87,23.36,23.36,0,0,0-1.42,9.33,11.66,11.66,0,0,1-2.46,7.75c-2.76,3.48-8.87,7.63-14.49,6.1-2.89-.78-3.86-2.31-2.72-5.09A19.68,19.68,0,0,1,79.3,201a1.68,1.68,0,0,0,.7-1.73c-2-14.33-2.46-28.68-.34-43,.25-1.64.58-3.26.86-4.9a1.79,1.79,0,0,0-2-2,12.32,12.32,0,0,1-1.36.17c-2.38,0-3.43-1-3.5-3.43A7,7,0,0,1,75,141.45c2.4-3.14,2.93-6.72,3.2-10.53a182.39,182.39,0,0,1,5.18-32c1.12-4.42,1.46-9,2.34-13.45a24.2,24.2,0,0,1,.72-3.08c.35-1.07.28-1.45-1-1.35-7.65.56-15.14-.62-22.54-2.44A23.49,23.49,0,0,1,50.78,71C45.22,64.74,45.46,57.57,48,50.38,51.48,40.79,58.48,34.42,68,31a195.33,195.33,0,0,0,25.61-11.6,9.78,9.78,0,0,0,5.63-7.82,11.67,11.67,0,0,1,2.35-6.24c1.3-1.58,2.4-1.81,4.14-.72.8.5.71-.16.85-.51,1-2.49,2.41-3.38,4.95-3.31,1,0,1.71,1,2.48.94S115.19.46,116.15.22a2.48,2.48,0,0,1,2.13.18,1.5,1.5,0,0,0,1.84.07c1.82-1,3.54-.36,4.68,1.74.48.9.7,1.22,1.7.41,2.65-2.13,5.43-1.19,6.45,2.06.68,2.18.48,4.47.67,6.71.09,1.07.41,1.37,1.51,1.26,5.07-.46,8.35,2.4,8.73,7.51,0,.54,0,1.08.71,1.29,2.08.6,2.94,2.24,3.3,4.19a11.38,11.38,0,0,1,0,4.39c-.1.48-.14.82.4,1.15a9.16,9.16,0,0,1,4.59,9.91c-.16.9,0,1.25.87,1.61,3.82,1.61,7,6.7,4,11.42a.87.87,0,0,0,.21,1.3,7.72,7.72,0,0,1,2.33,8.39c-.16.57.11.84.44,1.18,2.38,2.42,2.54,5.42,2,8.5-.23,1.33-1.39,2.12-2.53,2.78a1.16,1.16,0,0,0-.68,1.43c1.9,9.87,2.34,19.9,2.95,29.91.44,7.13.38,14.25.36,21.39,0,.3-.13.64.22,1a3.21,3.21,0,0,0,1.22-1.35,31.39,31.39,0,0,1,5.83-6.95,14.85,14.85,0,0,0,5.07-9.38,58.92,58.92,0,0,1,1.34-7.75,19.88,19.88,0,0,0,.83-7.39c-.3-3.35,1.25-6.06,3.5-8.39,1.46-1.53,2.39-1.62,4.16-.43.59.4.85,0,1.18-.27a9.33,9.33,0,0,1,5.18-2c2.77-.15,4.3,1.22,4.22,4C195.55,91,195.65,91.52,196.76,91.87Zm-1.69,3.9c.32-.31.73-.68.47-1.18s-.75-.29-1.12-.2c-.62.15-1.22.4-1.83.61a1.46,1.46,0,0,1-1.92-.6,1.41,1.41,0,0,1,.46-1.85,6.12,6.12,0,0,0,1.5-1.59,1.91,1.91,0,0,0,.07-1.85c-.32-.59-1-.41-1.5-.37a5.57,5.57,0,0,0-2.34.76,13,13,0,0,0-3.3,2.89c-.87,1-2.07.88-2.51-.26a8.25,8.25,0,0,1-.29-1.32c-3.16,2.68-3.22,6.67-2.38,9.61a.7.7,0,0,0,.67.57,7,7,0,0,1,4.81,2.93,1.92,1.92,0,0,0,1.52.81,7.73,7.73,0,0,0,4.59-1.2c.52-.35,1.21-.66,1.13-1.43s-.73-.87-1.28-1.1c-.73-.32-1.48-.64-1.47-1.61s.78-1.36,1.58-1.66A8.8,8.8,0,0,0,195.07,95.77ZM163.92,211c1.52-.19,1.81-.56,1.32-2a12.26,12.26,0,0,0-5.77-7.1c-.29-.16-.57-.35-.9-.21-2,.84-4.23.83-6.22,1.74-.83.38-.94.75-.4,1.42a18.94,18.94,0,0,0,1.9,2.35c2.26,2,4.49,4.15,7.87,3.93l1.52-.09C163.47,211.06,163.7,211,163.92,211ZM162,150.1c0-1.78.27-3.59-.38-5.32a30.75,30.75,0,0,1-2.06-11.7q.3-14.48-.65-29c-.53-7.94-.91-15.91-2.4-23.74-2.39-12.58-7.47-24.12-14-35.06a43.63,43.63,0,0,1-4.36-8.59c-1.57-4.76-3.25-9.49-4.71-14.28s-3.06-9.83-2.94-15.07a5.89,5.89,0,0,0-.28-1.76c-.4-1.35-1.32-1.59-2.17-.47a9.76,9.76,0,0,0-2.1,4.29c-.41,2.54-.89,3.18-3.44,3.16A102.39,102.39,0,0,0,108,13.81c-2,.26-2.63-.33-3-2.35a22.52,22.52,0,0,0-.9-3.9c-.11-.32-.11-.81-.58-.82s-.5.37-.69.62a13.3,13.3,0,0,0-1.8,5.31c-.74,3.71-2.45,6.85-5.87,8.74-3.7,2.05-7.45,4-11.22,5.93C78.79,30,73.16,31.65,67.77,33.89c-7.9,3.29-13.93,8.63-17,16.78-2,5.48-2.74,11.18.74,16.43a19.54,19.54,0,0,0,10.94,8.19A64,64,0,0,0,80.29,78a66.54,66.54,0,0,0,31.89-7.57c7.47-3.94,12-10.19,15.37-17.59,1.1-2.44,1.08-5.21,2.2-7.67.41-.89.72-1.83,1.89-1.56A1.58,1.58,0,0,1,132.71,46c-.85,2.29-1.11,4.74-1.88,7-1.65,4.87-4.57,9-7.78,12.93a25.63,25.63,0,0,1-7,5.95,64,64,0,0,1-26.39,8.69c-1,.09-1.27.4-1.36,1.4a180.1,180.1,0,0,1-3.6,25,182.76,182.76,0,0,0-3.81,29.67,4.55,4.55,0,0,1-1.06,2.6,15.91,15.91,0,0,0-3.13,5.93c-.11.44-.3,1.09.35,1.32.49.18.86-.21,1.15-.58.46-.57.83-1.21,1.68-1.31s1.25.6,1.91,1c.56-2.25,1.08-4.4,1.63-6.53,1.93-7.48,4.2-14.9,5.74-22.46A138.33,138.33,0,0,0,92.08,91c0-.76-.24-2,.87-2s.89,1.23,1,2a62.8,62.8,0,0,1-.19,12.26c-.74,5.84-1.12,11.71-2.62,17.45-2.18,8.37-4.16,16.78-6.29,25.16-.26,1,.3,2-.3,3a8.52,8.52,0,0,0-1,3.13c-3,15.41-2.36,30.85-.53,46.31a1.35,1.35,0,0,0,1.28,1.36c1.64.2,3.29.41,4.92.68,1.06.18,1.36-.2,1.34-1.24,0-2-.36-4,.36-5.89,2.11-5.5,2.57-11.33,3.22-17,.93-8.21,4.17-15.41,8.22-22.34,2.82-4.84,7.36-7.5,12.74-8.67a31.4,31.4,0,0,1,8.65-.63c5.1.32,9.75,1.79,13.46,5.54a32.64,32.64,0,0,1,6.78,11.28c2.36,6,3.67,12.34,5,18.64s1.73,12.85,2.44,19.29c.1.88.22,1.26,1.22.89a16.12,16.12,0,0,1,3.21-.76c1.35-.19,1.79-.8,1.81-2.19,0-6.81-.18-13.62.22-20.42a116,116,0,0,0-.12-15c-.14-2.07-.4-4.12-.62-6.18a1.41,1.41,0,0,0-1.23-1.31c-.73-.13-.63.64-.9,1-.15.22-.25.49-.39.73-1.76,3-4.78,3.05-6.59,0-.23-.38-.37-.63-.93-.55-2.35.36-3.2-.14-4.25-2.25-1.2-2.4-1-5-.64-7.45a25.26,25.26,0,0,0-.11-8.14c-.9-6-.89-12.12-1.57-18.15a292.64,292.64,0,0,1-2-29.44,9.63,9.63,0,0,1,.13-1.78.8.8,0,0,1,.69-.76.78.78,0,0,1,.81.62,12.93,12.93,0,0,1,.58,2.26c1.16,8.71,1.67,17.49,2.94,26.19,1.14,7.69,1,15.51,2.27,23.2a4.7,4.7,0,0,1-.22,1.62,30.1,30.1,0,0,0-.51,9.32c.06.57.19,1.35.79,1.51s.77-.66,1.16-1a6.23,6.23,0,0,0,.62-.74,1.74,1.74,0,0,1,2.16-.76c.93.38,1,1.2,1,2.07-.06.64-.17,1.28-.19,1.92,0,.49-.1,1.14.52,1.28s.69-.51.89-.89a9.26,9.26,0,0,0,1-3.29,1.73,1.73,0,0,1,1.34-1.72,1.77,1.77,0,0,1,1.94,1c.23.37.31.87.88,1,.35-.36.27-.86.41-1.28a1.65,1.65,0,0,1,1.34-1.24,1.57,1.57,0,0,1,1.64.78c.18.27.32.56.49.83s.25.54.6.44S162,150.32,162,150.1Zm-2.51-77c.9-.93.54-2.09.43-3.14-.25-2.33-1.3-3.41-3.61-3.78.71,2.33,1.4,4.52,2,6.72C158.59,73.81,159,73.58,159.46,73.1ZM157.6,62.21c.33-1.81-.44-4.53-2.88-5.13a1.6,1.6,0,0,1-.82-2.85,20.31,20.31,0,0,0,1.3-1.61,4.93,4.93,0,0,0-3.82-7.36c-2.29-.1-2.84-1-2-3.11a6.84,6.84,0,0,0-1-7.14A2.5,2.5,0,0,0,146.57,34c-2.56-.21-3-.94-2.07-3.4a8.15,8.15,0,0,0,.38-4.34c-.25-1.51-.72-1.83-2.22-1.66s-2.25-.57-2-2.11c.05-.36.16-.72.2-1.08.38-3.54-1.35-5.65-4.88-6l-.55,0c-1.68-.14-1.69-.14-1.2,1.53,1.47,4.95,3.56,9.66,5.25,14.52a72,72,0,0,0,6.79,13.82,114.93,114.93,0,0,1,6.17,11.47c.66,1.43,1.3,2.89,1.91,4.35.44,1.05.82,2.13,1.23,3.19C156.2,63.35,157.41,63.23,157.6,62.21ZM122.75,8.83a7.11,7.11,0,0,0-.27-5.23c-.16-.36-.33-.83-.84-.81s-.64.58-.8,1-.22.79-.37,1.18a1.43,1.43,0,0,1-1.53,1.12c-.76-.06-1.1-.58-1.26-1.26-.09-.4-.14-.82-.24-1.21s-.12-.69-.51-.73-.58.29-.68.58c-.28.77-.5,1.57-.76,2.35A1.41,1.41,0,0,1,114.11,7a1.39,1.39,0,0,1-1.36-1.14c-.09-.27-.14-.54-.23-.8-.29-.82-.51-1.69-1.68-1.7A2.09,2.09,0,0,0,108.76,5a17.36,17.36,0,0,0-.45,4.37c-.1,1.12.13,1.52,1.41,1.29a48,48,0,0,1,9-1c1,0,1.92,0,2.89,0A1,1,0,0,0,122.75,8.83ZM89.14,204.48c.49-.72.25-1-.6-1.11a34.31,34.31,0,0,1-6.36-1c-.63-.2-.94.16-1.26.56a43.11,43.11,0,0,0-3.34,4.71c-1.53,2.59-1.38,2.86,2.55,3A13.66,13.66,0,0,0,89.14,204.48Z"/><path class="cls-1" d="M195.54,94.59c.26.5-.15.87-.47,1.18a8.8,8.8,0,0,1-3.14,2c-.8.3-1.57.62-1.58,1.66s.74,1.29,1.47,1.61c.55.23,1.22.41,1.28,1.1s-.61,1.08-1.13,1.43a7.73,7.73,0,0,1-4.59,1.2,1.92,1.92,0,0,1-1.52-.81,7,7,0,0,0-4.81-2.93.7.7,0,0,1-.67-.57c-.84-2.94-.78-6.93,2.38-9.61a8.25,8.25,0,0,0,.29,1.32c.44,1.14,1.64,1.3,2.51.26a13,13,0,0,1,3.3-2.89,5.57,5.57,0,0,1,2.34-.76c.54,0,1.18-.22,1.5.37a1.91,1.91,0,0,1-.07,1.85,6.12,6.12,0,0,1-1.5,1.59,1.41,1.41,0,0,0-.46,1.85,1.46,1.46,0,0,0,1.92.6c.61-.21,1.21-.46,1.83-.61C194.79,94.3,195.31,94.15,195.54,94.59Z"/><path class="cls-1" d="M165.24,209c.49,1.42.2,1.79-1.32,2-.22,0-.45.05-.68.06l-1.52.09c-3.38.22-5.61-1.93-7.87-3.93a18.94,18.94,0,0,1-1.9-2.35c-.54-.67-.43-1,.4-1.42,2-.91,4.22-.9,6.22-1.74.33-.14.61.05.9.21A12.26,12.26,0,0,1,165.24,209Z"/><path class="cls-2" d="M161.59,144.78c.65,1.73.4,3.54.38,5.32,0,.22,0,.5-.29.58s-.45-.22-.6-.44-.31-.56-.49-.83a1.57,1.57,0,0,0-1.64-.78,1.65,1.65,0,0,0-1.34,1.24c-.14.42-.06.92-.41,1.28-.57-.15-.65-.65-.88-1a1.77,1.77,0,0,0-1.94-1,1.73,1.73,0,0,0-1.34,1.72,9.26,9.26,0,0,1-1,3.29c-.2.38-.34,1-.89.89s-.54-.79-.52-1.28c0-.64.13-1.28.19-1.92.08-.87,0-1.69-1-2.07a1.74,1.74,0,0,0-2.16.76,6.23,6.23,0,0,1-.62.74c-.39.36-.58,1.17-1.16,1s-.73-.94-.79-1.51a30.1,30.1,0,0,1,.51-9.32,4.7,4.7,0,0,0,.22-1.62c-1.23-7.69-1.13-15.51-2.27-23.2-1.27-8.7-1.78-17.48-2.94-26.19a12.93,12.93,0,0,0-.58-2.26.78.78,0,0,0-.81-.62.8.8,0,0,0-.69.76,9.63,9.63,0,0,0-.13,1.78,292.64,292.64,0,0,0,2,29.44c.68,6,.67,12.14,1.57,18.15a25.26,25.26,0,0,1,.11,8.14c-.4,2.46-.56,5.05.64,7.45,1,2.11,1.9,2.61,4.25,2.25.56-.08.7.17.93.55,1.81,3,4.83,3,6.59,0,.14-.24.24-.51.39-.73.27-.38.17-1.15.9-1a1.41,1.41,0,0,1,1.23,1.31c.22,2.06.48,4.11.62,6.18a116,116,0,0,1,.12,15c-.4,6.8-.18,13.61-.22,20.42,0,1.39-.46,2-1.81,2.19a16.12,16.12,0,0,0-3.21.76c-1,.37-1.12,0-1.22-.89-.71-6.44-1.09-12.94-2.44-19.29s-2.64-12.63-5-18.64a32.64,32.64,0,0,0-6.78-11.28c-3.71-3.75-8.36-5.22-13.46-5.54a31.4,31.4,0,0,0-8.65.63c-5.38,1.17-9.92,3.83-12.74,8.67-4,6.93-7.29,14.13-8.22,22.34-.65,5.71-1.11,11.54-3.22,17-.72,1.86-.39,3.92-.36,5.89,0,1-.28,1.42-1.34,1.24-1.63-.27-3.28-.48-4.92-.68A1.35,1.35,0,0,1,83,198.31c-1.83-15.46-2.5-30.9.53-46.31a8.52,8.52,0,0,1,1-3.13c.6-.92,0-2,.3-3,2.13-8.38,4.11-16.79,6.29-25.16,1.5-5.74,1.88-11.61,2.62-17.45A62.8,62.8,0,0,0,93.9,91c-.06-.78.08-2-1-2s-.85,1.23-.87,2a138.33,138.33,0,0,1-2.94,25.6c-1.54,7.56-3.81,15-5.74,22.46-.55,2.13-1.07,4.28-1.63,6.53-.66-.43-1.07-1.12-1.91-1s-1.22.74-1.68,1.31c-.29.37-.66.76-1.15.58-.65-.23-.46-.88-.35-1.32a15.91,15.91,0,0,1,3.13-5.93,4.55,4.55,0,0,0,1.06-2.6,182.76,182.76,0,0,1,3.81-29.67,180.1,180.1,0,0,0,3.6-25c.09-1,.39-1.31,1.36-1.4A64,64,0,0,0,116,71.88a25.63,25.63,0,0,0,7-5.95c3.21-3.92,6.13-8.06,7.78-12.93.77-2.3,1-4.75,1.88-7a1.58,1.58,0,0,0-1.07-2.31c-1.17-.27-1.48.67-1.89,1.56-1.12,2.46-1.1,5.23-2.2,7.67-3.35,7.4-7.9,13.65-15.37,17.59A66.54,66.54,0,0,1,80.29,78a64,64,0,0,1-17.81-2.75A19.54,19.54,0,0,1,51.54,67.1c-3.48-5.25-2.77-10.95-.74-16.43,3-8.15,9.07-13.49,17-16.78,5.39-2.24,11-3.9,16.24-6.55,3.77-1.92,7.52-3.88,11.22-5.93,3.42-1.89,5.13-5,5.87-8.74a13.3,13.3,0,0,1,1.8-5.31c.19-.25.35-.63.69-.62s.47.5.58.82a22.52,22.52,0,0,1,.9,3.9c.34,2,1,2.61,3,2.35a102.39,102.39,0,0,1,14.43-1.21c2.55,0,3-.62,3.44-3.16A9.76,9.76,0,0,1,128,5.15c.85-1.12,1.77-.88,2.17.47a5.89,5.89,0,0,1,.28,1.76c-.12,5.24,1.44,10.16,2.94,15.07s3.14,9.52,4.71,14.28a43.63,43.63,0,0,0,4.36,8.59c6.54,10.94,11.62,22.48,14,35.06,1.49,7.83,1.87,15.8,2.4,23.74q1,14.47.65,29A30.75,30.75,0,0,0,161.59,144.78Zm-41-109.55c2-2.27,2.36-5,2.29-7.85V24.9a5.67,5.67,0,0,0-1.43-3.64c-1.46-1.81-3.45-1.18-5.26-1-1.33.12-1.53,1.43-1.85,2.48a21.61,21.61,0,0,0-1,7.72,7.25,7.25,0,0,0,2.36,5.09C117.34,37.06,119.11,36.9,120.6,35.23Zm-9.49-1.13a12.53,12.53,0,0,0,2.06-8c0-.87,0-1.74-.13-2.61-.26-1.88-1.93-3.76-3.39-3.91a4.25,4.25,0,0,0-4.51,3.07,23.9,23.9,0,0,0-1.26,9.63,4,4,0,0,0,3,3.87C108.6,36.57,109.85,36,111.11,34.1Z"/><path class="cls-1" d="M159.89,70c.11,1.05.47,2.21-.43,3.14-.46.48-.87.71-1.14-.2-.64-2.2-1.33-4.39-2-6.72C158.59,66.55,159.64,67.63,159.89,70Z"/><path class="cls-1" d="M154.72,57.08c2.44.6,3.21,3.32,2.88,5.13-.19,1-1.4,1.14-2,2-.41-1.06-.79-2.14-1.23-3.19-.61-1.46-1.25-2.92-1.91-4.35l1.05-.49A1.83,1.83,0,0,0,154.72,57.08Z"/><path class="cls-1" d="M151.38,45.26a4.93,4.93,0,0,1,3.82,7.36,20.31,20.31,0,0,1-1.3,1.61,1.83,1.83,0,0,0-.44,2l-1.05.49a114.93,114.93,0,0,0-6.17-11.47,72,72,0,0,1-6.79-13.82c-1.69-4.86-3.78-9.57-5.25-14.52-.49-1.67-.48-1.67,1.2-1.53l.55,0c3.53.31,5.26,2.42,4.88,6,0,.36-.15.72-.2,1.08-.22,1.54.5,2.28,2,2.11s2,.15,2.22,1.66a8.15,8.15,0,0,1-.38,4.34c-.95,2.46-.49,3.19,2.07,3.4A2.5,2.5,0,0,1,148.41,35a6.84,6.84,0,0,1,1,7.14C148.54,44.3,149.09,45.16,151.38,45.26Z"/><path d="M122.89,27.38c.07,2.86-.28,5.58-2.29,7.85-1.49,1.67-3.26,1.83-4.91.3a7.25,7.25,0,0,1-2.36-5.09,21.61,21.61,0,0,1,1-7.72c.32-1,.52-2.36,1.85-2.48,1.81-.16,3.8-.79,5.26,1a5.67,5.67,0,0,1,1.43,3.64Zm-3.74,5.87c1.39-1.75,1.4-3.82,1.38-6.26-.13-1,.26-2.44-.55-3.79s-1.89-.24-2.82-.37c-.64-.1-.72.55-.83,1.05a28.18,28.18,0,0,0-.44,7A3.89,3.89,0,0,0,117,33.33C117.9,34.35,118.31,34.32,119.15,33.25Z"/><path class="cls-1" d="M122.48,3.6a7.11,7.11,0,0,1,.27,5.23,1,1,0,0,1-1.11.81c-1,0-1.93,0-2.89,0a48,48,0,0,0-9,1c-1.28.23-1.51-.17-1.41-1.29A17.36,17.36,0,0,1,108.76,5a2.09,2.09,0,0,1,2.08-1.66c1.17,0,1.39.88,1.68,1.7.09.26.14.53.23.8A1.39,1.39,0,0,0,114.11,7a1.41,1.41,0,0,0,1.38-1.14c.26-.78.48-1.58.76-2.35.1-.29.28-.64.68-.58s.43.42.51.73.15.81.24,1.21c.16.68.5,1.2,1.26,1.26A1.43,1.43,0,0,0,120.47,5c.15-.39.23-.8.37-1.18s.21-1,.8-1S122.32,3.24,122.48,3.6Z"/><path class="cls-3" d="M120.53,27c0,2.44,0,4.51-1.38,6.26-.84,1.07-1.25,1.1-2.15.08a3.89,3.89,0,0,1-1.11-2.47,28.18,28.18,0,0,1,.44-7c.11-.5.19-1.15.83-1.05.93.13,2-1,2.82.37S120.4,26,120.53,27Zm-2.07,3.61a6,6,0,0,0,.54-4.26c-.07-.45-.25-.95-.85-.89a1,1,0,0,0-.91.91c-.13.72-.18,1.45-.26,2.18H117a17.58,17.58,0,0,0,0,1.78c0,.39.12.9.62,1S118.27,30.91,118.46,30.6Z"/><path d="M119,26.34a6,6,0,0,1-.54,4.26c-.19.31-.4.73-.79.68s-.58-.57-.62-1a17.58,17.58,0,0,1,0-1.78H117c.08-.73.13-1.46.26-2.18a1,1,0,0,1,.91-.91C118.75,25.39,118.93,25.89,119,26.34Z"/><path d="M113.17,26.11a12.53,12.53,0,0,1-2.06,8c-1.26,1.87-2.51,2.47-4.25,2.06a4,4,0,0,1-3-3.87,23.9,23.9,0,0,1,1.26-9.63,4.25,4.25,0,0,1,4.51-3.07c1.46.15,3.13,2,3.39,3.91C113.16,24.37,113.13,25.24,113.17,26.11Zm-3,4.64a17,17,0,0,0,.53-6.87,2.29,2.29,0,0,0-.35-.88,1.71,1.71,0,0,0-1.71-1.13c-.84.08-1,.75-1.2,1.33a22.3,22.3,0,0,0-.94,4.55c-.08.78-.13,1.57-.14,2.35,0,.6,0,1.19,0,1.79,0,.82.24,1.59,1.14,1.84s1.29-.48,1.7-1.09A8.46,8.46,0,0,0,110.18,30.75Z"/><path class="cls-3" d="M110.71,23.88a17,17,0,0,1-.53,6.87l-.83-.29a9.58,9.58,0,0,0,.06-1.14c0-.59,0-1,0-1.33,0-.63-.22-1.27-1-1.29s-.9.56-1,1.15l-1-.1a22.3,22.3,0,0,1,.94-4.55c.2-.58.36-1.25,1.2-1.33A1.71,1.71,0,0,1,110.36,23,2.29,2.29,0,0,1,110.71,23.88Z"/><path class="cls-3" d="M109.35,30.46l.83.29a8.46,8.46,0,0,1-1,1.89c-.41.61-.78,1.35-1.7,1.09s-1.11-1-1.14-1.84c0-.6,0-1.19,0-1.79,0-.78.06-1.57.14-2.35l1,.1s0,.07,0,.11a5.06,5.06,0,0,0,0,1.1c.07.81-.27,2,1,2.05C109.05,31.12,109.27,30.83,109.35,30.46Z"/><path d="M109.41,28c0,.36,0,.74,0,1.33a9.58,9.58,0,0,1-.06,1.14c-.08.37-.3.66-.92.65-1.25,0-.91-1.24-1-2.05a5.06,5.06,0,0,1,0-1.1s0-.08,0-.11c.07-.59.24-1.17,1-1.15S109.36,27.36,109.41,28Z"/><path class="cls-1" d="M88.54,203.37c.85.1,1.09.39.6,1.11a13.66,13.66,0,0,1-9,6.09c-3.93-.11-4.08-.38-2.55-3a43.11,43.11,0,0,1,3.34-4.71c.32-.4.63-.76,1.26-.56A34.31,34.31,0,0,0,88.54,203.37Z"/><path class="cls-4" d="M33.21,121.05c-.88,4-1.84,6-3.75,8.12-2.6,2.88-6.48,4.36-11.44,4.36-10.88,0-17.52-6.8-17.52-18S7.06,97.74,18.06,97.74c5.12,0,9.4,1.92,12.11,5.44a13,13,0,0,1,2.6,6.11l-9.83,1.8a5.85,5.85,0,0,0-1.32-3.16,5.2,5.2,0,0,0-4-2c-4.56,0-7,3.36-7,9.52,0,3.52.88,6.28,2.52,7.92a6.49,6.49,0,0,0,4.4,1.8,5.69,5.69,0,0,0,4-1.52,5.5,5.5,0,0,0,1.76-4Z"/><path class="cls-4" d="M34.78,115.57c0-10.83,6.6-17.79,17-17.79s16.83,6.92,16.83,17.63-6.79,18.12-16.83,18.12C41.38,133.53,34.78,126.53,34.78,115.57Zm23.8,0c0-6-2.56-9.56-6.88-9.56s-7,3.56-7,9.56,2.64,9.72,7,9.72S58.58,121.57,58.58,115.53Z"/><path class="cls-4" d="M91.58,114.41a21.85,21.85,0,0,1,1.8,3.24c-.12-1.16-.2-2.4-.2-3.48v-9.23a51.39,51.39,0,0,0-.32-6.4h10.19a49.06,49.06,0,0,0-.31,6.44v21.27a58.24,58.24,0,0,0,.31,6.44H92.82a55,55,0,0,0-3.32-5.56l-6.4-9.76A38.94,38.94,0,0,1,81,113.69c.12,1.32.2,2.8.2,3.92v8.68a47.81,47.81,0,0,0,.32,6.4H71.34a43.37,43.37,0,0,0,.32-6.44V105a51.55,51.55,0,0,0-.32-6.44H81.58A26.1,26.1,0,0,0,84.66,104Z"/><path class="cls-4" d="M138.53,121.05c-.88,4-1.84,6-3.75,8.12-2.6,2.88-6.48,4.36-11.44,4.36-10.88,0-17.52-6.8-17.52-18s6.56-17.75,17.56-17.75c5.12,0,9.4,1.92,12.12,5.44a13.05,13.05,0,0,1,2.59,6.11l-9.83,1.8a5.85,5.85,0,0,0-1.32-3.16,5.2,5.2,0,0,0-4-2c-4.56,0-7,3.36-7,9.52,0,3.52.88,6.28,2.52,7.92a6.49,6.49,0,0,0,4.4,1.8,5.69,5.69,0,0,0,4-1.52,5.5,5.5,0,0,0,1.76-4Z"/><path class="cls-4" d="M161.26,124.37a54.71,54.71,0,0,0,6.36-.28V133a54.86,54.86,0,0,0-6.44-.28H147.5c-3.44,0-4.48,0-6.4.12a40.77,40.77,0,0,0,.32-6.2V104.7a45.89,45.89,0,0,0-.32-6.28c1.88.12,2.88.12,6.36.12h13.2c2.48,0,4.2-.08,6.44-.28v8.83a56.7,56.7,0,0,0-6.44-.28H151.1v4.48h7.8c2.56,0,4.24-.08,6.52-.28v8.64a57.31,57.31,0,0,0-6.52-.28h-7.84v5Z"/><path class="cls-4" d="M170.58,132.69a49.76,49.76,0,0,0,.32-6.4V104.7a51,51,0,0,0-.32-6.28c1.92.08,3.64.12,6.4.12h9c8.4,0,13.07,4.07,13.07,11.39,0,7.48-4.91,12.08-13,12.08h-5.48v4.12a62,62,0,0,0,.32,6.56Zm14.84-18.84a3.39,3.39,0,0,0,3.72-3.64c0-2.24-1.32-3.52-3.72-3.52h-4.84v7.16Z"/><path class="cls-4" d="M220.54,126.13a54.54,54.54,0,0,0,.32,6.56H210.34a53.69,53.69,0,0,0,.32-6.56V107.05h-4.32a60.78,60.78,0,0,0-6.4.28V98.26a61.77,61.77,0,0,0,6.32.28h18.52a59.37,59.37,0,0,0,6.43-.28v9.07a57.92,57.92,0,0,0-6.43-.28h-4.24Z"/></g></g></svg>