<svg xmlns="http://www.w3.org/2000/svg" viewBox="0 0 122.46 196.43"><defs><style>.cls-1{fill:#ff3e0d;}.cls-2{fill:#fff;}</style></defs><g id="レイヤー_2" data-name="レイヤー 2"><g id="レイヤー_1-2" data-name="レイヤー 1"><path d="M121.24,74.5c1.64,9.21,2,18.39-1.24,27.39-2.31,6.49-5.77,12.23-11.17,16.65a11.2,11.2,0,0,1-6.7,2.91,1.3,1.3,0,0,0-.13,0c-2.86.52-2.86.68-1.59,3.2,3.76,7.38,8.21,14.37,12.44,21.46a54.13,54.13,0,0,1,7.54,20.91,34.8,34.8,0,0,1-.23,12.09,21.08,21.08,0,0,1-12,15,8.91,8.91,0,0,1-8.15-.48,34.9,34.9,0,0,1-6.86-4.84,14.1,14.1,0,0,1-4.42-6.54,1.24,1.24,0,0,0-1.51-1c-8.89.67-17.86.06-26.73,1.35a2.64,2.64,0,0,0-2.11,1.25c-2.44,3.89-6,6.59-9.82,8.92a11.59,11.59,0,0,0-1.67,1c-3.31,2.43-7,2.93-11,2.62a10.74,10.74,0,0,1-7.86-4,20.22,20.22,0,0,1-3.63-6.62c-2.11-6.59-1.9-13.34-1.43-20.11.56-7.94,2.62-15.57,4.82-23.4-5.08,1.19-10.06,1-15,.77-4.58-.19-8.66-1.8-11.17-6a7.92,7.92,0,0,1,1.19-9.79c3.6-3.71,8.31-5.14,13.15-6.25a39.33,39.33,0,0,1,7.54-.72,13.34,13.34,0,0,0-4.1-2c-1.82-.56-3.65-1-5.4-1.72C5.16,113.06,1,106.1.21,97c-1.29-14.77,3.31-27.6,13.4-38.38a54.85,54.85,0,0,1,14.68-10.9,3.91,3.91,0,0,0,.51-.24c.63-.5,1.88-.05,2.11-.9s-.34-1.59-.42-2.41c-.74-6.77-1.56-13.6-.87-20.37.82-8,5-14,12.62-17.26C45.79,5,49.12,5.24,52.22,8c2.91,2.62,5.29,5.48,6.46,9.26a7.61,7.61,0,0,0,1.19,2.36c.16-1.11.34-2.23.53-3.34a28.52,28.52,0,0,1,3.2-9.92A11.77,11.77,0,0,1,75.24,0,8.5,8.5,0,0,1,79.93,2.2c7.57,5.74,11,13.6,11.7,22.84a135.76,135.76,0,0,1-.11,16c0,1.27.29,1.77,1.59,2.11,5.42,1.41,10.4,3.66,14.45,7.71,2.88,2.88,6,5.53,8.36,8.94C118.94,64.26,120.31,69.31,121.24,74.5ZM118,97.63c2.17-8.52,1.45-17.07-.45-25.54-1.25-5.53-3.26-10.66-7.44-14.69-1.53-1.45-3-3-4.42-4.55-3.68-4-8.47-6.11-13.31-8.15a1.27,1.27,0,0,0-1.3,0c-1.48.88-2.33.37-2.35-1.37,0-2.12,0-4.24.1-6.36a83.74,83.74,0,0,0-.34-14.34C87.47,15.11,84.19,8.79,78,4.15a5.43,5.43,0,0,0-2.81-1.37,9,9,0,0,0-9,4.66A23.94,23.94,0,0,0,63.68,14c-1.43,5.61-1.06,11.35-1.11,17,.08,3.5,0,7,.34,10.48.11,1-.16,1.83-1.27,2s-1.51-.69-1.69-1.61a40.31,40.31,0,0,1-.4-4.66c-.42-6.72-1.22-13.37-3.65-19.74a20.16,20.16,0,0,0-5.72-8,6.18,6.18,0,0,0-6-1.32,8.72,8.72,0,0,0-2.31.87c-6.43,3.52-10,9-10.21,16.25a108.82,108.82,0,0,0,1.16,21.33c.16.93-.08,1.62-1.13,1.83A8.33,8.33,0,0,0,29,49.62a58.1,58.1,0,0,0-8.1,5.77C7.52,66.16,1.35,80.16,3,97.34c.71,7.81,4.52,13.68,12.09,16.73,3.39,1.37,7,1.93,10.24,3.91a23.57,23.57,0,0,0,7.7,2.94,3.38,3.38,0,0,1,1.14.48c.48.26.85.63.72,1.21s-.66.43-1,.48a9.44,9.44,0,0,1-1.67.11c-3.47-.19-7-.37-10.46-.24a30.1,30.1,0,0,0-13.89,4.13,11.23,11.23,0,0,0-2.75,2.3,4.8,4.8,0,0,0-.48,6.3c1.85,2.78,4.74,3.83,7.83,4,5.43.18,10.88.5,16.18-1.17a5.9,5.9,0,0,1,2.43-.37c1.22.13,2,1.4,1.16,2.15-1.56,1.4-1.64,3.33-2.14,5A94.29,94.29,0,0,0,26,167.55c-.32,6-.38,12,1.64,17.73a15.41,15.41,0,0,0,3.3,5.53,6.16,6.16,0,0,0,3.6,2.17c3.5.45,6.86.56,10.11-1.5,4.66-2.94,9.32-5.77,12.15-10.75a2.31,2.31,0,0,1,1.88-1c9.77-1.33,19.64-1.09,29.48-1.54,2-.08,2.65.42,3.23,2.33a12.91,12.91,0,0,0,3.94,6,35.54,35.54,0,0,0,6.09,4.29,6.08,6.08,0,0,0,5.72.32,18,18,0,0,0,10-12.68,29.6,29.6,0,0,0,.23-10.58,56,56,0,0,0-8.15-21.81c-2.38-3.94-5-7.7-7.25-11.73-2-3.6-3.7-7.3-5.9-10.77-1.17-1.88-.45-3.33,1.59-4a13.76,13.76,0,0,0,2-.9,4.48,4.48,0,0,1,2.62-.77c2,.34,3.44-.69,4.79-1.88A34.58,34.58,0,0,0,118,97.63Z"/><path class="cls-1" d="M117.59,72.09c1.9,8.47,2.62,17,.45,25.54a34.58,34.58,0,0,1-11,18.42c-1.35,1.19-2.78,2.22-4.79,1.88a4.48,4.48,0,0,0-2.62.77,13.76,13.76,0,0,1-2,.9c-2,.66-2.76,2.11-1.59,4,2.2,3.47,3.92,7.17,5.9,10.77,2.22,4,4.87,7.79,7.25,11.73a56,56,0,0,1,8.15,21.81,29.6,29.6,0,0,1-.23,10.58,18,18,0,0,1-10,12.68,6.08,6.08,0,0,1-5.72-.32,35.54,35.54,0,0,1-6.09-4.29,12.91,12.91,0,0,1-3.94-6c-.58-1.91-1.27-2.41-3.23-2.33-9.84.45-19.71.21-29.48,1.54a2.31,2.31,0,0,0-1.88,1c-2.83,5-7.49,7.81-12.15,10.75-3.25,2.06-6.61,2-10.11,1.5a6.16,6.16,0,0,1-3.6-2.17,15.41,15.41,0,0,1-3.3-5.53c-2-5.77-2-11.75-1.64-17.73A94.29,94.29,0,0,1,30,145.32c.5-1.72.58-3.65,2.14-5,.82-.75.06-2-1.16-2.15a5.9,5.9,0,0,0-2.43.37c-5.3,1.67-10.75,1.35-16.18,1.17-3.09-.14-6-1.19-7.83-4a4.8,4.8,0,0,1,.48-6.3,11.23,11.23,0,0,1,2.75-2.3A30.1,30.1,0,0,1,21.7,123c3.5-.13,7,.05,10.46.24a9.44,9.44,0,0,0,1.67-.11c.37,0,.9,0,1-.48s-.24-1-.72-1.21a3.38,3.38,0,0,0-1.14-.48A23.57,23.57,0,0,1,25.3,118c-3.2-2-6.85-2.54-10.24-3.91C7.49,111,3.68,105.15,3,97.34,1.35,80.16,7.52,66.16,20.91,55.39A58.1,58.1,0,0,1,29,49.62a8.33,8.33,0,0,1,2.65-1.16c1.05-.21,1.29-.9,1.13-1.83A108.82,108.82,0,0,1,31.63,25.3c.24-7.25,3.78-12.73,10.21-16.25a8.72,8.72,0,0,1,2.31-.87,6.18,6.18,0,0,1,6,1.32,20.16,20.16,0,0,1,5.72,8c2.43,6.37,3.23,13,3.65,19.74a40.31,40.31,0,0,0,.4,4.66c.18.92.58,1.74,1.69,1.61s1.38-1,1.27-2c-.29-3.49-.26-7-.34-10.48,0-5.69-.32-11.43,1.11-17a23.94,23.94,0,0,1,2.46-6.56,9,9,0,0,1,9-4.66A5.43,5.43,0,0,1,78,4.15c6.22,4.64,9.5,11,10.56,18.53A83.74,83.74,0,0,1,88.87,37c-.05,2.12-.1,4.24-.1,6.36,0,1.74.87,2.25,2.35,1.37a1.27,1.27,0,0,1,1.3,0c4.84,2,9.63,4.18,13.31,8.15,1.43,1.56,2.89,3.1,4.42,4.55C114.33,61.43,116.34,66.56,117.59,72.09Z"/><path d="M97.13,71.16c-3.63-5.08-7.78-9.52-13.34-12.3a42.35,42.35,0,0,0-25-3.92,23.2,23.2,0,0,0-5.48,1.32A52.68,52.68,0,0,0,35.89,67.67c-4.55,4.39-7.2,10.06-9.55,15.85a18.93,18.93,0,0,0-1.62,6.38A22,22,0,0,0,29,104c6.78,9.69,16.75,13.63,28,15a59.41,59.41,0,0,0,7.31,0c3.94,0,7.91,0,11.85-.18A29.25,29.25,0,0,0,90.62,114c5.74-3.65,10.08-8.23,11.12-15.45C103.09,88.87,103.14,79.63,97.13,71.16Zm1.56,27.53A16.13,16.13,0,0,1,92.45,109a33.09,33.09,0,0,1-11.38,6.06c-3.34,1-6.83.87-10.25,1.08-2.75.16-5.53,0-8.28,0v0c-3.12,0-6.25,0-9.37,0a17.94,17.94,0,0,1-4.66-1.19,31.5,31.5,0,0,1-16.59-11.3,20.64,20.64,0,0,1-4.53-13.47A18.71,18.71,0,0,1,29,84a61.67,61.67,0,0,1,4.8-9.32c3-5,7.46-8.28,12.17-11.38,3.89-2.54,7.94-4.71,12.6-5.4a39.61,39.61,0,0,1,24,3.66c5.16,2.59,8.94,6.82,12.28,11.59C100.49,81.09,100.09,89.74,98.69,98.69Z"/><path class="cls-2" d="M98.69,98.69A16.13,16.13,0,0,1,92.45,109a33.09,33.09,0,0,1-11.38,6.06c-3.34,1-6.83.87-10.25,1.08-2.75.16-5.53,0-8.28,0v0c-3.12,0-6.25,0-9.37,0a17.94,17.94,0,0,1-4.66-1.19,31.5,31.5,0,0,1-16.59-11.3,20.64,20.64,0,0,1-4.53-13.47A18.71,18.71,0,0,1,29,84a61.67,61.67,0,0,1,4.8-9.32c3-5,7.46-8.28,12.17-11.38,3.89-2.54,7.94-4.71,12.6-5.4a39.61,39.61,0,0,1,24,3.66c5.16,2.59,8.94,6.82,12.28,11.59C100.49,81.09,100.09,89.74,98.69,98.69Z"/><path d="M84.31,166.22a10.46,10.46,0,0,1-7.72-3.09A8.48,8.48,0,0,1,74,156.82c.12-8,2.73-15.33,6.85-22.13a6.43,6.43,0,0,1,1.08-1.25,1,1,0,0,1,1.38-.14,1,1,0,0,1,.26,1.36c-.37.74-.85,1.43-1.19,2.18a58.57,58.57,0,0,0-5,15.44,38,38,0,0,0-.24,4.13,5.79,5.79,0,0,0,3.52,5.75,6.37,6.37,0,0,0,6.71-.15c4.89-3.23,8.32-7.47,9.23-13.44a.59.59,0,0,1,0-.13c.28-.91.13-2.28,1.64-2.06s1.62,1.39,1.56,2.54a17.24,17.24,0,0,1-3.43,9,24.1,24.1,0,0,1-8,7.29A7.58,7.58,0,0,1,84.31,166.22Z"/><path d="M65.8,93.15a8.05,8.05,0,0,1-1.26-.09,1.38,1.38,0,0,1-1.24-1.43c0-.87.63-1.17,1.38-1.23,1.28-.1,2.58-.06,3.85-.25a4,4,0,0,0,2.69-5.93.87.87,0,0,0-.49-.42,6.09,6.09,0,0,1-3.36-2.26c-.76-.85-1.9-.49-2.86-.72-1.19-.29-1.8.34-2.42,1.29a4.61,4.61,0,0,1-6,1.67c-1.58-.69-2.16-1.9-1.91-4a3.68,3.68,0,0,1,2.85-3.3A23,23,0,0,1,60,76.23a2.84,2.84,0,0,1,2.9,1.71.85.85,0,0,0,1.16.6,4.5,4.5,0,0,1,1.36-.18c.92.08,1.51-.2,1.64-1.18a1.1,1.1,0,0,1,.16-.37c.56-1,4.25-2.65,5.52-2.48a5.21,5.21,0,0,1,3.86,3.36A4.7,4.7,0,0,1,74.22,83a1.36,1.36,0,0,0-.77,1.65C74.44,90.43,72.2,93,65.8,93.15Zm3.5-14.68c0,1.11.11,1.13,1.71,2.15a1.82,1.82,0,0,0,2.46-.39A1.8,1.8,0,0,0,73.8,78c-.5-1-1.77-1.27-3.29-.92C69.63,77.24,69.26,77.71,69.3,78.47ZM58,81.75c1.38,0,2.72-1.1,2.62-2.26-.14-1.51-1.62-1-2.48-1.36s-1.66.78-1.71,1.87S57,81.79,58,81.75Z"/><path d="M53.56,73.53c-1.1,0-2.21,0-2.57-1.32s.5-2,1.44-2.54A8.5,8.5,0,0,1,56.87,68a1.86,1.86,0,0,1,1.58,3.18A5.92,5.92,0,0,1,53.56,73.53Z"/><path d="M72.22,66.88a9.32,9.32,0,0,1,3.31.52A1.85,1.85,0,0,1,77,69,1.81,1.81,0,0,1,75.74,71a7.49,7.49,0,0,1-6.35-.52,1.88,1.88,0,0,1-.89-2.26,1.77,1.77,0,0,1,1.87-1.31C70.88,66.86,71.38,66.88,72.22,66.88Z"/><path d="M66.22,100.53c.6.1,1.32.2,2,.33.36.07.76.16.75.64a1,1,0,0,1-.58.88,4.06,4.06,0,0,1-3.58-.07,1,1,0,0,1-.61-1.23C64.63,100.28,65.43,100.57,66.22,100.53Z"/></g></g></svg>