<svg xmlns="http://www.w3.org/2000/svg" viewBox="0 0 232.71 196.43"><defs><style>.cls-1{fill:#ff3e0d;}.cls-2{fill:#fff;}.cls-3{stroke:#fff;stroke-miterlimit:10;stroke-width:2px;}</style></defs><g id="レイヤー_2" data-name="レイヤー 2"><g id="レイヤー_1-2" data-name="レイヤー 1"><path d="M169.18,74.5c1.64,9.21,2,18.39-1.25,27.39-2.3,6.49-5.77,12.23-11.16,16.65a11.23,11.23,0,0,1-6.7,2.91.86.86,0,0,0-.13,0c-2.86.52-2.86.68-1.59,3.2,3.76,7.38,8.2,14.37,12.44,21.46a54.13,54.13,0,0,1,7.54,20.91,35,35,0,0,1-.24,12.09,21,21,0,0,1-12,15,8.91,8.91,0,0,1-8.15-.48,35.13,35.13,0,0,1-6.85-4.84,14.1,14.1,0,0,1-4.42-6.54,1.24,1.24,0,0,0-1.51-1c-8.89.67-17.86.06-26.73,1.35a2.68,2.68,0,0,0-2.12,1.25c-2.43,3.89-5.95,6.59-9.82,8.92a12.05,12.05,0,0,0-1.66,1c-3.31,2.43-7,2.93-11,2.62a10.72,10.72,0,0,1-7.86-4,20,20,0,0,1-3.63-6.62c-2.12-6.59-1.9-13.34-1.43-20.11.56-7.94,2.62-15.57,4.82-23.4-5.08,1.19-10.06,1-15,.77-4.58-.19-8.65-1.8-11.17-6a7.94,7.94,0,0,1,1.2-9.79c3.59-3.71,8.31-5.14,13.15-6.25a39.25,39.25,0,0,1,7.54-.72,13.45,13.45,0,0,0-4.1-2c-1.83-.56-3.65-1-5.4-1.72C53.1,113.06,49,106.1,48.15,97c-1.3-14.77,3.31-27.6,13.39-38.38a55.06,55.06,0,0,1,14.69-10.9,3.27,3.27,0,0,0,.5-.24c.64-.5,1.88-.05,2.12-.9s-.34-1.59-.42-2.41c-.74-6.77-1.56-13.6-.88-20.37.83-8,5-14,12.63-17.26C93.72,5,97.06,5.24,100.16,8c2.91,2.62,5.29,5.48,6.45,9.26a8.07,8.07,0,0,0,1.19,2.36c.16-1.11.35-2.23.53-3.34a28.53,28.53,0,0,1,3.21-9.92A11.75,11.75,0,0,1,123.18,0a8.53,8.53,0,0,1,4.69,2.17c7.56,5.74,11,13.6,11.69,22.84a133.64,133.64,0,0,1-.1,16c-.06,1.27.29,1.77,1.58,2.11,5.43,1.41,10.41,3.66,14.46,7.71,2.88,2.88,6,5.53,8.36,8.94C166.88,64.26,168.25,69.31,169.18,74.5ZM166,97.63c2.17-8.52,1.45-17.07-.45-25.54-1.25-5.53-3.26-10.66-7.44-14.69-1.54-1.45-3-3-4.42-4.55-3.68-4-8.47-6.11-13.31-8.15a1.27,1.27,0,0,0-1.3,0c-1.48.88-2.33.37-2.36-1.37,0-2.12.06-4.24.11-6.36a83.74,83.74,0,0,0-.34-14.34c-1.06-7.57-4.34-13.89-10.56-18.53a5.47,5.47,0,0,0-2.81-1.37,9,9,0,0,0-9,4.66A23.94,23.94,0,0,0,111.62,14c-1.43,5.61-1.06,11.35-1.12,17,.08,3.5.06,7,.35,10.48.1,1-.16,1.83-1.27,2s-1.51-.69-1.7-1.61a38.2,38.2,0,0,1-.39-4.66c-.43-6.72-1.22-13.37-3.66-19.74a20.13,20.13,0,0,0-5.71-8,6.19,6.19,0,0,0-6-1.32,8.79,8.79,0,0,0-2.3.87c-6.43,3.52-10,9-10.21,16.25a108.82,108.82,0,0,0,1.16,21.33c.16.93-.08,1.62-1.14,1.83A8.28,8.28,0,0,0,77,49.62a57.52,57.52,0,0,0-8.1,5.77c-13.39,10.77-19.56,24.77-17.95,42,.72,7.81,4.53,13.68,12.1,16.73,3.39,1.37,7,1.93,10.24,3.91a23.48,23.48,0,0,0,7.7,2.94,3.38,3.38,0,0,1,1.14.48c.48.26.85.63.71,1.21s-.66.43-1,.48a9.26,9.26,0,0,1-1.66.11c-3.47-.19-7-.37-10.46-.24a30.07,30.07,0,0,0-13.89,4.13,11.46,11.46,0,0,0-2.76,2.3,4.8,4.8,0,0,0-.47,6.3c1.85,2.78,4.74,3.83,7.83,4,5.43.18,10.88.5,16.17-1.17a6,6,0,0,1,2.44-.37c1.21.13,2,1.4,1.16,2.15-1.56,1.4-1.64,3.33-2.14,5a94.81,94.81,0,0,0-4.08,22.23c-.32,6-.37,12,1.64,17.73a15.58,15.58,0,0,0,3.31,5.53,6.16,6.16,0,0,0,3.6,2.17c3.49.45,6.86.56,10.11-1.5,4.66-2.94,9.32-5.77,12.15-10.75a2.31,2.31,0,0,1,1.88-1c9.76-1.33,19.63-1.09,29.48-1.54,2-.08,2.65.42,3.23,2.33a12.83,12.83,0,0,0,3.94,6,35.16,35.16,0,0,0,6.09,4.29,6.08,6.08,0,0,0,5.72.32,18,18,0,0,0,10-12.68,29.37,29.37,0,0,0,.24-10.58,56,56,0,0,0-8.15-21.81c-2.38-3.94-5-7.7-7.25-11.73-2-3.6-3.71-7.3-5.9-10.77-1.17-1.88-.45-3.33,1.58-4a13.86,13.86,0,0,0,2-.9,4.48,4.48,0,0,1,2.62-.77c2,.34,3.44-.69,4.79-1.88A34.58,34.58,0,0,0,166,97.63Z"/><path class="cls-1" d="M165.53,72.09c1.9,8.47,2.62,17,.45,25.54a34.58,34.58,0,0,1-11,18.42c-1.35,1.19-2.78,2.22-4.79,1.88a4.48,4.48,0,0,0-2.62.77,13.86,13.86,0,0,1-2,.9c-2,.66-2.75,2.11-1.58,4,2.19,3.47,3.91,7.17,5.9,10.77,2.22,4,4.87,7.79,7.25,11.73a56,56,0,0,1,8.15,21.81,29.37,29.37,0,0,1-.24,10.58,18,18,0,0,1-10,12.68,6.08,6.08,0,0,1-5.72-.32,35.16,35.16,0,0,1-6.09-4.29,12.83,12.83,0,0,1-3.94-6c-.58-1.91-1.27-2.41-3.23-2.33-9.85.45-19.72.21-29.48,1.54a2.31,2.31,0,0,0-1.88,1c-2.83,5-7.49,7.81-12.15,10.75-3.25,2.06-6.62,2-10.11,1.5a6.16,6.16,0,0,1-3.6-2.17,15.58,15.58,0,0,1-3.31-5.53c-2-5.77-2-11.75-1.64-17.73A94.81,94.81,0,0,1,78,145.32c.5-1.72.58-3.65,2.14-5,.82-.75,0-2-1.16-2.15a6,6,0,0,0-2.44.37c-5.29,1.67-10.74,1.35-16.17,1.17-3.09-.14-6-1.19-7.83-4a4.8,4.8,0,0,1,.47-6.3,11.46,11.46,0,0,1,2.76-2.3A30.07,30.07,0,0,1,69.64,123c3.49-.13,7,.05,10.46.24a9.26,9.26,0,0,0,1.66-.11c.37,0,.9,0,1-.48s-.23-1-.71-1.21a3.38,3.38,0,0,0-1.14-.48,23.48,23.48,0,0,1-7.7-2.94c-3.2-2-6.85-2.54-10.24-3.91-7.57-3-11.38-8.92-12.1-16.73-1.61-17.18,4.56-31.18,17.95-41.95A57.52,57.52,0,0,1,77,49.62a8.28,8.28,0,0,1,2.64-1.16c1.06-.21,1.3-.9,1.14-1.83A108.82,108.82,0,0,1,79.57,25.3c.23-7.25,3.78-12.73,10.21-16.25a8.79,8.79,0,0,1,2.3-.87,6.19,6.19,0,0,1,6,1.32,20.13,20.13,0,0,1,5.71,8c2.44,6.37,3.23,13,3.66,19.74a38.2,38.2,0,0,0,.39,4.66c.19.92.59,1.74,1.7,1.61s1.37-1,1.27-2c-.29-3.49-.27-7-.35-10.48.06-5.69-.31-11.43,1.12-17a23.94,23.94,0,0,1,2.46-6.56,9,9,0,0,1,9-4.66,5.47,5.47,0,0,1,2.81,1.37c6.22,4.64,9.5,11,10.56,18.53A83.74,83.74,0,0,1,136.81,37c-.05,2.12-.11,4.24-.11,6.36,0,1.74.88,2.25,2.36,1.37a1.27,1.27,0,0,1,1.3,0c4.84,2,9.63,4.18,13.31,8.15,1.43,1.56,2.88,3.1,4.42,4.55C162.27,61.43,164.28,66.56,165.53,72.09Z"/><path d="M145.07,71.16c-3.63-5.08-7.78-9.52-13.34-12.3a42.36,42.36,0,0,0-25-3.92,23.08,23.08,0,0,0-5.48,1.32A52.68,52.68,0,0,0,83.83,67.67c-4.56,4.39-7.2,10.06-9.56,15.85a18.91,18.91,0,0,0-1.61,6.38A22,22,0,0,0,76.92,104c6.77,9.69,16.75,13.63,28,15a59.25,59.25,0,0,0,7.3,0c4,0,7.92,0,11.86-.18A29.29,29.29,0,0,0,138.56,114c5.74-3.65,10.08-8.23,11.11-15.45C151,88.87,151.08,79.63,145.07,71.16Zm1.56,27.53A16.14,16.14,0,0,1,140.38,109,32.91,32.91,0,0,1,129,115.1c-3.33,1-6.82.87-10.24,1.08-2.75.16-5.53,0-8.28,0v0c-3.13,0-6.25,0-9.37,0a17.94,17.94,0,0,1-4.66-1.19,31.5,31.5,0,0,1-16.59-11.3,20.58,20.58,0,0,1-4.53-13.47A18.71,18.71,0,0,1,77,84a60.72,60.72,0,0,1,4.79-9.32c3-5,7.47-8.28,12.18-11.38,3.89-2.54,7.94-4.71,12.59-5.4a39.59,39.59,0,0,1,24,3.66c5.17,2.59,8.95,6.82,12.28,11.59C148.43,81.09,148,89.74,146.63,98.69Z"/><path class="cls-2" d="M146.63,98.69A16.14,16.14,0,0,1,140.38,109,32.91,32.91,0,0,1,129,115.1c-3.33,1-6.82.87-10.24,1.08-2.75.16-5.53,0-8.28,0v0c-3.13,0-6.25,0-9.37,0a17.94,17.94,0,0,1-4.66-1.19,31.5,31.5,0,0,1-16.59-11.3,20.58,20.58,0,0,1-4.53-13.47A18.71,18.71,0,0,1,77,84a60.72,60.72,0,0,1,4.79-9.32c3-5,7.47-8.28,12.18-11.38,3.89-2.54,7.94-4.71,12.59-5.4a39.59,39.59,0,0,1,24,3.66c5.17,2.59,8.95,6.82,12.28,11.59C148.43,81.09,148,89.74,146.63,98.69Z"/><path d="M132.25,166.22a10.44,10.44,0,0,1-7.72-3.09,8.44,8.44,0,0,1-2.61-6.31c.12-8,2.73-15.33,6.85-22.13a6.06,6.06,0,0,1,1.07-1.25,1,1,0,0,1,1.39-.14,1,1,0,0,1,.26,1.36c-.37.74-.85,1.43-1.19,2.18a58.57,58.57,0,0,0-5,15.44,40.69,40.69,0,0,0-.25,4.13,5.8,5.8,0,0,0,3.53,5.75,6.35,6.35,0,0,0,6.7-.15c4.89-3.23,8.33-7.47,9.23-13.44l0-.13c.27-.91.12-2.28,1.64-2.06s1.62,1.39,1.56,2.54a17.32,17.32,0,0,1-3.43,9,24,24,0,0,1-8,7.29A7.52,7.52,0,0,1,132.25,166.22Z"/><path d="M113.74,93.15a7.92,7.92,0,0,1-1.26-.09,1.4,1.4,0,0,1-1.25-1.43c0-.87.64-1.17,1.39-1.23,1.28-.1,2.58-.06,3.84-.25a4,4,0,0,0,2.7-5.93.85.85,0,0,0-.5-.42,6,6,0,0,1-3.35-2.26c-.76-.85-1.91-.49-2.87-.72-1.18-.29-1.79.34-2.41,1.29a4.61,4.61,0,0,1-6,1.67c-1.58-.69-2.16-1.9-1.92-4a3.7,3.7,0,0,1,2.86-3.3,22.83,22.83,0,0,1,2.87-.25,2.82,2.82,0,0,1,2.89,1.71.86.86,0,0,0,1.16.6,4.61,4.61,0,0,1,1.37-.18c.92.08,1.5-.2,1.63-1.18a1.12,1.12,0,0,1,.17-.37c.55-1,4.25-2.65,5.51-2.48a5.23,5.23,0,0,1,3.87,3.36A4.7,4.7,0,0,1,122.15,83a1.36,1.36,0,0,0-.76,1.65C122.37,90.43,120.13,93,113.74,93.15Zm3.5-14.68c0,1.11.11,1.13,1.71,2.15a1.81,1.81,0,0,0,2.45-.39,1.78,1.78,0,0,0,.33-2.27c-.49-1-1.76-1.27-3.28-.92C117.57,77.24,117.2,77.71,117.24,78.47ZM106,81.75c1.38,0,2.72-1.1,2.61-2.26-.13-1.51-1.61-1-2.47-1.36s-1.66.78-1.72,1.87S104.93,81.79,106,81.75Z"/><path d="M101.49,73.53c-1.09,0-2.21,0-2.56-1.32s.5-2,1.44-2.54A8.5,8.5,0,0,1,104.81,68a1.86,1.86,0,0,1,1.58,3.18A6,6,0,0,1,101.49,73.53Z"/><path d="M120.15,66.88a9.37,9.37,0,0,1,3.32.52A1.86,1.86,0,0,1,124.93,69,1.82,1.82,0,0,1,123.68,71a7.49,7.49,0,0,1-6.35-.52,1.88,1.88,0,0,1-.89-2.26,1.77,1.77,0,0,1,1.87-1.31C118.81,66.86,119.32,66.88,120.15,66.88Z"/><path d="M114.16,100.53c.6.1,1.32.2,2,.33.37.07.76.16.76.64a1,1,0,0,1-.58.88,4.08,4.08,0,0,1-3.59-.07,1,1,0,0,1-.6-1.23C112.57,100.28,113.36,100.57,114.16,100.53Z"/><path class="cls-3" d="M33.71,149.67c-.88,4-1.84,6-3.75,8.12-2.6,2.88-6.48,4.36-11.44,4.36-10.88,0-17.52-6.8-17.52-18s6.56-17.75,17.56-17.75c5.12,0,9.4,1.91,12.11,5.43a13,13,0,0,1,2.6,6.12l-9.83,1.8a5.85,5.85,0,0,0-1.32-3.16,5.17,5.17,0,0,0-4-2c-4.56,0-7,3.36-7,9.52,0,3.52.88,6.28,2.52,7.92a6.49,6.49,0,0,0,4.4,1.8,5.69,5.69,0,0,0,4-1.52,5.5,5.5,0,0,0,1.76-4Z"/><path class="cls-3" d="M35.28,144.19c0-10.84,6.6-17.79,17-17.79S69.07,133.31,69.07,144s-6.79,18.12-16.83,18.12C41.88,162.15,35.28,155.15,35.28,144.19Zm23.8,0c0-6-2.56-9.56-6.88-9.56s-7,3.56-7,9.56,2.64,9.72,7,9.72S59.08,150.19,59.08,144.15Z"/><path class="cls-3" d="M92.08,143a21.85,21.85,0,0,1,1.8,3.24c-.12-1.16-.2-2.4-.2-3.48v-9.24a51.39,51.39,0,0,0-.32-6.4h10.19a49.06,49.06,0,0,0-.31,6.44v21.28a58.24,58.24,0,0,0,.31,6.44H93.32A55,55,0,0,0,90,155.75L83.6,146a38.94,38.94,0,0,1-2.08-3.68c.12,1.32.2,2.8.2,3.92v8.68a47.81,47.81,0,0,0,.32,6.4H71.84a43.37,43.37,0,0,0,.32-6.44V133.59a51.65,51.65,0,0,0-.32-6.44H82.08a25.85,25.85,0,0,0,3.08,5.48Z"/><path class="cls-3" d="M139,149.67c-.88,4-1.84,6-3.75,8.12-2.6,2.88-6.48,4.36-11.44,4.36-10.88,0-17.52-6.8-17.52-18s6.56-17.75,17.56-17.75c5.12,0,9.4,1.92,12.12,5.43a13.14,13.14,0,0,1,2.59,6.12l-9.83,1.8a5.85,5.85,0,0,0-1.32-3.16,5.17,5.17,0,0,0-4-2c-4.56,0-7,3.36-7,9.52,0,3.52.88,6.28,2.52,7.92a6.49,6.49,0,0,0,4.4,1.8,5.69,5.69,0,0,0,4-1.52,5.5,5.5,0,0,0,1.76-4Z"/><path class="cls-3" d="M161.76,153a54.71,54.71,0,0,0,6.36-.28v8.88a54.86,54.86,0,0,0-6.44-.28H148c-3.44,0-4.48,0-6.4.12a40.77,40.77,0,0,0,.32-6.2V133.31a45.89,45.89,0,0,0-.32-6.28c1.88.12,2.88.12,6.36.12h13.2c2.48,0,4.2-.08,6.44-.28v8.84a56.7,56.7,0,0,0-6.44-.28H151.6v4.48h7.8c2.56,0,4.24-.08,6.52-.28v8.64a57.31,57.31,0,0,0-6.52-.28h-7.84v5Z"/><path class="cls-3" d="M171.08,161.31a49.76,49.76,0,0,0,.32-6.4v-21.6a51,51,0,0,0-.32-6.28c1.92.08,3.64.12,6.4.12h9c8.4,0,13.07,4.08,13.07,11.4,0,7.48-4.91,12.08-13,12.08h-5.48v4.12a62,62,0,0,0,.32,6.56Zm14.84-18.84a3.39,3.39,0,0,0,3.72-3.64c0-2.24-1.32-3.52-3.72-3.52h-4.84v7.16Z"/><path class="cls-3" d="M221,154.75a54.54,54.54,0,0,0,.32,6.56H210.84a53.69,53.69,0,0,0,.32-6.56V135.67h-4.32a60.78,60.78,0,0,0-6.4.28v-9.08a61.77,61.77,0,0,0,6.32.28h18.52a59.1,59.1,0,0,0,6.43-.29V136a57.92,57.92,0,0,0-6.43-.28H221Z"/></g></g></svg>