<svg xmlns="http://www.w3.org/2000/svg" viewBox="0 0 148.53 207.7"><defs><style>.cls-1{fill:#59baff;}.cls-2{fill:#fbce2a;}.cls-3{fill:#999;}</style></defs><g id="レイヤー_2" data-name="レイヤー 2"><g id="レイヤー_1-2" data-name="レイヤー 1"><path d="M148.2,116.48c.73,2.36.29,3.57-1.8,5-2.78,1.88-5.88,2-9.05,1.41-.69-.12-1.1,0-1.1.38l-3.63.37c-.36-2-1.43-2.73-3.26-3.39-5.7-2-10.84-4.79-12.6-11.2.58.37,1,.71,1.54,1,5.86,3.61,12.36,5.83,18.9,7.92a11,11,0,0,0,5.12.35c1.14-.18,1.55-.67,1.07-1.82a37.92,37.92,0,0,0-4.17-7.08c-4.73-6.68-8.41-13.78-9.78-21.87-.59-3.52-.41-7.07-1.65-10.63a42.83,42.83,0,0,1-2.16-10.06c-.89-10.07-4.56-19.31-9.11-28.29C113,31.69,108,25.91,102.63,20.29,95.25,12.56,86.5,8.35,75.28,8.71s-21,3.87-28.71,11.73C34.87,32.3,25.8,45.66,21.32,61.51l-3.24-.83c.07-.31.17-.63.26-1C22.19,46.36,29.16,34.66,38.48,24.1,43.57,18.34,48.9,13,56,9.49a27.62,27.62,0,0,1,4.9-2c1.15-.3,1.61-.65,1-1.85a8.87,8.87,0,0,1-.71-2.81,1.5,1.5,0,0,1,1.17-1.8c1-.21,1.52.45,1.78,1.23.33,1,.56,2.06.79,3.11.12.53.11,1.15,1,.9.69-.19,1.72.1,1.67-1.17a19.86,19.86,0,0,1,.19-2.89c.09-.78.44-1.49,1.35-1.53s1.36.71,1.57,1.5a5.63,5.63,0,0,1,.13,1.15c.14,2.24.7,2.59,3.07,2,.61-.16.65-.49.59-1a9.05,9.05,0,0,1,0-2.75c.19-.93.64-1.71,1.78-1.64s1.3.91,1.29,1.8a17.94,17.94,0,0,1-.11,2.32c-.12.8,0,1.15,1,1.15,10.61,0,19.14,4.51,26.26,11.65a106,106,0,0,1,10.88,11.94c5,6.81,8.37,14.32,11.36,22.09,2.19,5.67,3,11.54,3.87,17.43.77,5.53,1.68,11,2.56,16.52,1.34,8.46,5.25,15.82,10.17,22.8A32.28,32.28,0,0,1,148.2,116.48Z"/><path class="cls-1" d="M143.39,116.5c.48,1.15.07,1.64-1.07,1.82a11,11,0,0,1-5.12-.35c-6.54-2.09-13-4.31-18.9-7.92-.49-.3-1-.64-1.54-1,1.76,6.41,6.9,9.15,12.6,11.2,1.83.66,2.9,1.42,3.26,3.39.31,1.67.42,3.35.76,5a31.79,31.79,0,0,0,2.92,8.08c.79,1.46.65,1.66-1.12,1.78a39.26,39.26,0,0,1-6.23-.22,13.17,13.17,0,0,0-8.48,1.64c-7,4.35-14.16,3.48-21.15.19-4.93-2.33-10.27-3-15.47-4.2-2.93-.69-5.93.18-8.79,1.17-2.52.88-5.06,1.71-7.58,2.61a23.46,23.46,0,0,1-9.3,1.07,10.34,10.34,0,0,1-4.47-1.33,24.23,24.23,0,0,0-9.48-2.93c-3.84-.39-7.66-1-11.5-1.16A67.81,67.81,0,0,0,20,136.46a70.62,70.62,0,0,1-8.34.54,5.45,5.45,0,0,1-1.21-.11c-.78-.15-1.35-.36-1.35-.93a1.74,1.74,0,0,1,.33-.91,8.14,8.14,0,0,0,1-2.86c1-6.09,3.35-11.89,4.3-18,.12-.81.74-1.25,1.23-1.78,3.46-3.73,6.06-7.87,6.65-13,0-.47.3-1-.28-1.31s-.95.3-1.32.66a36.23,36.23,0,0,0-4.95,6.78,23.49,23.49,0,0,1-6,6.55c-1.26.95-2.4,2.08-3.6,3.13-.63.54-1.32,1.37-2.21.78s0-1.35.24-2a33.3,33.3,0,0,1,1.76-3.85,69.53,69.53,0,0,0,5.51-14.9c1.49-5.38,3.8-10.53,5-16,.67-3,1.19-6,1.83-9,.06-.31.13-.61.22-.92.55-2.15,1.4-4.24,2-6.4.13-.52.27-1,.42-1.54C25.8,45.66,34.87,32.3,46.57,20.44,54.31,12.58,64,9.09,75.28,8.71s20,3.85,27.35,11.58C108,25.91,113,31.69,116.52,38.57c4.55,9,8.22,18.22,9.11,28.29a42.83,42.83,0,0,0,2.16,10.06c1.24,3.56,1.06,7.11,1.65,10.63,1.37,8.09,5.05,15.19,9.78,21.87A37.92,37.92,0,0,1,143.39,116.5ZM78.58,45.14A12,12,0,0,0,78.37,43a2.46,2.46,0,0,0-2.44-1.83A1.82,1.82,0,0,0,74,42.84a10.21,10.21,0,0,0,.08,4.6,2.2,2.2,0,0,0,4.28-.14A19.51,19.51,0,0,0,78.58,45.14Zm-2.3,21c1.48-5.5-2.24-10-8.52-10a7.89,7.89,0,0,0-3.84.76,2.67,2.67,0,0,0-1.41,1.43c-2.08,4.68-4.34,9.28-6.69,13.83a24.71,24.71,0,0,0-1.2,2.35C54,76.13,55.08,77.35,57,77a8,8,0,0,0,1.29-.39,75.51,75.51,0,0,0,16.43-8.45A3.51,3.51,0,0,0,76.28,66.11Zm-13-18.54c.1-.72.13-1.45.21-2.28-.1-.95-.18-2-.36-3.06a1.48,1.48,0,0,0-2.79-.41,8.12,8.12,0,0,0-.63,6.07,1.72,1.72,0,0,0,1.93,1.31A1.69,1.69,0,0,0,63.28,47.57Z"/><path d="M140.38,135.89c1.52,3.12.38,5.4-3.15,6.24a16.27,16.27,0,0,1-5.9.14,16.28,16.28,0,0,0-10.8,1.86c-5.2,3-10.85,3.23-16.61,1.62a36.66,36.66,0,0,1-7.1-2.56,1.22,1.22,0,0,0-1-.15,63.27,63.27,0,0,0,1.37,7.65c1.93,8.63,3.66,17.28,3.18,26.18a16.76,16.76,0,0,1-1.74,7.6c-.88,1.56-2,2.85-4.11,2.7a4.31,4.31,0,0,1-3.83-3.09,35.62,35.62,0,0,1-2.38-10A26.29,26.29,0,0,0,86.9,168a118.91,118.91,0,0,1-6.15-25.44c0-.28-.09-.57-.11-.86-.17-2.21-.2-2.26-2.48-1.56-2.69.85-5.34,1.83-8,2.69-1.17.38-.88,1.19-.75,1.89.52,2.67.94,5.38,1.69,8,2.61,8.92,3.8,18.12,5.86,27.16A15.73,15.73,0,0,1,76,190c-.75,1.63-1.7,3.15-3.86,3.29a4.88,4.88,0,0,1-4.64-2.75c-2.19-3.66-2.89-7.73-3.31-11.85a11,11,0,0,0-2-5.51c-3.23-4.51-5.15-9.65-7.24-14.69a73.12,73.12,0,0,1-3.83-10.25,14.89,14.89,0,0,1-.69-5.17,1.3,1.3,0,0,0-1-1.53,20.5,20.5,0,0,0-5.29-1.31c-3.62-.45-7.24-1-10.87-1.26s-7.18.48-10.76.71-7.06.78-10.63.4a7.27,7.27,0,0,1-3.72-1.12,3.21,3.21,0,0,1-1.49-3.05l2.42.07c0,.57.57.78,1.35.93a5.45,5.45,0,0,0,1.21.11,70.62,70.62,0,0,0,8.34-.54,67.81,67.81,0,0,1,12.71-1.13c3.84.14,7.66.77,11.5,1.16a24.23,24.23,0,0,1,9.48,2.93,10.34,10.34,0,0,0,4.47,1.33,23.46,23.46,0,0,0,9.3-1.07c2.52-.9,5.06-1.73,7.58-2.61,2.86-1,5.86-1.86,8.79-1.17,5.2,1.23,10.54,1.87,15.47,4.2,7,3.29,14.13,4.16,21.15-.19a13.17,13.17,0,0,1,8.48-1.64,39.26,39.26,0,0,0,6.23.22c1.77-.12,1.91-.32,1.12-1.78a31.79,31.79,0,0,1-2.92-8.08c-.34-1.65-.45-3.33-.76-5l3.63-.37a1.43,1.43,0,0,0,.15.54c1,2,1,4.32,1.58,6.45A34.5,34.5,0,0,0,140.38,135.89ZM96.47,173.44h.24c-.09-1.69-.13-3.38-.26-5.07C95.7,159.52,93,151,91.71,142.21a.92.92,0,0,0-.84-.89c-2.3-.36-4.53-1.06-6.78-1.63-.74-.19-1.25-.12-.93.81,2.24,6.45,3,13.23,5.19,19.71,1.77,5.38,3.79,10.72,4.24,16.43a28,28,0,0,0,1.33,5.22c.15.5.18,1.33.91,1.3.56,0,.69-.76.89-1.24a10.32,10.32,0,0,0,.74-3.4C96.51,176.83,96.47,175.13,96.47,173.44Zm-22.89,9.93c.27-3.4-1.17-6.55-1.68-9.85-1.47-9.54-4.35-18.8-6.15-28.27-.1-.52-.06-1.11-.93-1A24.31,24.31,0,0,1,54,143.68c-.66-.22-.83.11-.7.66s.27,1.14.43,1.69a79.56,79.56,0,0,0,4.07,10.32c2.56,5.92,5,11.86,9,17.1a4.73,4.73,0,0,1,.84,2.6A43.21,43.21,0,0,0,69,184.5a16,16,0,0,0,1.6,4.07c.27.46.52,1,1.15,1.06s.77-.67,1-1.14A10.47,10.47,0,0,0,73.58,183.37Z"/><path class="cls-2" d="M96.71,173.44h-.24c0,1.69,0,3.39,0,5.08a10.32,10.32,0,0,1-.74,3.4c-.2.48-.33,1.23-.89,1.24-.73,0-.76-.8-.91-1.3a28,28,0,0,1-1.33-5.22c-.45-5.71-2.47-11-4.24-16.43C86.2,153.73,85.4,147,83.16,140.5c-.32-.93.19-1,.93-.81,2.25.57,4.48,1.27,6.78,1.63a.92.92,0,0,1,.84.89c1.25,8.77,4,17.31,4.74,26.16C96.58,170.06,96.62,171.75,96.71,173.44Z"/><path d="M78.37,43a12,12,0,0,1,.21,2.16,19.51,19.51,0,0,1-.22,2.16,2.2,2.2,0,0,1-4.28.14,10.21,10.21,0,0,1-.08-4.6,1.82,1.82,0,0,1,1.93-1.69A2.46,2.46,0,0,1,78.37,43Z"/><path d="M67.76,56.07c6.28,0,10,4.54,8.52,10a3.51,3.51,0,0,1-1.6,2,75.51,75.51,0,0,1-16.43,8.45A8,8,0,0,1,57,77c-1.88.35-3-.87-2.34-2.56a24.71,24.71,0,0,1,1.2-2.35c2.35-4.55,4.61-9.15,6.69-13.83a2.67,2.67,0,0,1,1.41-1.43A7.89,7.89,0,0,1,67.76,56.07Zm5.34,8.79a4.48,4.48,0,0,0-3.76-5.51c-2.6-.36-3.53,0-4.3,1.64-.9,1.89-1.81,3.78-2.71,5.69s-1.74,3.65-2.65,5.59a3.48,3.48,0,0,0,.63,0,86.84,86.84,0,0,0,12.15-6.6A1.39,1.39,0,0,0,73.1,64.86Z"/><path class="cls-2" d="M71.9,173.52c.51,3.3,1.95,6.45,1.68,9.85a10.47,10.47,0,0,1-.85,5.12c-.22.47-.32,1.14-1,1.14s-.88-.6-1.15-1.06A16,16,0,0,1,69,184.5a43.21,43.21,0,0,1-1.39-8.45,4.73,4.73,0,0,0-.84-2.6c-4-5.24-6.41-11.18-9-17.1A79.56,79.56,0,0,1,53.72,146c-.16-.55-.3-1.11-.43-1.69s0-.88.7-.66a24.31,24.31,0,0,0,10.83.57c.87-.11.83.48.93,1C67.55,154.72,70.43,164,71.9,173.52Z"/><path class="cls-2" d="M69.34,59.35a4.48,4.48,0,0,1,3.76,5.51,1.39,1.39,0,0,1-.64.77,86.84,86.84,0,0,1-12.15,6.6,3.48,3.48,0,0,1-.63,0c.91-1.94,1.78-3.77,2.65-5.59S64.14,62.88,65,61C65.81,59.36,66.74,59,69.34,59.35Z"/><path d="M63.49,45.29c-.08.83-.11,1.56-.21,2.28a1.69,1.69,0,0,1-1.64,1.63,1.72,1.72,0,0,1-1.93-1.31,8.12,8.12,0,0,1,.63-6.07,1.48,1.48,0,0,1,2.79.41C63.31,43.28,63.39,44.34,63.49,45.29Z"/><path d="M22.39,98.16c.58.29.33.84.28,1.31-.59,5.09-3.19,9.23-6.65,13-.49.53-1.11,1-1.23,1.78-.95,6.09-3.27,11.89-4.3,18a8.14,8.14,0,0,1-1,2.86,1.74,1.74,0,0,0-.33.91l-2.42-.07a.85.85,0,0,1,0-.16,72.68,72.68,0,0,1,3.39-16.36,4.38,4.38,0,0,0,.39-2,4.31,4.31,0,0,0-1.68,1.21A5.89,5.89,0,0,1,4.49,120c-3.39-.22-5.06-2.27-4.31-5.42A30.83,30.83,0,0,1,3,107.87a41.77,41.77,0,0,0,3.38-8.24c2.05-7.86,5.52-15.27,7.73-23.09.72-2.55,1.33-5.12,1.94-7.7l2.88.61c-.09.31-.16.61-.22.92-.64,3-1.16,6-1.83,9-1.21,5.47-3.52,10.62-5,16a69.53,69.53,0,0,1-5.51,14.9,33.3,33.3,0,0,0-1.76,3.85c-.25.62-1,1.42-.24,2s1.58-.24,2.21-.78c1.2-1,2.34-2.18,3.6-3.13a23.49,23.49,0,0,0,6-6.55,36.23,36.23,0,0,1,4.95-6.78C21.44,98.46,21.69,97.8,22.39,98.16Z"/><path d="M21.32,61.51c-.15.5-.29,1-.42,1.54-.57,2.16-1.42,4.25-2,6.4l-2.88-.61c.64-2.73,1.27-5.45,2-8.16Z"/><ellipse class="cls-3" cx="80.58" cy="204.51" rx="39.27" ry="3.19"/></g></g></svg>