<svg xmlns="http://www.w3.org/2000/svg" viewBox="0 0 159.21 57.54"><defs><style>.cls-1,.cls-2{fill:#fff;}.cls-2{font-size:5.74px;font-family:NotoSansCJKjp-Black-83pv-RKSJ-H, Noto Sans CJK JP;letter-spacing:0.02em;}.cls-3{letter-spacing:-0.08em;}.cls-4{letter-spacing:0.02em;}</style></defs><g id="レイヤー_2" data-name="レイヤー 2"><g id="レイヤー_1-2" data-name="レイヤー 1"><path class="cls-1" d="M81.55,25.06h0A9.26,9.26,0,0,0,80,24.34l-1.34-.48L77.8,25a20.34,20.34,0,0,1-4.59,4.46,6.82,6.82,0,0,1-3.59,1.2,1.21,1.21,0,0,1-.72-.15,1.53,1.53,0,0,1-.13-.78,7.33,7.33,0,0,1,.33-2.06A21,21,0,0,1,70,25.21c.34-.79.68-1.49,1-2.09A7.78,7.78,0,0,1,71.65,22l1.26-1.63-1.67-1.21a7,7,0,0,0-1.92-.94c-1.85-.61-3.26-.5-4.24.25a4.3,4.3,0,0,0-1.22,1.67c-.27.61-.55,1.35-.86,2.28s-.58,1.86-.85,2.88l0,.13a21.26,21.26,0,0,1-1.62,1.79,14.84,14.84,0,0,1-2.29,1.85,13.66,13.66,0,0,1-2.45,1.28,5.83,5.83,0,0,1-2.11.42,1.8,1.8,0,0,1-1.22-.38,4,4,0,0,1-1-1.64,14.42,14.42,0,0,1-.76-3.41,42.05,42.05,0,0,1-.26-4.88,2.93,2.93,0,0,0-.86-2,5.27,5.27,0,0,0-1.2-1A8.07,8.07,0,0,0,47,16.85a4.55,4.55,0,0,0-1.54-.3A3.45,3.45,0,0,0,43,18c-.48.57-1,1.29-1.68,2.16S40,22,39.33,23s-1.24,1.76-1.86,2.61c0-.95.06-1.83.09-2.63s0-1.48,0-1.86a3.66,3.66,0,0,0-.57-2,3.07,3.07,0,0,0-2.78-1.29,8.19,8.19,0,0,0-1.37.12l-.61.11c0-.62.06-1.24.06-1.88A50.76,50.76,0,0,0,32,10.48a33.8,33.8,0,0,0-.87-4.8h0a13.07,13.07,0,0,0-1.48-3.63A3.85,3.85,0,0,0,26.4,0a5.67,5.67,0,0,0-2.75.82,8.47,8.47,0,0,0-2.26,1.79l-.9,1,.61,1.21,1,2a18.38,18.38,0,0,1,1,2.72A32.94,32.94,0,0,1,24,13.54a31.13,31.13,0,0,1,.38,5.24,20.54,20.54,0,0,1-.77,5.79,15,15,0,0,1-2.05,4.37,9.13,9.13,0,0,1-2.88,2.65,6.71,6.71,0,0,1-3.39.89,6.21,6.21,0,0,1-3.2-.76A5.88,5.88,0,0,1,10,29.46a13.17,13.17,0,0,1-1.37-4.13,34.23,34.23,0,0,1-.47-6c0-.92,0-1.76.08-2.49s.13-1.34.2-1.79c0-.23.09-.45.13-.66a4.57,4.57,0,0,0,1.2-1,4.7,4.7,0,0,0,.92-3.13A8.26,8.26,0,0,0,9.47,5.61,4.23,4.23,0,0,0,5.92,3.47,3.82,3.82,0,0,0,3,5,9.48,9.48,0,0,0,1.34,8.16a24.48,24.48,0,0,0-1,4.61A47.86,47.86,0,0,0,0,19.05,41.08,41.08,0,0,0,.84,28a18,18,0,0,0,2.68,6.45,11.34,11.34,0,0,0,4.77,3.92,15.42,15.42,0,0,0,6.21,1.18,15.79,15.79,0,0,0,13.41-6.92,22.51,22.51,0,0,0,2.15-4v.1c.05,1.16.07,2.26.07,3.29a7.29,7.29,0,0,0,.58,3.42c.41.77,1.34,1.69,3.45,1.69a6.51,6.51,0,0,0,2.63-.58A6.41,6.41,0,0,0,39.44,34c1.05-1.58,2.14-3.23,3.28-4.92l.33-.48q.11.59.24,1.14a12.59,12.59,0,0,0,1.9,4.48,7.73,7.73,0,0,0,3.3,2.71,10.79,10.79,0,0,0,4.21.77,12.31,12.31,0,0,0,4.14-.72,20,20,0,0,0,3.7-1.79c.41-.25.81-.52,1.21-.8a5.27,5.27,0,0,0,.83,1.34,5.43,5.43,0,0,0,2.15,1.49,7.77,7.77,0,0,0,2.85.48A13.62,13.62,0,0,0,71.76,37a19.33,19.33,0,0,0,3.78-1.69,23.45,23.45,0,0,0,3.37-2.39,32.34,32.34,0,0,0,2.86-2.71l.64-.8A2.88,2.88,0,0,0,83,27.58,2.92,2.92,0,0,0,81.55,25.06Z"/><path class="cls-1" d="M67.81,15.46a5.15,5.15,0,0,0,2.52-.63A7,7,0,0,0,72,13.5a6.51,6.51,0,0,0,1.1-1.65,4.4,4.4,0,0,0,.41-1.78c0-2.22-1.56-3.66-4-3.66a5.18,5.18,0,0,0-2.09.43A5.55,5.55,0,0,0,65.78,8,5.2,5.2,0,0,0,64.6,9.6a4.84,4.84,0,0,0-.46,2.1,3.77,3.77,0,0,0,1,2.66A3.59,3.59,0,0,0,67.81,15.46Z"/><path class="cls-1" d="M151.57,15.32a5.15,5.15,0,0,0,2.52-.63,6.44,6.44,0,0,0,1.71-1.33,6.1,6.1,0,0,0,1.1-1.65,4.41,4.41,0,0,0,.42-1.77c0-2.23-1.57-3.67-4-3.67a5.35,5.35,0,0,0-2.09.43,5.74,5.74,0,0,0-1.7,1.11,5.32,5.32,0,0,0-1.18,1.65,5.06,5.06,0,0,0-.46,2.1,3.76,3.76,0,0,0,1,2.67A3.54,3.54,0,0,0,151.57,15.32Z"/><path class="cls-1" d="M158.14,30.64h0a5.18,5.18,0,0,0-1.69-1l-1.08-.39-.88.74a10.33,10.33,0,0,1-2,1.43,3.1,3.1,0,0,1-1.37.32.45.45,0,0,1-.15-.11,2.78,2.78,0,0,1-.18-1.28,9.27,9.27,0,0,1,.3-2.16,21,21,0,0,1,.81-2.58c.32-.85.65-1.62,1-2.29a7.7,7.7,0,0,1,.61-1.13l1.27-1.63L153,19.37a13.54,13.54,0,0,0-1.46-.9,4.09,4.09,0,0,0-4.43,0,4.21,4.21,0,0,0-1.22,1.67,22.78,22.78,0,0,0-.87,2.38c-.29.93-.57,1.95-.83,3-.11.47-.21.95-.3,1.43l-.23.24a15.86,15.86,0,0,1-2.29,1.85,14,14,0,0,1-2.45,1.28,5.92,5.92,0,0,1-2.12.42,1.76,1.76,0,0,1-1.21-.38,4.08,4.08,0,0,1-1.05-1.64,14.94,14.94,0,0,1-.76-3.41,42.05,42.05,0,0,1-.26-4.88,2.91,2.91,0,0,0-.85-2,5.5,5.5,0,0,0-1.2-1,8.51,8.51,0,0,0-1.29-.62,4.55,4.55,0,0,0-1.54-.3A3.45,3.45,0,0,0,126.15,18q-.74.86-1.68,2.16c-.61.83-1.26,1.75-2,2.76s-1.24,1.76-1.86,2.61c0-.95,0-1.83.08-2.63s0-1.48,0-1.86a3.66,3.66,0,0,0-.57-2,3.08,3.08,0,0,0-2.78-1.29,8.19,8.19,0,0,0-1.37.12l-.61.11c0-.62,0-1.24,0-1.88a50.82,50.82,0,0,0-.3-5.64,33.8,33.8,0,0,0-.87-4.8h0a12.77,12.77,0,0,0-1.49-3.63,3.83,3.83,0,0,0-3.26-2,5.61,5.61,0,0,0-2.75.82,8.17,8.17,0,0,0-2.26,1.79l-.9,1,.6,1.21c.27.54.61,1.22,1,2a18.46,18.46,0,0,1,1,2.72,31,31,0,0,1,.89,3.95,32.22,32.22,0,0,1,.38,5.24,20.17,20.17,0,0,1-.78,5.79,14.5,14.5,0,0,1-2,4.37,9.13,9.13,0,0,1-2.88,2.65,6.68,6.68,0,0,1-3.39.89,6.17,6.17,0,0,1-3.19-.76,5.8,5.8,0,0,1-2.12-2.26,12.92,12.92,0,0,1-1.38-4.13,34.3,34.3,0,0,1-.46-6c0-.92,0-1.76.08-2.49a17.53,17.53,0,0,1,.2-1.79c0-.23.08-.45.13-.66a4.57,4.57,0,0,0,1.2-1,4.75,4.75,0,0,0,.91-3.13,8.26,8.26,0,0,0-1.2-4.69A4.23,4.23,0,0,0,89.1,3.47,3.81,3.81,0,0,0,86.17,5a9.14,9.14,0,0,0-1.65,3.18,25.22,25.22,0,0,0-1,4.61,49.83,49.83,0,0,0-.35,6.28A41.77,41.77,0,0,0,84,28a18.15,18.15,0,0,0,2.69,6.45,11.31,11.31,0,0,0,4.76,3.92,15.46,15.46,0,0,0,6.21,1.18,15.79,15.79,0,0,0,13.42-6.92,22.51,22.51,0,0,0,2.15-4v.1c0,1.16.07,2.26.07,3.29a7.31,7.31,0,0,0,.57,3.42c.41.77,1.35,1.69,3.46,1.69a6.46,6.46,0,0,0,2.62-.58A6.3,6.3,0,0,0,122.61,34c1-1.58,2.15-3.23,3.29-4.92l.33-.48c.07.39.15.77.23,1.14a13,13,0,0,0,1.9,4.48,7.76,7.76,0,0,0,3.31,2.71,10.76,10.76,0,0,0,4.21.77,12.36,12.36,0,0,0,4.14-.72,20,20,0,0,0,3.7-1.79l0,0a7,7,0,0,0,.64,1.35,4.84,4.84,0,0,0,4.39,2.31,13.07,13.07,0,0,0,4.27-.72,23.37,23.37,0,0,0,3.61-1.57,4.32,4.32,0,0,0,2.09-1.78,3.58,3.58,0,0,0,.46-1.72A3.13,3.13,0,0,0,158.14,30.64Z"/><text class="cls-2" transform="translate(41.47 51.54)">powered by <tspan class="cls-3" x="36.99" y="0">W</tspan><tspan class="cls-4" x="41.89" y="0">ellstech inc</tspan></text></g></g></svg>