<svg xmlns="http://www.w3.org/2000/svg" width="89.26" height="19.962" viewBox="0 0 89.26 19.962">
  <g id="グループ_171" data-name="グループ 171" transform="translate(-0.001 0)">
    <path id="パス_117" data-name="パス 117" d="M763.875,945.852a3.583,3.583,0,0,0-2.523-2.523c-2.212-.6-11.115-.6-11.115-.6s-8.9.018-11.115.622a3.583,3.583,0,0,0-2.523,2.523c-.669,3.93-.929,9.919.018,13.692a3.583,3.583,0,0,0,2.523,2.523c2.212.6,11.115.6,11.115.6s8.9,0,11.114-.6a3.583,3.583,0,0,0,2.523-2.523C764.6,955.626,764.817,949.641,763.875,945.852ZM747.4,956.985v-8.555l7.385,4.277Z" transform="translate(-736 -942.726)" fill="#fff"/>
    <path id="パス_119" data-name="パス 119" d="M917.22,967.252a3.1,3.1,0,0,1-1.207-1.773,11.655,11.655,0,0,1-.347-3.2v-1.81a10.427,10.427,0,0,1,.4-3.236,3.153,3.153,0,0,1,1.28-1.773,4.2,4.2,0,0,1,2.267-.567,3.817,3.817,0,0,1,2.212.567,3.306,3.306,0,0,1,1.225,1.773,10.957,10.957,0,0,1,.384,3.217v1.81a10.823,10.823,0,0,1-.384,3.2,3.212,3.212,0,0,1-1.225,1.773,4.183,4.183,0,0,1-2.285.567A4.082,4.082,0,0,1,917.22,967.252Zm3.162-1.956a5.837,5.837,0,0,0,.238-1.993V959.41a5.665,5.665,0,0,0-.238-1.956.843.843,0,0,0-.823-.622.823.823,0,0,0-.8.622,5.735,5.735,0,0,0-.238,1.956V963.3a6.464,6.464,0,0,0,.219,1.993.818.818,0,0,0,.823.6A.848.848,0,0,0,920.382,965.3Zm40.071-2.98v.64l.073,1.81a1.818,1.818,0,0,0,.292.877.844.844,0,0,0,.695.274.853.853,0,0,0,.859-.494,4.214,4.214,0,0,0,.256-1.627l2.431.146a3.019,3.019,0,0,1,.018.439,3.262,3.262,0,0,1-.951,2.578,3.87,3.87,0,0,1-2.669.859,3.182,3.182,0,0,1-2.907-1.3,7.666,7.666,0,0,1-.841-4.022v-2.212c.062-3.108.609-5.383,3.821-5.393a3.911,3.911,0,0,1,2.212.53,2.87,2.87,0,0,1,1.1,1.645,11.537,11.537,0,0,1,.311,3.089V962.3h-4.7Zm.366-5.265a1.74,1.74,0,0,0-.292.859c-.055.4-.073,1.828-.073,1.828v.9H962.5v-.9c0,.9-.018-1.408-.073-1.828a1.684,1.684,0,0,0-.292-.878.84.84,0,0,0-.658-.256A.853.853,0,0,0,960.819,957.052Zm-50.436,5.027-3.2-11.553h2.8s1.307,5.795,1.755,8.519h.073c.508-2.892,1.792-8.519,1.792-8.519h2.8l-3.236,11.535V967.6H910.4v-5.521Z" transform="translate(-875.891 -949.1)" fill="#fff"/>
    <path id="A" d="M1011.77,975.726v12.486h-2.194l-.238-1.536h-.055a2.9,2.9,0,0,1-2.687,1.737c-2.152-.005-2.391-1.828-2.413-3.364v-9.323H1007v9.158a2.718,2.718,0,0,0,.183,1.188c.26.508.932.378,1.3.128a1.465,1.465,0,0,0,.494-.567v-9.908Z" transform="translate(-955.158 -969.693)" fill="#fff"/>
    <path id="パス_120" data-name="パス 120" d="M1050.22,949.932h-2.8v14.825h-2.742V949.932h-2.8v-2.267h8.318v2.267Zm16.068,4.332a3.221,3.221,0,0,0-.823-1.718,2.238,2.238,0,0,0-1.572-.53,2.577,2.577,0,0,0-1.444.439,3.01,3.01,0,0,0-1.042,1.152h-.018v-6.581h-2.705V964.74h2.322l.292-1.188h.055a2.561,2.561,0,0,0,.969,1.005,2.971,2.971,0,0,0,1.444.366,2.228,2.228,0,0,0,2.1-1.316,9.586,9.586,0,0,0,.676-4.095v-1.974a16.743,16.743,0,0,0-.256-3.272Zm-2.577,5.1a16.033,16.033,0,0,1-.11,2.139,2.233,2.233,0,0,1-.384,1.1.884.884,0,0,1-.713.329,1.233,1.233,0,0,1-1.115-.658v-7.093a1.7,1.7,0,0,1,.494-.841.9.9,0,0,1,1.408,0,2.616,2.616,0,0,1,.329,1.133c.055.53.092,1.28.092,2.267Z" transform="translate(-985.967 -946.24)" fill="#fff"/>
    <path id="A-2" d="M1090.67,975.726v12.486h-2.194l-.238-1.536h-.055a2.9,2.9,0,0,1-2.687,1.737c-2.152-.005-2.391-1.828-2.413-3.364v-9.323h2.815v9.158a2.718,2.718,0,0,0,.183,1.188c.26.508.932.378,1.3.128a1.467,1.467,0,0,0,.494-.567v-9.908Z" transform="translate(-1019.635 -969.693)" fill="#fff"/>
  </g>
</svg>
