<svg id="logo_color_black" data-name="logo color black" xmlns="http://www.w3.org/2000/svg" width="65.358" height="19.283" viewBox="0 0 65.358 19.283">
  <g id="logotype" transform="translate(23.711 2.023)">
    <path id="y" d="M92.108,8.813a.229.229,0,0,0-.113-.3.225.225,0,0,0-.094-.02H90.191a.457.457,0,0,0-.414.265L87.83,12.978a.058.058,0,0,1-.107,0L85.8,8.754a.456.456,0,0,0-.416-.268H83.608a.229.229,0,0,0-.228.229.222.222,0,0,0,.02.094l3.114,6.839a.227.227,0,0,1,0,.19l-1.846,4.006a.228.228,0,0,0,.2.324h1.705a.455.455,0,0,0,.415-.265Z" transform="translate(-50.481 -4.747)" fill="#ff7c32"/>
    <path id="c" d="M76.587,13.45a.452.452,0,0,0-.555.136,2.173,2.173,0,0,1-1.765.877,2.089,2.089,0,0,1-2.149-2.028v-.043a2.088,2.088,0,0,1,2.1-2.072h.045a2.171,2.171,0,0,1,1.755.862.453.453,0,0,0,.553.136L77.92,10.7a.229.229,0,0,0,.112-.3l-.009-.018a4.3,4.3,0,0,0-3.756-2.108,4.16,4.16,0,0,0-4.276,4.039c0,.029,0,.058,0,.087a4.159,4.159,0,0,0,4.19,4.127h.087a4.3,4.3,0,0,0,3.767-2.128.23.23,0,0,0-.089-.312l-.015-.007Z" transform="translate(-46.182 -4.676)" fill="#ff7c32"/>
    <g id="i" transform="translate(19.6)">
      <rect id="line" width="2.287" height="7.959" rx="0.504" transform="translate(0.156 3.742)" fill="#ff7c32"/>
      <circle id="dot" cx="1.299" cy="1.299" r="1.299" fill="#ff7c32"/>
    </g>
    <path id="o" d="M53.1,8.261a4.16,4.16,0,0,0-4.28,4.036c0,.03,0,.06,0,.09a4.159,4.159,0,0,0,4.192,4.127h.09a4.159,4.159,0,0,0,4.279-4.036c0-.03,0-.06,0-.09a4.159,4.159,0,0,0-4.19-4.127Zm0,6.2a2.089,2.089,0,0,1-2.149-2.028v-.043a2.088,2.088,0,0,1,2.1-2.072H53.1a2.088,2.088,0,0,1,2.148,2.025v.046a2.088,2.088,0,0,1-2.1,2.072Z" transform="translate(-39.385 -4.674)" fill="#ff7c32"/>
    <path id="v" d="M43.447,8.491H41.739a.458.458,0,0,0-.415.265l-1.949,4.226a.058.058,0,0,1-.107,0L37.344,8.759a.457.457,0,0,0-.416-.268H35.153a.229.229,0,0,0-.229.227.231.231,0,0,0,.021.1L38.3,16.182a.456.456,0,0,0,.416.268h1.126a.458.458,0,0,0,.415-.265l3.4-7.369a.228.228,0,0,0-.111-.3A.232.232,0,0,0,43.447,8.491Z" transform="translate(-34.924 -4.749)" fill="#ff7c32"/>
  </g>
  <g id="symbol">
    <path id="symbol-2" d="M18.374.024c-2.178.725-6.235,3.438-8.447,10.2C7.715,3.462,3.659.749,1.481.024A.454.454,0,0,0,.923.26C.327,1.536-1.356,6.223,2.2,12.828a14.973,14.973,0,0,0,7.385,6.387.936.936,0,0,0,.694,0,14.944,14.944,0,0,0,7.386-6.387C21.212,6.223,19.528,1.536,18.932.26A.456.456,0,0,0,18.374.024Zm-9.6,16.231a11.973,11.973,0,0,1-4.549-4.516A13.939,13.939,0,0,1,2.341,3.95c.026-.307.068-.591.111-.853A10.55,10.55,0,0,1,3.8,4.219,16.315,16.315,0,0,1,7.744,10.94v.014A15.621,15.621,0,0,1,8.772,16.254Zm6.862-4.516a11.969,11.969,0,0,1-4.549,4.516,15.638,15.638,0,0,1,1.025-5.3V10.94a16.316,16.316,0,0,1,3.944-6.721A10.591,10.591,0,0,1,17.4,3.1c.046.262.085.547.111.853A13.931,13.931,0,0,1,15.634,11.738Z" transform="translate(0 0.001)" fill="#ff7c32"/>
  </g>
</svg>
