<svg xmlns="http://www.w3.org/2000/svg" xmlns:xlink="http://www.w3.org/1999/xlink" width="305" height="64"><defs><linearGradient id="a" x1=".906" y1=".269" x2=".067" y2=".762" gradientUnits="objectBoundingBox"><stop offset="0" stop-color="#b6d5ed"/><stop offset=".158" stop-color="#accee8"/><stop offset=".421" stop-color="#93bcdc"/><stop offset=".569" stop-color="#82b1d4"/><stop offset=".865" stop-color="#003875"/><stop offset=".996" stop-color="#003875"/></linearGradient><linearGradient id="b" x1=".924" y1=".258" x2=".067" y2=".761" xlink:href="#a"/></defs><g data-name="グループ 71"><path data-name="長方形 58" fill="#fff" d="M0 0h305v64H0z"/><g data-name="グループ 32"><g data-name="グループ 11"><g data-name="グループ 1" opacity=".1"><path data-name="パス 1" d="M52.921 34.362c.357 8.085-4.554 13.085-12.176 13.455-8.829.428-14.665-5.614-15.006-12.634-.349-7.2 4.953-13.638 13.321-14.043a16.079 16.079 0 0 1 11.9 4.362l-1.861 1.938a14.083 14.083 0 0 0-9.851-3.822c-6.1.3-11.154 5.232-10.856 11.365.284 5.85 5.464 10.823 12.307 10.491 4.822-.234 9.008-3.316 9.468-8.491l-8.119.394-.121-2.482z" fill="#003875" stroke="#003875" stroke-miterlimit="10" stroke-width="3.197"/></g><g data-name="グループ 2"><path data-name="パス 2" d="M-252.372 480.827c1.151 4.928-1.738 9.128-6.132 10.936-6.336 2.606-12.884-.342-15.112-5.759-2.336-5.678.772-12.024 6.418-14.347a14.084 14.084 0 0 1 10.562.3l1.1-2.449a16.081 16.081 0 0 0-12.677-.12c-7.747 3.188-10.584 11.033-7.842 17.7 2.674 6.5 10.2 10.236 18.372 6.873 6.216-2.558 9.246-7.795 7.8-14.131z" transform="translate(297.79 -450.76)" fill="url(#a)"/><path data-name="パス 3" d="M34.009 43.643a12.524 12.524 0 0 1-7.043-2.117 12.248 12.248 0 0 1-4.476-5.513 12.354 12.354 0 0 1-.014-9.53 12.467 12.467 0 0 1 2.794-4.106 14.322 14.322 0 0 1 4.62-3 14.8 14.8 0 0 1 5.715-1.184 16.882 16.882 0 0 1 5.554 1.016l-.431.957a16.287 16.287 0 0 0-5.451-.969 13.06 13.06 0 0 0-4.994.949 12.611 12.611 0 0 0-3.968 2.589 12.333 12.333 0 0 0-2.663 3.737 11.256 11.256 0 0 0-.229 9.08 11.453 11.453 0 0 0 4.382 5.25 12.278 12.278 0 0 0 6.718 1.973 13.282 13.282 0 0 0 5.072-1.023 11.51 11.51 0 0 0 5.534-4.633 9.542 9.542 0 0 0 1.217-6.552l.953-.383a11.793 11.793 0 0 1 .071 3.3 10.017 10.017 0 0 1-1.194 3.666 12.555 12.555 0 0 1-6.374 5.294 15.2 15.2 0 0 1-5.793 1.199z" fill="#fff" stroke="#fff" stroke-miterlimit="10" stroke-width=".08"/><path data-name="パス 4" d="M-265.1 495.118a14.708 14.708 0 0 1-5.606-1.089 14.145 14.145 0 0 1-4.675-3.113 14.3 14.3 0 0 1-3.114-4.686 14.606 14.606 0 0 1-1.113-5.592 14.2 14.2 0 0 1 1.1-5.493 14.49 14.49 0 0 1 3.246-4.772 16.343 16.343 0 0 1 5.269-3.43 16.719 16.719 0 0 1 6.809-1.333 19.764 19.764 0 0 1 6.77 1.444l1.2.464-2.112 4.689-1.085-.437a14.651 14.651 0 0 0-5.109-1.095 11.125 11.125 0 0 0-4.536.793 10.592 10.592 0 0 0-3.331 2.174 10.317 10.317 0 0 0-2.228 3.124 9.247 9.247 0 0 0-.2 7.459 9.291 9.291 0 0 0 2.133 3.141 9.852 9.852 0 0 0 3.211 2.08 10.358 10.358 0 0 0 3.872.743 11.323 11.323 0 0 0 4.306-.868 9.474 9.474 0 0 0 4.562-3.795 7.614 7.614 0 0 0 .847-5.737l-.238-1.017 4.785-1.925.318 1.392a12.947 12.947 0 0 1-1.149 9.348 14.549 14.549 0 0 1-7.373 6.181 17.285 17.285 0 0 1-6.393 1.35z" transform="translate(299.106 -449.445)" fill="url(#b)"/><path data-name="パス 5" d="M34.008 44.861a13.9 13.9 0 0 1-5.3-1.028 13.327 13.327 0 0 1-4.408-2.935 13.485 13.485 0 0 1-2.938-4.421 13.784 13.784 0 0 1-1.051-5.283 13.386 13.386 0 0 1 1.04-5.18 13.68 13.68 0 0 1 3.065-4.505 15.535 15.535 0 0 1 5.009-3.259 15.986 15.986 0 0 1 6.174-1.276h.309a18.96 18.96 0 0 1 6.494 1.39l.4.154-1.44 3.2-.362-.146a15.444 15.444 0 0 0-5.392-1.153h-.341a11.828 11.828 0 0 0-4.523.858 11.4 11.4 0 0 0-3.586 2.34 11.119 11.119 0 0 0-2.4 3.369 10.05 10.05 0 0 0-.209 8.107 10.1 10.1 0 0 0 2.318 3.415 10.659 10.659 0 0 0 3.474 2.251 11.142 11.142 0 0 0 4.175.8 12.08 12.08 0 0 0 4.615-.93 10.289 10.289 0 0 0 4.951-4.13 8.412 8.412 0 0 0 .94-6.338l-.079-.339 3.256-1.31.106.464a12.149 12.149 0 0 1-1.066 8.771 13.75 13.75 0 0 1-6.973 5.826 16.461 16.461 0 0 1-6.093 1.289z" fill="none" stroke="#fff" stroke-miterlimit="10" stroke-width=".16"/></g><path data-name="パス 6" d="M36.246 31.08a.156.156 0 0 1-.156-.156.156.156 0 0 1 .156-.156.156.156 0 0 1 .156.156.156.156 0 0 1-.156.156z" fill="#003875" stroke="#fff" stroke-miterlimit="10" stroke-width=".16"/><path data-name="パス 7" d="M43.676 47.514a146.425 146.425 0 0 1 59.165-.906" fill="none" stroke="#82b1d4" stroke-linecap="round" stroke-linejoin="round" stroke-width="3.197"/><g data-name="グループ 4"><g data-name="グループ 3" fill="#000a29"><path data-name="パス 8" d="M59.877 39.176a2.658 2.658 0 0 1-.352.891 2.091 2.091 0 0 0-.306-.23 1.952 1.952 0 0 0 .282-.741zm1.128-1.381h-1.692v-.376h.637l-.376-.389h.421v.393h.634zm-.627 1.173v.891c0 .174-.032.278-.15.341a.979.979 0 0 1-.463.066 1.448 1.448 0 0 0-.122-.373h.282c.038 0 .055-.01.055-.049v-.88h-.508v-.978h1.385v.978zm-.529-.341h.609v-.3h-.609zm2.308 1.222a.081.081 0 0 0 .059-.021.145.145 0 0 0 .032-.08 3.7 3.7 0 0 0 .01-.393.871.871 0 0 0 .3.163 2.747 2.747 0 0 1-.046.477.3.3 0 0 1-.118.188.37.37 0 0 1-.212.059h-.2a.348.348 0 0 1-.251-.09c-.063-.062-.08-.129-.08-.352v-.689a2.362 2.362 0 0 1-.633 1.173 1.814 1.814 0 0 0-.352-.244 1.742 1.742 0 0 0 .313-.376l-.324.122a3.3 3.3 0 0 0-.205-.609l.324-.112a3.129 3.129 0 0 1 .219.578 2.91 2.91 0 0 0 .373-1.364h-.383v-.393h.393l.103-.856h.4v.86h.738v.393h-.745l-.01.146h.271v1.347a.082.082 0 0 0 .014.052.068.068 0 0 0 .056.024zm0-2.029a1.949 1.949 0 0 0-.334-.574l.32-.146a1.786 1.786 0 0 1 .358.553z"/><path data-name="パス 9" d="M65.808 38.653s0 .115-.01.167c-.038.825-.087 1.169-.206 1.3a.439.439 0 0 1-.327.15 4.411 4.411 0 0 1-.546.007.908.908 0 0 0-.146-.407c.205.014.421.018.512.018a.2.2 0 0 0 .146-.038c.066-.062.108-.3.139-.807h-.752c-.122.605-.446 1.013-1.375 1.239a1.445 1.445 0 0 0-.24-.383c.762-.16 1.044-.435 1.159-.856h-.853v-.387h.916c.014-.139.017-.289.024-.452h.452c-.007.16-.013.31-.027.452zm.275-.919v.808h-.418v-.425h-2.168v.425h-.4v-.808h.494a2.281 2.281 0 0 0-.31-.487l.359-.167a2.1 2.1 0 0 1 .359.54l-.247.114h1.423l-.076-.027a3.592 3.592 0 0 0 .39-.665l.463.139a6.519 6.519 0 0 1-.411.553zm-1.643-.007a2.178 2.178 0 0 0-.251-.578l.369-.122a2.088 2.088 0 0 1 .278.567z"/><path data-name="パス 10" d="M67.082 39.113a2.946 2.946 0 0 1-.205.894 1.828 1.828 0 0 0-.289-.139 2.536 2.536 0 0 0 .178-.807zm2.819 1.006h-1.563v.146h-.386v-1.357l-.261.115a2.544 2.544 0 0 0-.045-.2l-.177.014v1.437h-.348l-.316-1.408-.46.035-.041-.358c.083 0 .174-.011.275-.014.045-.063.094-.132.139-.2a2.956 2.956 0 0 0-.4-.5l.2-.268c.028.024.056.052.084.08a4.38 4.38 0 0 0 .251-.606l.352.122c-.125.24-.268.515-.39.71a1.742 1.742 0 0 1 .112.143c.115-.2.219-.4.3-.567l.327.15c-.129.213-.278.446-.432.665l.272-.112a3.641 3.641 0 0 1 .251.633v-1.615h.386v2.012a2.235 2.235 0 0 0 .488-.7h-.418v-.369h.518v-1.009h.359v1.009h.546v.369h-.546v.052c.15.128.508.49.592.581l-.244.32a5.533 5.533 0 0 0-.348-.48v.749h-.359v-.731a2.194 2.194 0 0 1-.425.6 2.008 2.008 0 0 0-.163-.369v.546h1.563zm-2.367-1.629a2.112 2.112 0 0 0-.1-.24c-.062.09-.122.177-.185.257zm.223.557a2.5 2.5 0 0 1 .178.627l-.289.094a2.74 2.74 0 0 0-.16-.641zm.832-.985a3.052 3.052 0 0 0-.2-.672l.292-.1a2.772 2.772 0 0 1 .219.661zm1.264-.693c-.1.244-.205.522-.292.7l-.275-.1a4.491 4.491 0 0 0 .213-.714z"/><path data-name="パス 11" d="M70.784 39.117a3.224 3.224 0 0 1-.205.9 1.748 1.748 0 0 0-.3-.147 2.537 2.537 0 0 0 .177-.807zm.4-.282v1.441h-.355v-1.413l-.484.038-.042-.358.251-.014c.052-.063.1-.132.157-.205a3.226 3.226 0 0 0-.4-.488l.2-.278c.024.025.052.049.08.073a4.265 4.265 0 0 0 .251-.6l.359.125a7.89 7.89 0 0 1-.393.71 1.687 1.687 0 0 1 .111.136 5.619 5.619 0 0 0 .314-.564l.338.157c-.191.292-.428.637-.647.915l.3-.017a3.86 3.86 0 0 0-.111-.223l.292-.122a3.562 3.562 0 0 1 .24.512l-.328-.33h1.911v.689h-.362v-.369h-1.2v.369h-.345v-.1l-.24.112c-.011-.059-.031-.129-.052-.205zm.32.212a2.53 2.53 0 0 1 .177.613l-.306.1a2.743 2.743 0 0 0-.16-.627zm.564-.223h.372v.278a1.212 1.212 0 0 1-.741 1.177 1.91 1.91 0 0 0-.282-.275.962.962 0 0 0 .651-.908zm.313-1.19h-.72v-.338h.72l-.444-.266h.411v.271h.735v.338h-.735v.2h.634v.334h-1.64v-.334h.6zm.853 2.259c.049 0 .066-.056.073-.431a.936.936 0 0 0 .33.153c-.035.5-.129.627-.365.627h-.223c-.3 0-.359-.112-.359-.456v-.961h.373v.961c0 .094.007.108.052.108z"/><path data-name="パス 12" d="M76.867 38.445a2.462 2.462 0 0 1-.818 1.121 4.018 4.018 0 0 0 1.235.313 2.138 2.138 0 0 0-.264.4 3.718 3.718 0 0 1-1.385-.449 4.641 4.641 0 0 1-1.389.442 1.574 1.574 0 0 0-.226-.4 4.575 4.575 0 0 0 1.235-.317 2.69 2.69 0 0 1-.585-.752l.306-.1h-.644v-.407h1.093v-.4h-1.267v-.411h1.267v-.459h.428v.452h1.274v.411h-1.274v.4h.651l.073-.014zm-1.793.258a1.865 1.865 0 0 0 .585.64 1.863 1.863 0 0 0 .613-.64z"/><path data-name="パス 13" d="M78.831 38.97c-.115.035-.23.07-.345.1v.766c0 .191-.035.3-.139.362a.885.885 0 0 1-.48.076 1.552 1.552 0 0 0-.1-.383 2.565 2.565 0 0 0 .285 0c.042 0 .059-.013.059-.059v-.658l-.348.1-.063-.407c.118-.025.258-.059.411-.1v-.714h-.365v-.383h.365v-.644h.379v.654h.314v.383h-.314v.613l.292-.076zm1.907.042a1.728 1.728 0 0 1-.4.741 2.69 2.69 0 0 0 .668.188 1.361 1.361 0 0 0-.244.338 2.653 2.653 0 0 1-.734-.268 2.422 2.422 0 0 1-.658.272 1.386 1.386 0 0 0-.223-.306 2.133 2.133 0 0 0 .567-.191 1.487 1.487 0 0 1-.264-.282 1.777 1.777 0 0 1-.644.766 1.156 1.156 0 0 0-.268-.3 1.616 1.616 0 0 0 .717-1.173h-.418v-.334h.463c0-.056.007-.111.014-.163h-.411v-.324h.216a3.709 3.709 0 0 0-.125-.376l.314-.087c.052.129.125.3.156.4l-.195.063h.4a3.4 3.4 0 0 0-.076-.439l.324-.056a3.473 3.473 0 0 1 .094.421l-.324.073h.435a3.75 3.75 0 0 0 .272-.56 13.7 13.7 0 0 1-1.465.1 1.081 1.081 0 0 0-.087-.306 11.419 11.419 0 0 0 1.75-.167l.233.31a8.341 8.341 0 0 1-.431.066l.383.111c-.094.153-.195.314-.286.449h.331v.324h-1.114c0 .056-.007.108-.014.163h1.229v.334h-1.27c-.011.045-.017.09-.028.136h.825l.066-.01zm-1.065.219a1.267 1.267 0 0 0 .348.348 1.116 1.116 0 0 0 .258-.348z"/><path data-name="パス 14" d="M81.922 37.394h.853c.529 0 .933.157.933.637a.584.584 0 0 1-.352.557v.017a.586.586 0 0 1 .484.609c0 .518-.432.759-1 .759h-.919zm.815 1.051c.327 0 .47-.132.47-.338 0-.227-.153-.317-.463-.317h-.306v.654zm.059 1.132c.352 0 .543-.126.543-.393 0-.251-.188-.359-.543-.359h-.358v.752z"/><path data-name="パス 15" d="M87.453 39.782v.383h-3.136v-.383h1.361v-.278h-1.009v-.376h1.009v-.219h-.261v-.668h-.32a1.062 1.062 0 0 1-.546.762 1.8 1.8 0 0 0-.272-.289.767.767 0 0 0 .425-.473h-.352v-.365h.393v-.365h-.275v-.362h1.58v.362h-.247v.365h.327v.365h-.327v.609h.3v.278h1.006v.376h-1.006v.278zm-2.036-1.908v-.365h-.292v.365zm1.239.526h-.379v-1.177h.379zm.647.15c0 .191-.035.289-.167.348a1.432 1.432 0 0 1-.547.066 1.548 1.548 0 0 0-.122-.365c.157.007.324.007.376 0s.066-.014.066-.059v-1.48h.393z"/></g></g><g data-name="グループ 5" fill="#000a29" stroke="#000a29" stroke-miterlimit="10" stroke-width=".479"><path data-name="パス 16" d="M62.054 31.797a6.323 6.323 0 0 1-.892.265 6.139 6.139 0 0 1-1.161.118 3.231 3.231 0 0 1-1.472-.325 2.375 2.375 0 0 1-1-.908 2.626 2.626 0 0 1-.351-1.38 2.576 2.576 0 0 1 .251-1.188 2.556 2.556 0 0 1 .629-.8 2.833 2.833 0 0 1 .754-.466 3.877 3.877 0 0 1 1.426-.229 4.471 4.471 0 0 1 .837.091q.439.088.991.242a2.94 2.94 0 0 0-.082.358q-.029.176-.076.72h-.218l-.018-.408c0-.062 0-.112-.007-.15a.428.428 0 0 0-.047-.147.839.839 0 0 0-.308-.233 3.857 3.857 0 0 0-.6-.187 3.024 3.024 0 0 0-.568-.047 2.3 2.3 0 0 0-1.179.29 1.855 1.855 0 0 0-.754.831 2.722 2.722 0 0 0-.256 1.182 2.664 2.664 0 0 0 .3 1.27 2.146 2.146 0 0 0 .8.864 2.256 2.256 0 0 0 1.175.3 3.011 3.011 0 0 0 .612-.061 1.892 1.892 0 0 0 .5-.168 2.3 2.3 0 0 0 .033-.459v-.4a1.1 1.1 0 0 0-.033-.369c-.021-.036-.079-.062-.174-.08a5.5 5.5 0 0 0-.651-.041v-.218l1.118.025q.326 0 .667-.025l.021.172-.269.158a6.443 6.443 0 0 0-.043.706 6.243 6.243 0 0 0 .045.697z"/><path data-name="パス 17" d="M65.127 31.848v.229q-.763-.029-1-.029l-1.107.029v-.229a2.522 2.522 0 0 0 .516-.038.234.234 0 0 0 .129-.084.908.908 0 0 0 .054-.348q0-.075.014-1.017v-1.659q0-.488-.011-.954a1.131 1.131 0 0 0-.052-.4.247.247 0 0 0-.133-.093 2.568 2.568 0 0 0-.518-.037v-.229q.684.025 1.057.025t1.054-.025v.229a2.568 2.568 0 0 0-.518.037.24.24 0 0 0-.127.084.912.912 0 0 0-.054.348l-.014 1.018v1.659q0 .488.011.95a1.148 1.148 0 0 0 .052.4.24.24 0 0 0 .132.095 2.519 2.519 0 0 0 .515.039z"/><path data-name="パス 18" d="M65.77 27.215v-.229q.545.022.925.022.268 0 .964-.014t.939-.014q.261 0 .478.005t.392.02a4.976 4.976 0 0 0-.115 1.086h-.226a4.278 4.278 0 0 0-.09-.666 2.158 2.158 0 0 0-.46-.095 5.853 5.853 0 0 0-.636-.031 6.728 6.728 0 0 0-.749.043q-.022.193-.029.362 0 .1-.018.82v.8q.4.011.709.011a4.48 4.48 0 0 0 .728-.047.21.21 0 0 0 .134-.059 1 1 0 0 0 .066-.3l.029-.222h.226l-.025.817.025.878h-.226l-.025-.229a2.642 2.642 0 0 0-.058-.419.2.2 0 0 0-.136-.075 5.442 5.442 0 0 0-.924-.047q-.255 0-.523.014v.724q0 .488.014.95a1.122 1.122 0 0 0 .049.4.24.24 0 0 0 .135.095 2.514 2.514 0 0 0 .516.038v.229q-.455-.029-.907-.029-.4 0-1.182.029v-.229a2.518 2.518 0 0 0 .516-.038.234.234 0 0 0 .129-.084.908.908 0 0 0 .054-.348q0-.075.014-1.017v-1.659q0-.488-.011-.954a1.131 1.131 0 0 0-.052-.4.247.247 0 0 0-.133-.093 2.568 2.568 0 0 0-.517-.045z"/><path data-name="パス 19" d="M70.148 30.507v-.05l.161-.48h1.917v.053l-.172.477z"/><path data-name="パス 20" d="M73.137 28.17h-.222q0-.857-.036-1.186.39.014 1.225.036.677.014.9.014.244 0 1.129-.022.641-.014.935-.029-.043.4-.058 1.186h-.229l-.029-.344q-.029-.312-.039-.354a.122.122 0 0 0-.03-.061.148.148 0 0 0-.059-.029c-.034-.007-.153-.016-.358-.028s-.368-.018-.488-.018h-.437q-.036.344-.036.929v2.1q0 .488.011.95a1.149 1.149 0 0 0 .052.4.24.24 0 0 0 .132.095 2.52 2.52 0 0 0 .518.038v.229q-.641-.029-.964-.029-.14 0-1.118.029v-.229a2.546 2.546 0 0 0 .519-.038.217.217 0 0 0 .126-.084.85.85 0 0 0 .057-.348q0-.075.014-1.017v-2.09c0-.1 0-.21-.007-.329l-.022-.606h-.534a5.877 5.877 0 0 0-.735.036.156.156 0 0 0-.111.047 1.284 1.284 0 0 0-.072.39z"/><path data-name="パス 21" d="M77.769 32.078v-.226a1.48 1.48 0 0 0 .495-.057.135.135 0 0 0 .072-.068 1.28 1.28 0 0 0 .05-.376q.022-.473.022-.817v-1.831q0-.488-.011-.954a1.126 1.126 0 0 0-.052-.4.245.245 0 0 0-.132-.093 2.568 2.568 0 0 0-.518-.037v-.229l1.021.022 1.082-.018q.778-.011 1.129-.011a5.456 5.456 0 0 1 .67.039 2.864 2.864 0 0 0-.079.355q-.007.032-.064.745h-.226a3.911 3.911 0 0 0-.047-.666 1.639 1.639 0 0 0-.434-.111 6.422 6.422 0 0 0-.8-.05q-.086 0-.384.014c-.2.01-.34.018-.426.025q-.014.4-.022.745l-.014 1.211q.419.022.77.022a5.688 5.688 0 0 0 .728-.039.218.218 0 0 0 .147-.057.868.868 0 0 0 .057-.294l.022-.251h.215v.068l-.018.745.018.835h-.251l-.011-.244a.817.817 0 0 0-.049-.329.233.233 0 0 0-.156-.09 4.7 4.7 0 0 0-.792-.043q-.24 0-.681.018-.018.358-.018 1.065 0 .663.018 1.007.516.039 1.157.039a5.009 5.009 0 0 0 .649-.029 1.53 1.53 0 0 0 .358-.1 2.237 2.237 0 0 0 .086-.3q.079-.319.1-.48h.237a9.753 9.753 0 0 0-.093 1.2 5.15 5.15 0 0 1-.749.047l-2.139-.029z"/><path data-name="パス 22" d="m87.291 31.443-.14.333a3.748 3.748 0 0 1-.82.306 3.817 3.817 0 0 1-.875.095 3.666 3.666 0 0 1-1.032-.139 2.682 2.682 0 0 1-.833-.4 2.487 2.487 0 0 1-.582-.582 2.535 2.535 0 0 1-.344-.7 2.766 2.766 0 0 1-.118-.829 2.492 2.492 0 0 1 .8-1.894 3.051 3.051 0 0 1 2.177-.751 4.521 4.521 0 0 1 .6.038 5.779 5.779 0 0 1 .678.143q.4.106.489.124a2.348 2.348 0 0 0-.118.387 5.412 5.412 0 0 0-.079.706h-.226v-.423a.632.632 0 0 0-.389-.523 2.442 2.442 0 0 0-1.034-.172 2.765 2.765 0 0 0-.864.131 1.662 1.662 0 0 0-.626.391 2.046 2.046 0 0 0-.442.677 2.725 2.725 0 0 0-.176 1.03A2.357 2.357 0 0 0 84 31.137a2.373 2.373 0 0 0 1.753.661 2.925 2.925 0 0 0 .91-.136 2.117 2.117 0 0 0 .57-.294z"/><path data-name="パス 23" d="M87.963 27.214v-.229l1.1.022 1.01-.022v.229a2.568 2.568 0 0 0-.518.037.238.238 0 0 0-.127.084.912.912 0 0 0-.054.348l-.014 1.018v.5q.706.025 1.72.025.778 0 1.243-.025v-.5q0-.488-.014-.954a1.131 1.131 0 0 0-.052-.4.245.245 0 0 0-.132-.093 2.568 2.568 0 0 0-.518-.037v-.229q.77.022 1.057.022.107 0 1.046-.022v.229a2.571 2.571 0 0 0-.516.037.222.222 0 0 0-.126.084.852.852 0 0 0-.057.348l-.014 1.017v1.658q0 .487.014.949a1.113 1.113 0 0 0 .049.4.24.24 0 0 0 .134.095 2.574 2.574 0 0 0 .516.038v.233q-.692-.029-1.132-.029-.47 0-.971.029v-.233a2.571 2.571 0 0 0 .518-.038.235.235 0 0 0 .127-.084.817.817 0 0 0 .054-.347q0-.075.018-1.016v-.816q-1-.022-1.523-.022-.566 0-1.441.022v.816q0 .487.011.948a1.122 1.122 0 0 0 .052.4.24.24 0 0 0 .132.095 2.571 2.571 0 0 0 .518.038v.233q-.484-.032-1-.032-.56 0-1.111.032v-.233a2.57 2.57 0 0 0 .516-.038.235.235 0 0 0 .129-.084.917.917 0 0 0 .054-.347q0-.075.014-1.017V28.7q0-.487-.011-.952a1.129 1.129 0 0 0-.052-.4.245.245 0 0 0-.133-.093 2.564 2.564 0 0 0-.516-.041z"/><path data-name="パス 24" d="m94.457 28.832-.108-.083a4.483 4.483 0 0 0 .273-.462 2.894 2.894 0 0 0 .186-.507 4.4 4.4 0 0 0 .118-.64 6.274 6.274 0 0 0 .7-.208l.1.086a7.391 7.391 0 0 1-.464.969 4.959 4.959 0 0 1-.478.672z"/><path data-name="パス 25" d="M96.853 30.995h.215a2.686 2.686 0 0 0 .022.33 1.168 1.168 0 0 0 .061.238.491.491 0 0 0 .133.2.7.7 0 0 0 .2.125.831.831 0 0 0 .215.059 2.763 2.763 0 0 0 .332.014.911.911 0 0 0 .6-.194.651.651 0 0 0 .235-.53.48.48 0 0 0-.074-.265.493.493 0 0 0-.211-.179 3.7 3.7 0 0 0-.593-.168q-.455-.1-.588-.151a.981.981 0 0 1-.319-.183.767.767 0 0 1-.188-.272.909.909 0 0 1-.07-.359.964.964 0 0 1 .149-.521 1.059 1.059 0 0 1 .467-.387 1.626 1.626 0 0 1 .7-.149 2.609 2.609 0 0 1 .523.063 2.047 2.047 0 0 1 .484.156q-.025.4-.036.81h-.2a2.137 2.137 0 0 0-.041-.344.588.588 0 0 0-.063-.147.532.532 0 0 0-.136-.138.991.991 0 0 0-.249-.131 1.072 1.072 0 0 0-.374-.057.7.7 0 0 0-.507.186.591.591 0 0 0-.192.437.49.49 0 0 0 .056.24.466.466 0 0 0 .149.163.969.969 0 0 0 .262.112l.595.147a3.762 3.762 0 0 1 .622.2.641.641 0 0 1 .274.256.8.8 0 0 1 .1.417 1.1 1.1 0 0 1-.4.844 1.538 1.538 0 0 1-1.069.36 4.848 4.848 0 0 1-.821-.093 1.313 1.313 0 0 1-.3-.075.042.042 0 0 1-.014-.036.318.318 0 0 1 .007-.061 2.26 2.26 0 0 0 .043-.3q-.006-.151.001-.617z"/></g><path data-name="長方形 4" fill="#000a29" d="M56.951 33.893h42.443v1.746H56.951z"/><g data-name="グループ 6" fill="#fff" stroke="#fff" stroke-miterlimit="10" stroke-width=".08"><path data-name="パス 26" d="m74.294 34.908.1.562-.205.036-.1-.571-.58.075-.027-.2.575-.075-.039-.227-.43.055-.028-.191.427-.055-.053-.32.182-.007c.036 0 .064 0 .064.023 0 .009 0 .013-.02.027s-.013.011-.011.018l.039.234.395-.052.028.191-.389.05.039.227.521-.068.029.2zm.414-.644a1.368 1.368 0 0 0-.162-.176l.091-.088a1.53 1.53 0 0 1 .164.176zm.188-.109a1.247 1.247 0 0 0-.163-.175l.091-.089a1.3 1.3 0 0 1 .164.177z"/><path data-name="パス 27" d="M76.429 34.376a2.2 2.2 0 0 1-.359.667 1.544 1.544 0 0 1-.489.391l-.194-.157a1.444 1.444 0 0 0 .81-.914h-.95v-.209h1.009a.1.1 0 0 0 .059-.029l.176.161a.217.217 0 0 0-.062.09z"/><path data-name="パス 28" d="M77.634 34.702a.919.919 0 0 1-.113.463.832.832 0 0 1-.4.332l-.175-.146a.6.6 0 0 0 .477-.648h-.6v-.184h1.348v.184zm-.564-.442v-.193h.864v.193z"/><path data-name="パス 29" d="M78.666 34.837a1.115 1.115 0 0 0-.136-.288l.164-.063a1.149 1.149 0 0 1 .138.288zm.928-.32c-.016.009-.018.016-.036.086a1.286 1.286 0 0 1-.666.857l-.143-.126a1.089 1.089 0 0 0 .657-.921l.175.054c.023.007.036.019.036.032s-.004.011-.023.018zm-.6.232a1.143 1.143 0 0 0-.127-.29l.159-.061a1.062 1.062 0 0 1 .122.289z"/><path data-name="パス 30" d="M81.144 34.451a2.08 2.08 0 0 1-.317.6 1.741 1.741 0 0 1-.484.423l-.195-.134a1.56 1.56 0 0 0 .559-.466 1.425 1.425 0 0 0 .236-.469h-.457a2.5 2.5 0 0 1-.339.4l-.177-.121a1.556 1.556 0 0 0 .493-.686l.184.07c.011 0 .046.02.046.038s-.019.018-.044.025c-.011.027-.032.063-.05.1h.4a.179.179 0 0 0 .078-.034l.145.17a.188.188 0 0 0-.078.084z"/><path data-name="パス 31" d="M82.767 35.381a2.843 2.843 0 0 0-.436-.446 1.719 1.719 0 0 1-.61.459l-.157-.162a1.585 1.585 0 0 0 .569-.386 1.422 1.422 0 0 0 .3-.488h-.68v-.207h.769a.169.169 0 0 0 .093-.039l.137.152a.247.247 0 0 0-.1.107 2.151 2.151 0 0 1-.207.4 3.544 3.544 0 0 1 .473.441z"/></g><path data-name="長方形 5" fill="none" stroke="#070607" stroke-miterlimit="10" stroke-width=".33" opacity=".3" d="M89.627 36.859h7.771v3.737h-7.771z"/><path data-name="長方形 6" fill="none" stroke="#000a29" stroke-miterlimit="10" stroke-width=".32" d="M89.627 36.859h7.617v3.583h-7.617z"/><g data-name="グループ 8"><g data-name="グループ 7" fill="#000a29"><path data-name="パス 32" d="M91.507 39.094a3.289 3.289 0 0 0-.172-.335v1.127h-.3v-1.023a2.278 2.278 0 0 1-.271.561 1.449 1.449 0 0 0-.151-.3 2.631 2.631 0 0 0 .392-.9h-.322v-.3h.352v-.55h.3v.55h.3v.3h-.3v.148c.078.094.3.4.352.475zm1.576-.827a2.583 2.583 0 0 1-.376 1.042 1.363 1.363 0 0 0 .47.322 1.212 1.212 0 0 0-.215.268 1.536 1.536 0 0 1-.453-.341 1.791 1.791 0 0 1-.435.33 1.073 1.073 0 0 0-.19-.25 1.348 1.348 0 0 0 .435-.33 2.481 2.481 0 0 1-.274-.59 2.24 2.24 0 0 1-.365 1.168 1.193 1.193 0 0 0-.255-.19 2.348 2.348 0 0 0 .33-1.4v-.757H93.1v.3h-1.039v.381h.768l.056-.011zm-.816.236a2.043 2.043 0 0 0 .239.548 2.133 2.133 0 0 0 .223-.548z"/><path data-name="パス 33" d="M94.124 38.37c.075.107.255.4.3.467l-.155.223c-.03-.078-.086-.2-.142-.317v1.143h-.29v-.979a2.271 2.271 0 0 1-.231.507 1.8 1.8 0 0 0-.139-.285 2.764 2.764 0 0 0 .352-.9h-.287v-.3h.306v-.553h.29v.553h.258v.3h-.258zm1.471-.314a1.242 1.242 0 0 0 .44.333 1.187 1.187 0 0 0-.19.226 1.157 1.157 0 0 1-.217-.156v.244h-.894l.004-.257a1.643 1.643 0 0 1-.231.161.75.75 0 0 0-.19-.207 1.239 1.239 0 0 0 .418-.346h-.316v-.241h.456a.794.794 0 0 0 .04-.11 6.473 6.473 0 0 1-.389.011.685.685 0 0 0-.064-.207 7.169 7.169 0 0 0 1.189-.112l.177.207a4.984 4.984 0 0 1-.609.083 1.237 1.237 0 0 1-.04.129h.784v.241zm.336 1.538c0 .129-.025.2-.115.247a.871.871 0 0 1-.368.046 1.147 1.147 0 0 0-.075-.236h-.3v.1h-.226v-.623h.671v.5h.075c.032 0 .043-.011.043-.04v-.561h-.91v.862h-.29v-1.1h1.5zm-.87-1.538c-.024.043-.051.083-.078.124h.4c-.026-.04-.053-.081-.077-.124zm.29.312h-.354v.145h.354zm-.062.945h-.218v.158h.218z"/></g></g><g data-name="グループ 10" transform="translate(35.127 22.827)"><path data-name="パス 34" d="m8.028 10.301-5.618 2.6L0 7.688 16.621.003l2.41 5.213-5.618 2.6 5.492 11.878-5.385 2.49z" fill="#003875"/><g data-name="グループ 9" fill="none" stroke="#fff" stroke-miterlimit="10" stroke-width=".08"><path data-name="パス 35" d="m13.049 19.224.868 1.877 3.911-1.808-5.492-11.878 5.618-2.6-1.729-3.739-5.618 2.6-3.911 1.808-.447.207"/><path data-name="パス 36" d="M3.843 6.804 1.078 8.082l1.729 3.739 5.618-2.6 3.666 7.928"/><path data-name="パス 37" d="m14.689 14.438 2.061 4.457-2.436 1.127L8.822 8.144l-5.618 2.6L2.157 8.48l8.014-3.705 1.1.476 1.749-.74"/><path data-name="パス 38" d="m12.58 3.658 3.248-1.5 1.047 2.264-5.618 2.6 2.48 5.363-.473 1.127.561 1.3"/></g><circle data-name="楕円形 1" cx=".183" cy=".183" r=".183" transform="translate(11.907 16.995)" fill="#fff"/><path data-name="パス 39" d="M13.94 21.258a.157.157 0 0 1-.156-.156.157.157 0 0 1 .156-.156.157.157 0 0 1 .156.156.157.157 0 0 1-.156.156z" fill="#003875" stroke="#fff" stroke-miterlimit="10" stroke-width=".16"/><circle data-name="楕円形 2" cx=".156" cy=".156" r=".156" transform="translate(14.143 19.867)" fill="#003875" stroke="#fff" stroke-miterlimit="10" stroke-width=".16"/><path data-name="パス 40" d="M17.812 19.394a.157.157 0 0 1-.156-.156.157.157 0 0 1 .156-.156.157.157 0 0 1 .156.156.157.157 0 0 1-.156.156z" fill="#003875" stroke="#fff" stroke-miterlimit="10" stroke-width=".16"/><path data-name="パス 41" d="M16.699 19.033a.156.156 0 0 1-.156-.156.156.156 0 0 1 .156-.156.156.156 0 0 1 .156.156.156.156 0 0 1-.156.156z" fill="#003875" stroke="#fff" stroke-miterlimit="10" stroke-width=".16"/><path data-name="パス 42" d="M3.844 6.963a.156.156 0 0 1-.156-.156.156.156 0 0 1 .156-.156.156.156 0 0 1 .156.156.156.156 0 0 1-.156.156z" fill="#fff"/><path data-name="パス 43" d="M2.829 11.862a.156.156 0 0 1-.156-.156.156.156 0 0 1 .156-.156.156.156 0 0 1 .156.156.156.156 0 0 1-.156.156z" fill="#003875" stroke="#fff" stroke-miterlimit="10" stroke-width=".16"/><circle data-name="楕円形 3" cx=".156" cy=".156" r=".156" transform="translate(8.238 9.185)" fill="#003875" stroke="#fff" stroke-miterlimit="10" stroke-width=".16"/><path data-name="パス 44" d="M12.367 7.547a.157.157 0 0 1-.156-.156.156.156 0 0 1 .156-.156.156.156 0 0 1 .156.156.157.157 0 0 1-.156.156z" fill="#003875" stroke="#fff" stroke-miterlimit="10" stroke-width=".16"/><path data-name="パス 45" d="M17.852 4.97a.156.156 0 0 1-.156-.156.156.156 0 0 1 .156-.156.156.156 0 0 1 .156.156.156.156 0 0 1-.156.156z" fill="#003875" stroke="#fff" stroke-miterlimit="10" stroke-width=".16"/><circle data-name="楕円形 4" cx=".156" cy=".156" r=".156" transform="translate(16.025 .922)" fill="#003875" stroke="#fff" stroke-miterlimit="10" stroke-width=".16"/><path data-name="パス 46" d="M8.754 8.294a.156.156 0 0 1-.156-.156.157.157 0 0 1 .156-.156.157.157 0 0 1 .156.156.156.156 0 0 1-.156.156z" fill="#003875" stroke="#fff" stroke-miterlimit="10" stroke-width=".16"/><path data-name="パス 47" d="M11.266 7.188a.156.156 0 0 1-.156-.156.157.157 0 0 1 .156-.156.157.157 0 0 1 .156.156.156.156 0 0 1-.156.156z" fill="#003875" stroke="#fff" stroke-miterlimit="10" stroke-width=".16"/><path data-name="パス 48" d="M16.875 4.549a.157.157 0 0 1-.156-.156.157.157 0 0 1 .156-.156.157.157 0 0 1 .156.156.157.157 0 0 1-.156.156z" fill="#003875" stroke="#fff" stroke-miterlimit="10" stroke-width=".16"/><circle data-name="楕円形 5" cx=".156" cy=".156" r=".156" transform="translate(15.666 2)" fill="#003875" stroke="#fff" stroke-miterlimit="10" stroke-width=".16"/><path data-name="パス 49" d="M1.119 8.253a.156.156 0 0 1-.156-.156.156.156 0 0 1 .156-.156.156.156 0 0 1 .156.156.156.156 0 0 1-.156.156z" fill="#003875" stroke="#fff" stroke-miterlimit="10" stroke-width=".16"/><path data-name="パス 50" d="M6.237 5.848a.157.157 0 0 1-.156-.156.157.157 0 0 1 .156-.156.156.156 0 0 1 .156.156.156.156 0 0 1-.156.156z" fill="#fff"/><path data-name="パス 51" d="M13.015 4.664a.156.156 0 0 1-.156-.156.156.156 0 0 1 .156-.156.156.156 0 0 1 .156.156.156.156 0 0 1-.156.156z" fill="#fff"/><path data-name="パス 52" d="M12.58 3.813a.157.157 0 0 1-.156-.156.157.157 0 0 1 .156-.156.157.157 0 0 1 .156.156.157.157 0 0 1-.156.156z" fill="#fff"/><path data-name="パス 53" d="M13.825 14.964a.156.156 0 0 1-.156-.156.156.156 0 0 1 .156-.156.157.157 0 0 1 .156.156.157.157 0 0 1-.156.156z" fill="#fff"/><circle data-name="楕円形 6" cx=".156" cy=".156" r=".156" transform="translate(14.503 14.283)" fill="#fff"/><path data-name="パス 54" d="M13.017 19.394a.156.156 0 0 1-.156-.156.156.156 0 0 1 .156-.156.156.156 0 0 1 .156.156.156.156 0 0 1-.156.156z" fill="#fff"/></g></g></g><text transform="translate(189 37)" fill="#003875" font-size="13" font-family="NotoSans-Bold, Noto Sans" font-weight="700"><tspan x="0" y="0">Facebook</tspan></text></g></svg>