<svg xmlns="http://www.w3.org/2000/svg" width="80.733" height="19.962" viewBox="0 0 80.733 19.962"><g transform="translate(-261.563 -220.401)"><path d="M432.7,238.035a6.225,6.225,0,1,1-6.435,6.221A6.2,6.2,0,0,1,432.7,238.035Zm28.053.057c3.966,0,5.779,3.082,5.779,6.449,0,.221,0,.435-.022.656-.013.134-.077.217-.2.227h-8.095a2.746,2.746,0,0,0,2.911,2.34,3.9,3.9,0,0,0,2.754-1.07.214.214,0,0,1,.292-.017l.021.017,1.57,1.413a.213.213,0,0,1,.029.328,6.235,6.235,0,1,1-5.037-10.345ZM447.6,235.266a.21.21,0,0,1,.228.228v2.825h2.568a.21.21,0,0,1,.228.229v2.4a.21.21,0,0,1-.228.228h-2.568v5.18c0,.785.35,1.156,1.042,1.156a2.9,2.9,0,0,0,1.441-.3c.157-.078.271-.029.271.129v2.24a.315.315,0,0,1-.157.285,4.675,4.675,0,0,1-2.511.614c-1.848,0-3.167-.664-3.418-2.775a8.734,8.734,0,0,1-.035-.926v-5.6h-1.2a.21.21,0,0,1-.228-.228v-2.4a.21.21,0,0,1,.228-.229h1.2v-2.825a.21.21,0,0,1,.228-.228ZM417.9,238.035a3.705,3.705,0,0,1,3.917,3.225,7.35,7.35,0,0,1,.107,1.377v7.327a.21.21,0,0,1-.228.228h-2.911a.21.21,0,0,1-.228-.228v-6.45c0-1.584-.757-2.426-2.04-2.426s-2.1.827-2.1,2.426v6.45a.21.21,0,0,1-.228.228h-2.911a.21.21,0,0,1-.229-.228V238.548a.21.21,0,0,1,.229-.229h2.911a.21.21,0,0,1,.228.229V239.9A4.2,4.2,0,0,1,417.9,238.035Zm14.8,2.91a3.317,3.317,0,1,0,3.11,3.31A3.129,3.129,0,0,0,432.7,240.945Zm28.053-.157c-1.342,0-2.213.913-2.594,2.466l-.017.073h5.115C463.023,241.844,462.21,240.788,460.754,240.788Z" transform="translate(-124.237 -12.354)" fill="#fff" fill-rule="evenodd"/><path d="M269.154,229.19H266.8a1.512,1.512,0,0,1-.514-.057,1.01,1.01,0,0,1,0-1.912,1.5,1.5,0,0,1,.514-.057h1.527v-1.527a1.5,1.5,0,0,1,.057-.514,1.009,1.009,0,0,1,1.912,0,1.508,1.508,0,0,1,.057.514v2.354a1.948,1.948,0,0,1-.029.414,1.043,1.043,0,0,1-.756.756,1.948,1.948,0,0,1-.414.029Zm7.563,8.647H264.089V226.715a.5.5,0,0,1,.15-.364l3.275-3.275a.5.5,0,0,1,.364-.15h8.84Zm-14.54-12.992a1.991,1.991,0,0,0-.6,1.227c-.007.079-.014.193-.014.307v12.578a2.714,2.714,0,0,0,.014.314,1.272,1.272,0,0,0,1.078,1.077,2.677,2.677,0,0,0,.314.014h14.868a2.679,2.679,0,0,0,.314-.014,1.271,1.271,0,0,0,1.077-1.077,2.628,2.628,0,0,0,.014-.314V221.806a2.628,2.628,0,0,0-.014-.314,1.271,1.271,0,0,0-1.077-1.077,2.679,2.679,0,0,0-.314-.014H267.542c-.114,0-.229.007-.307.014a1.988,1.988,0,0,0-1.227.6Z" transform="translate(0 0)" fill="#fff" fill-rule="evenodd"/></g></svg>