<svg xmlns="http://www.w3.org/2000/svg" xmlns:xlink="http://www.w3.org/1999/xlink" width="223.539" height="85.852"><defs><linearGradient id="a" x1=".906" y1=".269" x2=".067" y2=".762" gradientUnits="objectBoundingBox"><stop offset="0" stop-color="#b6d5ed"/><stop offset=".158" stop-color="#accee8"/><stop offset=".421" stop-color="#93bcdc"/><stop offset=".569" stop-color="#82b1d4"/><stop offset=".865" stop-color="#003875"/><stop offset=".996" stop-color="#003875"/></linearGradient><linearGradient id="b" x1=".924" y1=".258" x2=".067" y2=".761" xlink:href="#a"/></defs><g data-name="グループ 12"><g data-name="グループ 11"><g data-name="グループ 1" opacity=".1"><path data-name="パス 1" d="M88.888 48.407c.949 21.5-12.111 34.8-32.384 35.785-23.481 1.139-39-14.932-39.91-33.6-.928-19.141 13.174-36.271 35.428-37.35 12.446-.6 22.19 3.461 31.659 11.6l-4.949 5.155c-8-7.079-17.431-10.592-26.2-10.166-16.219.787-29.665 13.915-28.874 30.228.755 15.558 14.534 28.784 32.732 27.9 12.824-.623 23.958-8.818 25.18-22.583l-21.593 1.047-.321-6.6z" fill="#003875" stroke="#003875" stroke-miterlimit="10" stroke-width="3.197"/></g><g data-name="グループ 2"><path data-name="パス 2" d="M-211.38 501.881c3.062 13.106-4.623 24.276-16.309 29.085-16.851 6.932-34.266-.909-40.193-15.316-6.214-15.1 2.054-31.979 17.071-38.157 8.12-3.341 18.183-3.193 28.092.794l2.935-6.515c-11.651-4.5-22.193-5.059-33.717-.32-20.6 8.478-28.149 29.345-20.856 47.066 7.112 17.288 27.124 27.224 48.864 18.281 16.534-6.8 24.592-20.731 20.739-37.585z" transform="translate(280.313 -464.901)" fill="url(#a)"/><path data-name="パス 3" d="M38.59 73.089a33.309 33.309 0 0 1-18.731-5.63A32.575 32.575 0 0 1 7.954 52.796a32.856 32.856 0 0 1-.037-25.345 33.157 33.157 0 0 1 7.432-10.919 38.092 38.092 0 0 1 12.286-7.983 39.362 39.362 0 0 1 15.2-3.15 44.9 44.9 0 0 1 14.771 2.7l-1.147 2.546a43.316 43.316 0 0 0-14.5-2.577 34.734 34.734 0 0 0-13.281 2.525 33.54 33.54 0 0 0-10.552 6.887 32.8 32.8 0 0 0-7.084 9.94 29.937 29.937 0 0 0-.61 24.151 30.462 30.462 0 0 0 11.655 13.964 32.654 32.654 0 0 0 17.868 5.247 35.326 35.326 0 0 0 13.49-2.72A30.614 30.614 0 0 0 68.164 55.74a25.377 25.377 0 0 0 3.237-17.425l2.535-1.019a31.364 31.364 0 0 1 .189 8.776 26.642 26.642 0 0 1-3.176 9.749c-3.375 6.036-9.238 10.905-16.952 14.079a40.435 40.435 0 0 1-15.407 3.189z" fill="#fff" stroke="#fff" stroke-miterlimit="10" stroke-width=".08"/><path data-name="パス 4" d="M-241.021 544.1a39.117 39.117 0 0 1-14.911-2.9 37.621 37.621 0 0 1-12.433-8.28 38.026 38.026 0 0 1-8.281-12.463 38.847 38.847 0 0 1-2.959-14.874 37.765 37.765 0 0 1 2.934-14.609 38.538 38.538 0 0 1 8.633-12.691 43.465 43.465 0 0 1 14.013-9.122 44.465 44.465 0 0 1 18.109-3.546 52.567 52.567 0 0 1 18.007 3.839l3.193 1.233-5.618 12.472-2.888-1.159a38.964 38.964 0 0 0-13.587-2.912 29.588 29.588 0 0 0-12.064 2.109 28.169 28.169 0 0 0-8.86 5.782 27.439 27.439 0 0 0-5.925 8.309 24.593 24.593 0 0 0-.521 19.837 24.71 24.71 0 0 0 5.673 8.355 26.2 26.2 0 0 0 8.539 5.531 27.547 27.547 0 0 0 10.3 1.976 30.115 30.115 0 0 0 11.453-2.31 25.2 25.2 0 0 0 12.134-10.093 20.251 20.251 0 0 0 2.252-15.257l-.633-2.706 12.728-5.121.845 3.7c2.059 9.007 1 17.605-3.055 24.863-3.975 7.112-10.757 12.8-19.609 16.439a45.974 45.974 0 0 1-17 3.591c-.16.007-.315.007-.469.007z" transform="translate(279.606 -465.607)" fill="url(#b)"/><path data-name="パス 5" d="M38.584 76.329a36.97 36.97 0 0 1-14.091-2.734 35.448 35.448 0 0 1-11.724-7.806 35.863 35.863 0 0 1-7.813-11.758 36.659 36.659 0 0 1-2.8-14.051 35.6 35.6 0 0 1 2.765-13.776 36.385 36.385 0 0 1 8.156-11.984 41.317 41.317 0 0 1 13.322-8.667A42.518 42.518 0 0 1 42.82 2.16c.272 0 .549 0 .822.008a50.43 50.43 0 0 1 17.273 3.7l1.064.411-3.829 8.5-.962-.388a41.079 41.079 0 0 0-14.34-3.067c-.3-.008-.607-.012-.908-.012a31.458 31.458 0 0 0-12.031 2.282 30.318 30.318 0 0 0-9.538 6.224 29.572 29.572 0 0 0-6.388 8.961 26.731 26.731 0 0 0-.556 21.562 26.861 26.861 0 0 0 6.166 9.081 28.347 28.347 0 0 0 9.239 5.987 29.633 29.633 0 0 0 11.1 2.132 32.128 32.128 0 0 0 12.274-2.472 27.365 27.365 0 0 0 13.171-10.987 22.373 22.373 0 0 0 2.5-16.856l-.21-.9 8.659-3.484.283 1.233c1.938 8.478.958 16.544-2.835 23.329-3.736 6.682-10.148 12.04-18.547 15.5a43.779 43.779 0 0 1-16.205 3.429h-.441z" fill="none" stroke="#fff" stroke-miterlimit="10" stroke-width=".16"/></g><path data-name="パス 6" d="M44.537 39.675a.415.415 0 0 1-.414-.416.415.415 0 0 1 .414-.416.416.416 0 0 1 .416.416.416.416 0 0 1-.416.416z" fill="#003875" stroke="#fff" stroke-miterlimit="10" stroke-width=".16"/><path data-name="パス 7" d="M64.3 83.383s73.412-19.17 157.359-2.409" fill="none" stroke="#82b1d4" stroke-linecap="round" stroke-linejoin="round" stroke-width="3.197"/><g data-name="グループ 4"><g data-name="グループ 3" fill="#000a29"><path data-name="パス 8" d="M107.389 61.21a7.069 7.069 0 0 1-.935 2.37 5.558 5.558 0 0 0-.815-.611 5.193 5.193 0 0 0 .751-1.971zm3-3.674h-4.5v-1h1.693l-.999-1.042h1.12v1.046h1.686zm-1.666 3.119v2.37c0 .463-.084.741-.4.907a2.6 2.6 0 0 1-1.23.176 3.85 3.85 0 0 0-.325-.991c.306.009.648.009.751.009s.147-.027.147-.129v-2.342h-1.351v-2.6H110v2.6zm-1.408-.908h1.62v-.787h-1.62zm6.137 3.25a.214.214 0 0 0 .157-.055.387.387 0 0 0 .084-.214 9.849 9.849 0 0 0 .027-1.046 2.317 2.317 0 0 0 .788.435 7.313 7.313 0 0 1-.121 1.269.8.8 0 0 1-.315.5.983.983 0 0 1-.564.157h-.537a.926.926 0 0 1-.666-.24c-.166-.166-.214-.343-.214-.935l.277-1.834a6.281 6.281 0 0 1-1.684 3.119 4.825 4.825 0 0 0-.935-.648 4.631 4.631 0 0 0 .833-1l-.861.325a8.763 8.763 0 0 0-.546-1.62l.861-.3a8.324 8.324 0 0 1 .583 1.537 7.74 7.74 0 0 0 .991-3.628h-1.018v-1.046h1.046v-2.279h1.055v2.287h1.962v1.046h-1.981l-.027.389h.721v3.578a.218.218 0 0 0 .037.138.181.181 0 0 0 .148.065zm.01-5.4a5.186 5.186 0 0 0-.889-1.527l.852-.389a4.75 4.75 0 0 1 .953 1.472z"/><path data-name="パス 9" d="M123.164 59.821s-.009.306-.027.445c-.1 2.193-.231 3.11-.547 3.453a1.168 1.168 0 0 1-.87.4 11.688 11.688 0 0 1-1.453.018 2.414 2.414 0 0 0-.389-1.083c.546.038 1.12.047 1.361.047a.535.535 0 0 0 .389-.1c.175-.166.286-.786.37-2.147h-2c-.325 1.61-1.186 2.693-3.656 3.3a3.844 3.844 0 0 0-.639-1.019c2.027-.426 2.778-1.156 3.083-2.276h-2.269v-1.028h2.435c.037-.37.046-.767.064-1.2h1.2a21.82 21.82 0 0 1-.073 1.2zm.732-2.444v2.149h-1.111l-3.021-1.13h-5.767v1.129h-1.055v-2.149h1.315a6.065 6.065 0 0 0-.825-1.3l.954-.444a5.582 5.582 0 0 1 .954 1.435l-.657.3h3.786l-.2-.073a9.551 9.551 0 0 0 1.037-1.769l1.23.371a17.344 17.344 0 0 1-1.092 1.471zm-4.369-.018a5.794 5.794 0 0 0-.668-1.537l.98-.326a5.553 5.553 0 0 1 .74 1.509z"/><path data-name="パス 10" d="M126.553 61.043a7.837 7.837 0 0 1-.546 2.379 4.856 4.856 0 0 0-.769-.371 6.743 6.743 0 0 0 .473-2.147zm7.5 2.675h-4.156v.389h-1.027l-.842-3.611-.694.306a5.416 5.416 0 0 0-.12-.528l-.472.037v3.823h-.926v-3.748l-1.223.092-.11-.953c.221-.009.462-.028.73-.037.12-.167.251-.352.371-.537a7.861 7.861 0 0 0-1.074-1.343l.528-.712c.074.065.148.139.222.214a11.651 11.651 0 0 0 .666-1.611l.935.324c-.334.639-.714 1.371-1.037 1.889a4.634 4.634 0 0 1 .3.38 20.15 20.15 0 0 0 .8-1.509l.871.4a33.55 33.55 0 0 1-1.148 1.769l.723-.3a9.687 9.687 0 0 1 .666 1.684v-4.295h1.027v5.355a5.944 5.944 0 0 0 1.3-1.852h-1.111v-.981h1.379v-2.684h.954v2.684h1.453v.981h-1.453v.139c.4.341 1.352 1.3 1.574 1.545l-.648.852a14.7 14.7 0 0 0-.926-1.278v1.991h-.954v-1.947a5.838 5.838 0 0 1-1.129 1.6 5.344 5.344 0 0 0-.435-.981v1.453h4.156zm-6.295-4.333a5.617 5.617 0 0 0-.278-.638c-.166.24-.324.472-.491.684zm.592 1.481a6.65 6.65 0 0 1 .473 1.666l-.769.251a7.288 7.288 0 0 0-.426-1.7zm2.213-2.619a8.12 8.12 0 0 0-.527-1.787l.778-.269a7.37 7.37 0 0 1 .583 1.758zm3.361-1.843c-.26.648-.546 1.389-.778 1.861l-.732-.258a11.938 11.938 0 0 0 .565-1.9z"/><path data-name="パス 11" d="M136.405 61.052a8.575 8.575 0 0 1-.546 2.389 4.648 4.648 0 0 0-.806-.39 6.746 6.746 0 0 0 .472-2.147zm1.073-.749v3.832h-.944v-3.757l-1.287.1-.111-.953.666-.037c.139-.168.278-.352.417-.546a8.585 8.585 0 0 0-1.055-1.3l.537-.74c.064.065.138.13.212.194a11.337 11.337 0 0 0 .666-1.6l.954.334a21 21 0 0 1-1.046 1.888 4.508 4.508 0 0 1 .3.362 14.942 14.942 0 0 0 .834-1.5l.9.417a36.234 36.234 0 0 1-1.721 2.434l.8-.046a7.623 7.623 0 0 0-.3-.592l.778-.324a9.477 9.477 0 0 1 .638 1.361v-.871h5.082l-.88 1.835h-.963v-.981h-3.2v.981h-.917v-.278l-.638.3c-.028-.157-.083-.343-.139-.546zm.852.564a6.731 6.731 0 0 1 .472 1.629l-.815.269a7.3 7.3 0 0 0-.426-1.667zm1.5-.592h.99v.74a3.222 3.222 0 0 1-1.972 3.13 5.086 5.086 0 0 0-.749-.732 2.559 2.559 0 0 0 1.732-2.416zm.833-3.165h-1.916v-.9h1.916l-1.185-.716h1.092v.721h1.954v.9h-.765v.536h1.686v.889h-4.361v-.889h1.583zm2.269 6.007c.129 0 .175-.148.194-1.147a2.49 2.49 0 0 0 .879.407c-.092 1.324-.343 1.666-.972 1.666h-.592c-.787 0-.954-.3-.954-1.212v-2.555h.991v2.555c0 .249.018.286.138.286z"/><path data-name="パス 12" d="M152.577 59.266a6.549 6.549 0 0 1-2.175 2.981 10.687 10.687 0 0 0 3.285.833 5.682 5.682 0 0 0-.7 1.074 9.89 9.89 0 0 1-3.685-1.195 12.341 12.341 0 0 1-3.693 1.175 4.187 4.187 0 0 0-.6-1.064 12.17 12.17 0 0 0 3.286-.843 7.155 7.155 0 0 1-1.555-2l.815-.277h-1.712v-1.083h2.907v-1.071h-3.37v-1.092h3.37v-1.208h1.138v1.2h3.389v1.1h-3.389v1.074h1.732l.194-.037zm-4.768.686a4.961 4.961 0 0 0 1.555 1.7 4.955 4.955 0 0 0 1.629-1.7z"/><path data-name="パス 13" d="M157.799 60.663c-.306.092-.611.185-.917.269v2.036c0 .509-.092.788-.37.963a2.352 2.352 0 0 1-1.278.2 4.129 4.129 0 0 0-.277-1.018 6.812 6.812 0 0 0 .758.009c.111 0 .157-.036.157-.157v-1.75l-.925.278-.168-1.082c.315-.065.685-.157 1.092-.26v-1.9h-.972v-1.018h.972v-1.737h1.009v1.741h.834v1.018h-.834v1.629l.778-.2zm5.072.111a4.6 4.6 0 0 1-1.064 1.972 7.151 7.151 0 0 0 1.778.5 3.62 3.62 0 0 0-.648.9 7.048 7.048 0 0 1-1.953-.714 6.439 6.439 0 0 1-1.75.723 3.687 3.687 0 0 0-.592-.815 5.673 5.673 0 0 0 1.508-.509 3.956 3.956 0 0 1-.7-.749 4.726 4.726 0 0 1-1.712 2.036 3.076 3.076 0 0 0-.712-.8 4.3 4.3 0 0 0 1.907-3.119h-1.111v-.889h1.232c.009-.148.019-.3.037-.435h-1.092v-.861h.574a9.865 9.865 0 0 0-.334-1l.834-.231c.138.343.333.786.416 1.065l-.518.166h1.064a9.056 9.056 0 0 0-.2-1.166l.861-.148a9.236 9.236 0 0 1 .251 1.12l-.862.194h1.157a9.974 9.974 0 0 0 .723-1.49 36.459 36.459 0 0 1-3.9.258 2.874 2.874 0 0 0-.231-.815 30.358 30.358 0 0 0 4.655-.444l.62.824c-.352.065-.73.12-1.147.177l1.018.3c-.249.408-.518.834-.76 1.195h.88v.861h-2.962a7.154 7.154 0 0 1-.037.435l3.26-.979v.889h-3.379c-.028.12-.046.24-.074.361h2.195l.175-.027zm-2.831.583a3.368 3.368 0 0 0 .925.926 2.967 2.967 0 0 0 .685-.926z"/><path data-name="パス 14" d="M166.02 56.47h2.269c1.407 0 2.481.417 2.481 1.695a1.553 1.553 0 0 1-.935 1.481v.046a1.558 1.558 0 0 1 1.287 1.62c0 1.379-1.148 2.018-2.658 2.018h-2.444zm2.166 2.8c.87 0 1.25-.352 1.25-.9 0-.6-.407-.843-1.23-.843h-.815v1.741zm.157 3.009c.935 0 1.444-.334 1.444-1.046 0-.668-.5-.954-1.444-.954h-.953v2z"/><path data-name="パス 15" d="M180.731 62.816v1.018h-8.341v-1.018h3.619v-.741h-2.684v-1h2.684v-.583h-.694v-1.776h-.852a2.825 2.825 0 0 1-1.453 2.027 4.784 4.784 0 0 0-.723-.769 2.04 2.04 0 0 0 1.129-1.258h-.935v-.972h1.046v-.972h-.732v-.956h4.2v.963h-.656v.972h.87v.972h-.87v1.62h.8v.74h2.675v1h-2.675v.741zm-5.416-5.073v-.972h-.778v.972zm3.3 1.4h-1.009l-4.37-3.127h1.009zm1.721.4c0 .509-.092.769-.444.926a3.809 3.809 0 0 1-1.454.176 4.115 4.115 0 0 0-.324-.972c.417.018.861.018 1 .009s.175-.037.175-.157V55.59h1.046z"/></g></g><g data-name="グループ 5" fill="#000a29" stroke="#000a29" stroke-miterlimit="10" stroke-width=".479"><path data-name="パス 16" d="M113.178 41.584a16.811 16.811 0 0 1-2.372.706 16.33 16.33 0 0 1-3.089.315 8.593 8.593 0 0 1-3.916-.863 6.315 6.315 0 0 1-2.65-2.416 6.984 6.984 0 0 1-.934-3.669 6.851 6.851 0 0 1 .668-3.159 6.8 6.8 0 0 1 1.673-2.14 7.534 7.534 0 0 1 2.005-1.239 10.31 10.31 0 0 1 3.793-.61 11.89 11.89 0 0 1 2.225.243q1.166.234 2.635.643a7.818 7.818 0 0 0-.219.953q-.077.468-.2 1.916h-.581l-.049-1.086c-.006-.166-.013-.3-.018-.4a1.138 1.138 0 0 0-.124-.391 2.231 2.231 0 0 0-.82-.619 10.253 10.253 0 0 0-1.606-.5 8.043 8.043 0 0 0-1.51-.124 6.127 6.127 0 0 0-3.136.772 4.934 4.934 0 0 0-2.005 2.211 7.24 7.24 0 0 0-.682 3.145 7.085 7.085 0 0 0 .8 3.379 5.709 5.709 0 0 0 2.137 2.3 6 6 0 0 0 3.124.8 8.008 8.008 0 0 0 1.627-.162 5.028 5.028 0 0 0 1.33-.448 6.111 6.111 0 0 0 .087-1.22v-1.058a2.927 2.927 0 0 0-.087-.982c-.056-.095-.211-.166-.462-.214a14.636 14.636 0 0 0-1.73-.11v-.581l2.973.066q.867 0 1.774-.066l.056.457-.715.419a17.134 17.134 0 0 0-.114 1.877 16.6 16.6 0 0 0 .112 1.855z"/><path data-name="パス 17" d="M121.345 41.719v.61q-2.03-.077-2.668-.077l-2.945.077v-.61a6.705 6.705 0 0 0 1.372-.1.621.621 0 0 0 .343-.224 2.415 2.415 0 0 0 .143-.925q.01-.2.038-2.706v-4.412q0-1.3-.028-2.536a3.009 3.009 0 0 0-.138-1.072.656.656 0 0 0-.353-.248 6.832 6.832 0 0 0-1.377-.1v-.61q1.821.067 2.811.066.953 0 2.8-.066v.61a6.832 6.832 0 0 0-1.377.1.639.639 0 0 0-.338.224 2.426 2.426 0 0 0-.143.925q-.01.192-.038 2.707v4.412q0 1.3.029 2.526a3.054 3.054 0 0 0 .138 1.077.639.639 0 0 0 .352.252 6.7 6.7 0 0 0 1.379.1z"/><path data-name="パス 18" d="M123.061 29.395v-.61q1.448.058 2.459.058.714 0 2.563-.038t2.5-.038q.694 0 1.273.014t1.044.052a13.236 13.236 0 0 0-.306 2.888h-.6a11.375 11.375 0 0 0-.239-1.773 5.737 5.737 0 0 0-1.224-.252 15.572 15.572 0 0 0-1.692-.082 17.907 17.907 0 0 0-1.991.115q-.058.514-.077.963-.01.257-.047 2.182v2.115q1.067.029 1.886.029a11.926 11.926 0 0 0 1.935-.124.559.559 0 0 0 .357-.157 2.673 2.673 0 0 0 .176-.806l.077-.591h.6l-.067 2.173.067 2.335h-.6l-.067-.61a7.024 7.024 0 0 0-.153-1.115.54.54 0 0 0-.362-.2 14.47 14.47 0 0 0-2.458-.124q-.677 0-1.391.038v1.929q0 1.3.037 2.526a2.986 2.986 0 0 0 .129 1.077.637.637 0 0 0 .358.252 6.688 6.688 0 0 0 1.372.1v.61q-1.21-.077-2.412-.077-1.076 0-3.145.077v-.61a6.7 6.7 0 0 0 1.372-.1.621.621 0 0 0 .343-.224 2.415 2.415 0 0 0 .143-.925q.01-.2.038-2.706v-4.412q0-1.3-.028-2.536a3.008 3.008 0 0 0-.138-1.072.656.656 0 0 0-.353-.248 6.833 6.833 0 0 0-1.379-.103z"/><path data-name="パス 19" d="M134.706 38.155v-.134l.428-1.276h5.1v.142l-.458 1.269z"/><path data-name="パス 20" d="M142.653 31.94h-.591q-.01-2.279-.095-3.155 1.038.038 3.259.1 1.8.038 2.4.038.648 0 3-.058 1.705-.038 2.487-.077-.115 1.069-.153 3.155h-.609l-.077-.916q-.077-.829-.1-.943a.326.326 0 0 0-.081-.162.393.393 0 0 0-.157-.077c-.09-.019-.407-.043-.953-.075s-.98-.049-1.3-.049h-1.163q-.1.915-.1 2.47v5.575q0 1.3.029 2.526a3.054 3.054 0 0 0 .138 1.077.639.639 0 0 0 .352.252 6.7 6.7 0 0 0 1.377.1v.61q-1.705-.077-2.563-.077-.372 0-2.973.077v-.61a6.77 6.77 0 0 0 1.381-.1.577.577 0 0 0 .334-.224 2.261 2.261 0 0 0 .152-.925q0-.2.038-2.706v-5.557c0-.266-.006-.559-.019-.876l-.058-1.611h-1.42a15.624 15.624 0 0 0-1.954.1.414.414 0 0 0-.3.124 3.418 3.418 0 0 0-.191 1.039z"/><path data-name="パス 21" d="M154.976 42.329v-.6a3.933 3.933 0 0 0 1.316-.152.358.358 0 0 0 .191-.182 3.4 3.4 0 0 0 .133-1q.058-1.258.058-2.173v-4.87q0-1.3-.028-2.536a3 3 0 0 0-.139-1.072.653.653 0 0 0-.352-.248 6.833 6.833 0 0 0-1.377-.1v-.61l2.716.058 2.878-.047q2.068-.029 3-.029a14.524 14.524 0 0 1 1.782.1 7.621 7.621 0 0 0-.21.944q-.019.086-.171 1.982h-.6a10.4 10.4 0 0 0-.124-1.773 4.363 4.363 0 0 0-1.154-.3 17.083 17.083 0 0 0-2.135-.133q-.228 0-1.021.037c-.527.026-.905.049-1.133.068q-.038 1.057-.058 1.982l-.038 3.22q1.115.058 2.049.058a15.125 15.125 0 0 0 1.935-.1.579.579 0 0 0 .391-.152 2.309 2.309 0 0 0 .152-.781l.058-.668h.572v.182l-.049 1.982.049 2.22h-.668l-.028-.648a2.174 2.174 0 0 0-.129-.876.62.62 0 0 0-.414-.239 12.5 12.5 0 0 0-2.106-.114q-.639 0-1.811.047-.048.953-.047 2.832 0 1.763.047 2.678 1.374.1 3.078.1a13.319 13.319 0 0 0 1.725-.077 4.069 4.069 0 0 0 .953-.257 5.946 5.946 0 0 0 .229-.8q.209-.848.276-1.278h.629a25.939 25.939 0 0 0-.248 3.193 13.7 13.7 0 0 1-1.991.124l-5.69-.077q-.123.008-2.496.085z"/><path data-name="パス 22" d="m180.298 40.642-.372.886a9.972 9.972 0 0 1-2.182.815 10.154 10.154 0 0 1-2.326.252 9.75 9.75 0 0 1-2.745-.371 7.135 7.135 0 0 1-2.215-1.063 6.612 6.612 0 0 1-1.549-1.551 6.74 6.74 0 0 1-.916-1.863 7.357 7.357 0 0 1-.315-2.206 6.627 6.627 0 0 1 2.12-5.038 8.114 8.114 0 0 1 5.791-2 12.021 12.021 0 0 1 1.605.1 15.38 15.38 0 0 1 1.8.381q1.063.282 1.3.329a6.242 6.242 0 0 0-.315 1.03 14.391 14.391 0 0 0-.21 1.877h-.6l-.01-1.124a1.682 1.682 0 0 0-1.033-1.391 6.494 6.494 0 0 0-2.75-.458 7.356 7.356 0 0 0-2.3.348 4.42 4.42 0 0 0-1.664 1.04 5.44 5.44 0 0 0-1.177 1.8 7.248 7.248 0 0 0-.467 2.741 6.268 6.268 0 0 0 1.762 4.645 6.311 6.311 0 0 0 4.662 1.758 7.781 7.781 0 0 0 2.42-.362 5.63 5.63 0 0 0 1.516-.781z"/><path data-name="パス 23" d="M182.088 29.395v-.61l2.917.058 2.687-.058v.61a6.833 6.833 0 0 0-1.377.1.634.634 0 0 0-.338.224 2.426 2.426 0 0 0-.143.925q-.01.192-.038 2.707v1.325q1.878.065 4.575.066 2.068 0 3.307-.066v-1.325q0-1.3-.038-2.536a3.007 3.007 0 0 0-.138-1.072.653.653 0 0 0-.352-.248 6.833 6.833 0 0 0-1.377-.1v-.61q2.049.058 2.811.058.286 0 2.783-.058v.61a6.84 6.84 0 0 0-1.372.1.589.589 0 0 0-.334.224 2.266 2.266 0 0 0-.152.925q-.01.19-.038 2.7v4.41q0 1.295.038 2.523a2.959 2.959 0 0 0 .129 1.077.639.639 0 0 0 .357.252 6.853 6.853 0 0 0 1.372.1v.62q-1.84-.077-3.012-.077-1.249 0-2.582.077v-.62a6.846 6.846 0 0 0 1.377-.1.625.625 0 0 0 .338-.224 2.175 2.175 0 0 0 .143-.923q.01-.2.047-2.7V35.59q-2.668-.058-4.05-.058-1.506 0-3.832.058v2.169q0 1.295.029 2.522a2.985 2.985 0 0 0 .138 1.076.639.639 0 0 0 .352.252 6.846 6.846 0 0 0 1.377.1v.62q-1.287-.086-2.649-.086-1.489 0-2.956.086v-.62a6.842 6.842 0 0 0 1.372-.1.625.625 0 0 0 .344-.224 2.438 2.438 0 0 0 .143-.923q.008-.2.037-2.7v-4.41q0-1.295-.028-2.532a3 3 0 0 0-.138-1.072.651.651 0 0 0-.353-.248 6.822 6.822 0 0 0-1.376-.105z"/><path data-name="パス 24" d="m199.357 33.685-.286-.22a11.916 11.916 0 0 0 .725-1.229 7.7 7.7 0 0 0 .495-1.349 11.7 11.7 0 0 0 .315-1.7 16.674 16.674 0 0 0 1.858-.552l.276.229a19.662 19.662 0 0 1-1.234 2.578 13.188 13.188 0 0 1-1.271 1.787z"/><path data-name="パス 25" d="M205.733 39.45h.572a7.148 7.148 0 0 0 .058.877 3.109 3.109 0 0 0 .161.633 1.3 1.3 0 0 0 .353.524 1.854 1.854 0 0 0 .519.334 2.21 2.21 0 0 0 .572.157 7.359 7.359 0 0 0 .882.039 2.424 2.424 0 0 0 1.6-.515 1.731 1.731 0 0 0 .624-1.411 1.277 1.277 0 0 0-.2-.7 1.309 1.309 0 0 0-.561-.477 9.833 9.833 0 0 0-1.578-.448q-1.21-.276-1.563-.4a2.609 2.609 0 0 1-.848-.486 2.038 2.038 0 0 1-.5-.724 2.418 2.418 0 0 1-.187-.954 2.563 2.563 0 0 1 .4-1.386 2.818 2.818 0 0 1 1.243-1.03 4.324 4.324 0 0 1 1.849-.4 6.942 6.942 0 0 1 1.391.166 5.449 5.449 0 0 1 1.287.416q-.067 1.057-.1 2.154h-.542a5.685 5.685 0 0 0-.11-.916 1.566 1.566 0 0 0-.168-.39 1.416 1.416 0 0 0-.362-.367 2.638 2.638 0 0 0-.662-.348 2.851 2.851 0 0 0-.995-.152 1.854 1.854 0 0 0-1.349.495 1.572 1.572 0 0 0-.51 1.162 1.3 1.3 0 0 0 .148.64 1.239 1.239 0 0 0 .4.434 2.576 2.576 0 0 0 .7.3l1.582.391a10 10 0 0 1 1.654.524 1.706 1.706 0 0 1 .729.682 2.125 2.125 0 0 1 .276 1.11 2.934 2.934 0 0 1-1.063 2.245 4.089 4.089 0 0 1-2.844.958 12.9 12.9 0 0 1-2.183-.248 3.5 3.5 0 0 1-.81-.2.112.112 0 0 1-.038-.1.845.845 0 0 1 .019-.162 6.009 6.009 0 0 0 .115-.8q.018-.387.039-1.627z"/></g><path data-name="長方形 4" fill="#000a29" d="M99.607 47.16h112.882v4.643H99.607z"/><g data-name="グループ 6" fill="#fff" stroke="#fff" stroke-miterlimit="10" stroke-width=".08"><path data-name="パス 26" d="m145.733 49.855.261 1.5-.546.1-.261-1.519-1.542.2-.072-.523 1.528-.2-.1-.6-1.145.147-.075-.508 1.134-.147-.142-.85.483-.018c.095-.005.171-.005.171.061 0 .023-.01.033-.052.072-.014.009-.033.028-.028.047l.1.622 1.05-.138.075.508-1.035.133.1.6 1.385-.18.077.527zm1.1-1.714a3.64 3.64 0 0 0-.431-.469l.242-.233a4.076 4.076 0 0 1 .436.469zm.5-.289a3.311 3.311 0 0 0-.432-.465l.243-.238a3.435 3.435 0 0 1 .436.471z"/><path data-name="パス 27" d="M151.412 48.441a5.85 5.85 0 0 1-.955 1.775 4.108 4.108 0 0 1-1.3 1.04l-.517-.418a3.839 3.839 0 0 0 2.155-2.43h-2.526v-.555h2.683a.269.269 0 0 0 .156-.077l.469.427a.578.578 0 0 0-.165.238z"/><path data-name="パス 28" d="M154.615 49.309a2.444 2.444 0 0 1-.3 1.23 2.214 2.214 0 0 1-1.054.882l-.464-.389a1.6 1.6 0 0 0 1.267-1.724h-1.6v-.489h3.585v.489zm-1.5-1.177v-.513h2.3v.513z"/><path data-name="パス 29" d="M157.36 49.67a2.965 2.965 0 0 0-.361-.765l.436-.166a3.057 3.057 0 0 1 .366.765zm2.468-.85c-.043.024-.047.044-.095.228a3.42 3.42 0 0 1-1.771 2.279l-.38-.336a2.9 2.9 0 0 0 1.747-2.45l.465.143c.061.018.095.051.095.084s-.009.028-.061.047zm-1.595.618a3.042 3.042 0 0 0-.338-.77l.422-.161a2.826 2.826 0 0 1 .324.77z"/><path data-name="パス 30" d="M163.952 48.639a5.533 5.533 0 0 1-.844 1.609 4.631 4.631 0 0 1-1.287 1.125l-.518-.356a4.15 4.15 0 0 0 1.486-1.239 3.789 3.789 0 0 0 .627-1.248h-1.215a6.66 6.66 0 0 1-.9 1.058l-.471-.322a4.138 4.138 0 0 0 1.311-1.824l.489.185c.028.01.123.052.123.1s-.051.047-.118.067c-.029.072-.086.166-.133.257h1.063a.476.476 0 0 0 .208-.091l.385.451a.5.5 0 0 0-.206.228z"/><path data-name="パス 31" d="M168.269 51.101a7.563 7.563 0 0 0-1.159-1.187 4.573 4.573 0 0 1-1.623 1.22l-.418-.431a4.215 4.215 0 0 0 1.514-1.026 3.782 3.782 0 0 0 .807-1.3h-1.808v-.55h2.046a.449.449 0 0 0 .247-.1l.364.4a.657.657 0 0 0-.256.284 5.72 5.72 0 0 1-.551 1.064 9.419 9.419 0 0 1 1.258 1.173z"/></g><path data-name="長方形 5" fill="none" stroke="#070607" stroke-miterlimit="10" stroke-width=".33" opacity=".3" d="M186.513 55.047h20.667v9.94h-20.667z"/><path data-name="長方形 6" fill="none" stroke="#000a29" stroke-miterlimit="10" stroke-width=".32" d="M186.513 55.047h20.259v9.531h-20.259z"/><g data-name="グループ 8"><g data-name="グループ 7" fill="#000a29"><path data-name="パス 32" d="M191.512 60.991c-.1-.228-.278-.57-.457-.891v3h-.8v-2.72a6.057 6.057 0 0 1-.721 1.492 3.849 3.849 0 0 0-.4-.785 7 7 0 0 0 1.042-2.4h-.856v-.786h.935v-1.463h.8v1.463h.8v.785h-.8v.393c.207.251.807 1.064.935 1.264zm4.191-2.2a6.873 6.873 0 0 1-1 2.77 3.625 3.625 0 0 0 1.249.857 3.222 3.222 0 0 0-.572.714 4.087 4.087 0 0 1-1.206-.907 4.765 4.765 0 0 1-1.157.879 2.856 2.856 0 0 0-.506-.664 3.587 3.587 0 0 0 1.156-.879 6.6 6.6 0 0 1-.728-1.571 5.957 5.957 0 0 1-.971 3.105 3.168 3.168 0 0 0-.679-.506 6.245 6.245 0 0 0 .879-3.72v-2.013h3.577v.785h-2.764v1.014h2.042l.15-.028zm-2.17.628a5.434 5.434 0 0 0 .636 1.457 5.673 5.673 0 0 0 .592-1.457z"/><path data-name="パス 33" d="M198.472 59.064c.2.285.678 1.056.792 1.243l-.413.592a11.88 11.88 0 0 0-.379-.843v3.045h-.771v-2.605a6.041 6.041 0 0 1-.614 1.349 4.781 4.781 0 0 0-.371-.757 7.351 7.351 0 0 0 .935-2.392h-.764v-.785h.813V56.44h.771v1.471h.686v.785h-.686zm3.912-.835a3.3 3.3 0 0 0 1.17.885 3.157 3.157 0 0 0-.506.6 3.075 3.075 0 0 1-.578-.414v.65h-2.377v-.678a4.379 4.379 0 0 1-.614.428 2 2 0 0 0-.506-.55 3.294 3.294 0 0 0 1.113-.921h-.842v-.642h1.214a2.111 2.111 0 0 0 .106-.293c-.349.02-.706.028-1.035.028a1.822 1.822 0 0 0-.171-.55 19.078 19.078 0 0 0 3.163-.3l.471.55a13.265 13.265 0 0 1-1.62.221 3.289 3.289 0 0 1-.106.343h2.085v.642zm.893 4.091c0 .343-.065.535-.307.656a2.315 2.315 0 0 1-.978.121 3.053 3.053 0 0 0-.2-.628h-.8v.279h-.6v-1.656h1.785v1.32h.2c.086-.006.115-.028.115-.106v-1.492h-2.421l.966 2.287h-.771v-2.92h3.977zm-2.314-4.091c-.064.114-.136.221-.207.329h1.056c-.07-.107-.142-.215-.206-.329zm.771.829h-.943v.385h.943zm-.164 2.513h-.579v.421h.579z"/></g></g><g data-name="グループ 10" transform="translate(41.563 17.726)"><path data-name="パス 34" d="M21.353 27.397 6.411 34.306 0 20.441 44.206.001l6.411 13.865-14.942 6.909 14.608 31.592-14.322 6.623z" fill="#003875"/><g data-name="グループ 9" fill="none" stroke="#fff" stroke-miterlimit="10" stroke-width=".08"><path data-name="パス 35" d="m34.706 51.129 2.309 4.993 10.4-4.81L32.807 19.72l14.942-6.909-4.6-9.943-14.942 6.909-10.4 4.809-1.189.55"/><path data-name="パス 36" d="m10.22 18.095-7.353 3.4 4.6 9.943 14.942-6.909 9.75 21.085"/><path data-name="パス 37" d="m39.066 38.402 5.482 11.855-6.48 3-14.611-31.596L8.515 28.57 5.73 22.548l21.313-9.855 2.917 1.266 4.651-1.969"/><path data-name="パス 38" d="m33.46 9.728 8.638-3.994 2.785 6.022-14.942 6.909 6.6 14.263-1.258 3 1.493 3.458"/></g><circle data-name="楕円形 1" cx=".488" cy=".488" r=".488" transform="translate(31.669 45.201)" fill="#fff"/><path data-name="パス 39" d="M37.077 56.537a.416.416 0 0 1-.416-.416.416.416 0 0 1 .416-.416.416.416 0 0 1 .416.416.416.416 0 0 1-.416.416z" fill="#003875" stroke="#fff" stroke-miterlimit="10" stroke-width=".16"/><circle data-name="楕円形 2" cx=".416" cy=".416" r=".416" transform="translate(37.617 52.839)" fill="#003875" stroke="#fff" stroke-miterlimit="10" stroke-width=".16"/><path data-name="パス 40" d="M47.374 51.579a.416.416 0 0 1-.416-.416.416.416 0 0 1 .416-.416.416.416 0 0 1 .416.416.416.416 0 0 1-.416.416z" fill="#003875" stroke="#fff" stroke-miterlimit="10" stroke-width=".16"/><path data-name="パス 41" d="M44.415 50.623a.414.414 0 0 1-.416-.414.415.415 0 0 1 .416-.416.416.416 0 0 1 .416.416.415.415 0 0 1-.416.414z" fill="#003875" stroke="#fff" stroke-miterlimit="10" stroke-width=".16"/><path data-name="パス 42" d="M10.225 18.519a.415.415 0 0 1-.416-.414.416.416 0 0 1 .416-.416.416.416 0 0 1 .416.416.415.415 0 0 1-.416.414z" fill="#fff"/><path data-name="パス 43" d="M7.525 31.55a.416.416 0 0 1-.416-.416.415.415 0 0 1 .416-.414.415.415 0 0 1 .416.414.416.416 0 0 1-.416.416z" fill="#003875" stroke="#fff" stroke-miterlimit="10" stroke-width=".16"/><circle data-name="楕円形 3" cx=".416" cy=".416" r=".416" transform="translate(21.911 24.428)" fill="#003875" stroke="#fff" stroke-miterlimit="10" stroke-width=".16"/><path data-name="パス 44" d="M32.89 20.072a.416.416 0 0 1-.416-.416.416.416 0 0 1 .416-.416.416.416 0 0 1 .416.416.416.416 0 0 1-.416.416z" fill="#003875" stroke="#fff" stroke-miterlimit="10" stroke-width=".16"/><path data-name="パス 45" d="M47.48 13.217a.415.415 0 0 1-.414-.416.415.415 0 0 1 .414-.416.416.416 0 0 1 .416.416.416.416 0 0 1-.416.416z" fill="#003875" stroke="#fff" stroke-miterlimit="10" stroke-width=".16"/><circle data-name="楕円形 4" cx=".416" cy=".416" r=".416" transform="translate(42.621 2.452)" fill="#003875" stroke="#fff" stroke-miterlimit="10" stroke-width=".16"/><path data-name="パス 46" d="M23.283 22.062a.416.416 0 0 1-.416-.416.416.416 0 0 1 .416-.416.416.416 0 0 1 .416.416.416.416 0 0 1-.416.416z" fill="#003875" stroke="#fff" stroke-miterlimit="10" stroke-width=".16"/><path data-name="パス 47" d="M29.965 19.12a.416.416 0 0 1-.416-.416.416.416 0 0 1 .416-.416.416.416 0 0 1 .416.416.416.416 0 0 1-.416.416z" fill="#003875" stroke="#fff" stroke-miterlimit="10" stroke-width=".16"/><path data-name="パス 48" d="M44.882 12.098a.416.416 0 0 1-.416-.416.416.416 0 0 1 .416-.416.416.416 0 0 1 .416.416.416.416 0 0 1-.416.416z" fill="#003875" stroke="#fff" stroke-miterlimit="10" stroke-width=".16"/><circle data-name="楕円形 5" cx=".416" cy=".416" r=".416" transform="translate(41.665 5.319)" fill="#003875" stroke="#fff" stroke-miterlimit="10" stroke-width=".16"/><path data-name="パス 49" d="M2.976 21.949a.416.416 0 0 1-.416-.416.416.416 0 0 1 .416-.416.415.415 0 0 1 .414.416.415.415 0 0 1-.414.416z" fill="#003875" stroke="#fff" stroke-miterlimit="10" stroke-width=".16"/><path data-name="パス 50" d="M16.6 15.551a.416.416 0 0 1-.416-.416.416.416 0 0 1 .416-.416.416.416 0 0 1 .416.416.416.416 0 0 1-.416.416z" fill="#fff"/><path data-name="パス 51" d="M34.615 12.405a.416.416 0 0 1-.416-.416.415.415 0 0 1 .416-.414.415.415 0 0 1 .416.414.416.416 0 0 1-.416.416z" fill="#fff"/><path data-name="パス 52" d="M33.46 10.14a.416.416 0 0 1-.416-.416.416.416 0 0 1 .416-.416.416.416 0 0 1 .416.416.416.416 0 0 1-.416.416z" fill="#fff"/><path data-name="パス 53" d="M36.771 39.799a.416.416 0 0 1-.416-.416.416.416 0 0 1 .416-.416.416.416 0 0 1 .416.416.416.416 0 0 1-.416.416z" fill="#fff"/><circle data-name="楕円形 6" cx=".416" cy=".416" r=".416" transform="translate(38.572 37.987)" fill="#fff"/><path data-name="パス 54" d="M34.633 51.579a.416.416 0 0 1-.416-.416.416.416 0 0 1 .416-.416.415.415 0 0 1 .414.416.415.415 0 0 1-.414.416z" fill="#fff"/></g></g></g></svg>