<svg xmlns="http://www.w3.org/2000/svg" viewBox="0 0 202.66 58.14"><defs><style>.cls-1{fill:#ff3e0d;stroke:#000;stroke-miterlimit:10;}.cls-2{fill:#f6262c;}.cls-3{fill:#e4ff7b;}</style></defs><g id="レイヤー_2" data-name="レイヤー 2"><g id="レイヤー_1-2" data-name="レイヤー 1"><path class="cls-1" d="M82.05,27.56h0a8.53,8.53,0,0,0-1.52-.72l-1.34-.48-.89,1.12a20.48,20.48,0,0,1-4.59,4.45,6.73,6.73,0,0,1-3.59,1.2A1.32,1.32,0,0,1,69.4,33a1.6,1.6,0,0,1-.13-.79,7.39,7.39,0,0,1,.33-2.06,22.44,22.44,0,0,1,.86-2.43c.34-.79.68-1.49,1-2.09a9.48,9.48,0,0,1,.69-1.13l1.26-1.63-1.67-1.21a7,7,0,0,0-1.92-.93c-1.85-.62-3.26-.51-4.24.24a4.38,4.38,0,0,0-1.22,1.67c-.27.61-.55,1.36-.86,2.28s-.58,1.86-.85,2.89l0,.12A19.81,19.81,0,0,1,61,29.71a14.28,14.28,0,0,1-2.29,1.85,13,13,0,0,1-2.45,1.28,5.85,5.85,0,0,1-2.11.43,1.74,1.74,0,0,1-1.22-.39,4,4,0,0,1-1-1.64,14.33,14.33,0,0,1-.76-3.4A42.23,42.23,0,0,1,50.87,23a2.93,2.93,0,0,0-.86-2,5.27,5.27,0,0,0-1.2-1,7.26,7.26,0,0,0-1.29-.61,4.55,4.55,0,0,0-1.54-.3,3.42,3.42,0,0,0-2.51,1.49c-.48.56-1,1.29-1.68,2.15s-1.26,1.76-2,2.76S38.59,27.22,38,28.08q0-1.44.09-2.64c0-.86,0-1.48,0-1.86a3.63,3.63,0,0,0-.57-2,3.07,3.07,0,0,0-2.78-1.29,9.35,9.35,0,0,0-1.37.11l-.61.11c0-.62.06-1.24.06-1.88A50.76,50.76,0,0,0,32.52,13a34.07,34.07,0,0,0-.87-4.8h0a13.2,13.2,0,0,0-1.48-3.63,3.85,3.85,0,0,0-3.27-2,5.67,5.67,0,0,0-2.75.82,8.68,8.68,0,0,0-2.26,1.79l-.9,1,.61,1.21,1,2a18,18,0,0,1,1,2.72A32.31,32.31,0,0,1,24.52,16a31.21,31.21,0,0,1,.38,5.24,20.54,20.54,0,0,1-.77,5.79,14.87,14.87,0,0,1-2.05,4.37,9.13,9.13,0,0,1-2.88,2.65,6.71,6.71,0,0,1-3.39.89,6.21,6.21,0,0,1-3.2-.75A6,6,0,0,1,10.49,32a13.09,13.09,0,0,1-1.37-4.13,34.23,34.23,0,0,1-.47-6c0-.92,0-1.75.08-2.49s.13-1.34.2-1.78c0-.23.09-.46.13-.67a4.57,4.57,0,0,0,1.2-1,4.7,4.7,0,0,0,.92-3.13A8.22,8.22,0,0,0,10,8.12,4.23,4.23,0,0,0,6.42,6a3.84,3.84,0,0,0-2.93,1.5,9.58,9.58,0,0,0-1.65,3.18,24.66,24.66,0,0,0-1,4.61A47.86,47.86,0,0,0,.5,21.55a41.12,41.12,0,0,0,.84,9A18,18,0,0,0,4,36.94a11.29,11.29,0,0,0,4.77,3.93A15.59,15.59,0,0,0,15,42.05a15.76,15.76,0,0,0,13.41-6.93,21.84,21.84,0,0,0,2.15-4v.11c.05,1.16.07,2.25.07,3.28a7.27,7.27,0,0,0,.58,3.42c.41.77,1.34,1.69,3.45,1.69a5.85,5.85,0,0,0,5.28-3.15q1.58-2.39,3.28-4.93l.33-.48q.11.6.24,1.14a12.72,12.72,0,0,0,1.9,4.49A7.73,7.73,0,0,0,49,39.39a10.79,10.79,0,0,0,4.21.76,12.31,12.31,0,0,0,4.14-.72A18.81,18.81,0,0,0,61,37.64c.41-.25.81-.51,1.21-.79a5.23,5.23,0,0,0,3,2.83,8,8,0,0,0,2.85.47,13.62,13.62,0,0,0,4.18-.66A18.72,18.72,0,0,0,76,37.81a24.26,24.26,0,0,0,3.37-2.39,32.42,32.42,0,0,0,2.86-2.72l.64-.79a2.93,2.93,0,0,0-.86-4.35Z"/><path class="cls-1" d="M68.31,18a5.15,5.15,0,0,0,2.52-.63A6.77,6.77,0,0,0,72.54,16a6.34,6.34,0,0,0,1.1-1.65,4.39,4.39,0,0,0,.41-1.77c0-2.23-1.56-3.67-4-3.67A5.18,5.18,0,0,0,68,9.34a5.74,5.74,0,0,0-1.7,1.11A5.32,5.32,0,0,0,65.1,12.1a4.84,4.84,0,0,0-.46,2.1,3.75,3.75,0,0,0,1,2.66A3.59,3.59,0,0,0,68.31,18Z"/><path class="cls-1" d="M152.07,17.83a5.26,5.26,0,0,0,2.52-.63,6.65,6.65,0,0,0,1.71-1.33,6.25,6.25,0,0,0,1.1-1.65,4.42,4.42,0,0,0,.42-1.78c0-2.23-1.57-3.67-4-3.67a5.19,5.19,0,0,0-2.09.44,5.55,5.55,0,0,0-1.7,1.11A5.2,5.2,0,0,0,148.86,12a5,5,0,0,0-.46,2.1,3.73,3.73,0,0,0,1,2.66A3.54,3.54,0,0,0,152.07,17.83Z"/><path class="cls-1" d="M158.64,33.14h0a5,5,0,0,0-1.69-1l-1.08-.39-.88.74a10.65,10.65,0,0,1-2,1.42,3,3,0,0,1-1.37.32.45.45,0,0,1-.15-.11,2.75,2.75,0,0,1-.18-1.27,9.35,9.35,0,0,1,.3-2.17,21,21,0,0,1,.81-2.58c.32-.85.65-1.61,1-2.29a7.08,7.08,0,0,1,.61-1.12l1.27-1.63-1.67-1.22a13.54,13.54,0,0,0-1.46-.9,4.09,4.09,0,0,0-4.43,0,4.28,4.28,0,0,0-1.22,1.67,24.63,24.63,0,0,0-.87,2.38c-.29.94-.57,2-.83,3-.11.48-.21.95-.3,1.43l-.23.24a15.21,15.21,0,0,1-2.29,1.85,13.36,13.36,0,0,1-2.45,1.28,5.94,5.94,0,0,1-2.12.43,1.71,1.71,0,0,1-1.21-.39,4.08,4.08,0,0,1-1.05-1.64,14.84,14.84,0,0,1-.76-3.4A42.23,42.23,0,0,1,134,23a2.91,2.91,0,0,0-.85-2,5.5,5.5,0,0,0-1.2-1,7.61,7.61,0,0,0-1.29-.61,4.55,4.55,0,0,0-1.54-.3,3.42,3.42,0,0,0-2.51,1.49c-.49.56-1.05,1.29-1.68,2.15s-1.26,1.76-2,2.76-1.24,1.76-1.86,2.62c0-1,0-1.84.08-2.64s0-1.48,0-1.86a3.63,3.63,0,0,0-.57-2,3.08,3.08,0,0,0-2.78-1.29,9.35,9.35,0,0,0-1.37.11l-.61.11c0-.62,0-1.24,0-1.88a50.82,50.82,0,0,0-.3-5.64,34.07,34.07,0,0,0-.87-4.8h0a12.89,12.89,0,0,0-1.49-3.63,3.83,3.83,0,0,0-3.26-2,5.61,5.61,0,0,0-2.75.82,8.36,8.36,0,0,0-2.26,1.79l-.9,1,.6,1.21c.27.54.61,1.22,1,2a18,18,0,0,1,1,2.72A30.41,30.41,0,0,1,107.7,16a32.3,32.3,0,0,1,.38,5.24,20.17,20.17,0,0,1-.78,5.79,14.38,14.38,0,0,1-2,4.37,9.13,9.13,0,0,1-2.88,2.65A6.68,6.68,0,0,1,99,35a6.17,6.17,0,0,1-3.19-.75A5.9,5.9,0,0,1,93.67,32a12.84,12.84,0,0,1-1.38-4.13,34.3,34.3,0,0,1-.46-6c0-.92,0-1.75.08-2.49a17.29,17.29,0,0,1,.2-1.78c0-.23.08-.46.13-.67a4.57,4.57,0,0,0,1.2-1,4.75,4.75,0,0,0,.91-3.13,8.22,8.22,0,0,0-1.2-4.68A4.23,4.23,0,0,0,89.6,6a3.82,3.82,0,0,0-2.93,1.5A9.23,9.23,0,0,0,85,10.66a25.41,25.41,0,0,0-1,4.61,49.83,49.83,0,0,0-.35,6.28,41.81,41.81,0,0,0,.83,9,18.18,18.18,0,0,0,2.69,6.44A11.27,11.27,0,0,0,92,40.87a15.63,15.63,0,0,0,6.21,1.18,15.76,15.76,0,0,0,13.42-6.93,21.84,21.84,0,0,0,2.15-4v.11c0,1.16.07,2.25.07,3.28a7.29,7.29,0,0,0,.57,3.42c.41.77,1.35,1.69,3.46,1.69a5.85,5.85,0,0,0,5.27-3.15q1.58-2.39,3.29-4.93l.33-.48c.07.4.15.78.23,1.14a13.1,13.1,0,0,0,1.9,4.49,7.76,7.76,0,0,0,3.31,2.71,10.76,10.76,0,0,0,4.21.76,12.36,12.36,0,0,0,4.14-.72,18.81,18.81,0,0,0,3.7-1.79l0,0a7.09,7.09,0,0,0,.64,1.36,4.86,4.86,0,0,0,4.39,2.3,13.07,13.07,0,0,0,4.27-.72A23.35,23.35,0,0,0,157.16,39a4.39,4.39,0,0,0,2.09-1.79,3.58,3.58,0,0,0,.46-1.72A3.13,3.13,0,0,0,158.64,33.14Z"/><path d="M10.33,56.78a6.55,6.55,0,0,0-2.46-1.35,2.41,2.41,0,0,1,0,.31c0,1.28-1.2,1.38-1.68,1.38-1.33,0-2.29-.7-2.29-1.47s1.31-1.36,2.18-1.36a5.6,5.6,0,0,1,.87.07c0-.16,0-.22,0-.32s0-.88,0-1a15.26,15.26,0,0,1-2,0c-.17,0-.79-.1-.79-.6s.37-.71,1.19-1.23l.53.48c-.29.17-.55.31-.55.44a.2.2,0,0,0,.17.19,4.4,4.4,0,0,0,.74,0l.72,0c0-.44,0-.55,0-1.6a26.39,26.39,0,0,0-3.11.18v-.94H6.82c0-.6,0-1.13-.05-1.46l1.2.09s.19,0,.19.14-.1.18-.32.29c0,.34,0,.57,0,.94h2.92v.92a19,19,0,0,0-3-.16c0,.57,0,1,0,1.55a13.26,13.26,0,0,0,2.58-.48v.88A13.57,13.57,0,0,1,7.76,53c0,.24.06,1.31.07,1.53a7.3,7.3,0,0,1,2.92,1.26ZM6,55.09c-.34,0-1.1.17-1.1.64s.55.56,1,.56c.2,0,.87-.06,1-.54a1.28,1.28,0,0,0,0-.54A5.77,5.77,0,0,0,6,55.09Z"/><path d="M17.72,50.9a13.12,13.12,0,0,1-2,.42c-.14.43-.76,2.33-.9,2.7-.51,1.35-.92,2.23-1.28,3l-1.07-.39a16.5,16.5,0,0,0,2.2-5.17,5.82,5.82,0,0,1-1,.07c-.34,0-.58,0-.84,0v-1a9.47,9.47,0,0,0,1.18.1,6.19,6.19,0,0,0,.88-.08,14.56,14.56,0,0,0,.34-2.23l1.2.17c.18,0,.26.06.26.19s-.08.18-.33.23c-.19.66-.23.85-.4,1.52a6,6,0,0,0,1.79-.53Zm2.48,6c-.41,0-.76,0-1,0-2.12,0-2.5-.15-2.84-.36A.77.77,0,0,1,16,56a2.26,2.26,0,0,1,.71-1.41l.77.39c-.23.22-.53.52-.53.74,0,.42,1.33.42,1.71.42A5.6,5.6,0,0,0,20.38,56Zm.2-4.22a4.5,4.5,0,0,0-1.47-.17,8.35,8.35,0,0,0-1.83.16l.07-.88c.34,0,.84,0,1.57,0s1.18,0,1.67,0Zm-1.15-2.39a3.52,3.52,0,0,0-1-1.09l.59-.52a3.06,3.06,0,0,1,1,1.13Zm1.39-.64a3.25,3.25,0,0,0-1-.95l.58-.48a4.55,4.55,0,0,1,.93,1Z"/><path d="M24.85,50.56H23.71c-.24,0-.86,0-1.32.07v-.88c.42,0,1,0,1.32,0h1.14c.28,0,.88,0,1.31,0v.88C25.77,50.59,25.11,50.56,24.85,50.56ZM25,57.33c0-.18,0-.2,0-.36H23.7c0,.25,0,.28,0,.51h-1c.05-.71.06-.87.06-1.26v-1c0-.71,0-.78,0-1.18l1,0H25.6l.32,0c0,.24,0,.83,0,1.07v1c0,.38,0,.54,0,1.2Zm4.67-.42H27.8c0,.26,0,.29,0,.57h-1c0-.49.13-3,.13-3.56V51.63a2.74,2.74,0,0,1-.67.83l-.8-.41.12-.09H23.82a6.9,6.9,0,0,0-1,0v-.94a7,7,0,0,0,1,.09h1a6.31,6.31,0,0,0,1-.09v.49a7.34,7.34,0,0,0,1.37-3.42l1,.23c.06,0,.21,0,.21.15s-.14.13-.28.17A6.74,6.74,0,0,1,27.74,50h1.12a5.21,5.21,0,0,0,.55-1.85l1,.26c.08,0,.18.05.18.14s0,.08-.24.15c-.15.41-.52,1.18-.58,1.29a14.21,14.21,0,0,0,1.86-.08v.89h-1.8v1.14c.49,0,1.05,0,1.54-.08v1c-.48,0-.58,0-1.54-.09v1.19c.49,0,1.05,0,1.54-.07v1a13,13,0,0,0-1.54-.09v1.3a14.22,14.22,0,0,0,1.91-.1v.95Zm-4.76-3.54h-1a7,7,0,0,0-1,.06V52.5a7,7,0,0,0,1,.09h1a6.27,6.27,0,0,0,1-.09v.93A7.2,7.2,0,0,0,24.87,53.37Zm0-4.13h-1a5.82,5.82,0,0,0-1,.06v-.94a5.88,5.88,0,0,0,1,.09h1a6.17,6.17,0,0,0,1-.09v.94A6.11,6.11,0,0,0,24.87,49.24ZM25,54.93H23.68v1.29H25Zm3.93-4.19H27.78v1.15h1.15Zm0,2H27.78v1.21h1.15Zm0,2.05H27.78v1.31h1.15Z"/><path d="M38.36,57.39c-1.56,0-2.82-.84-2.82-2.27a6.77,6.77,0,0,1,.24-1.42c-1.86-.22-2.14-.57-2.14-1s.83-.94,1.54-1.22l.47.58-.64.31a.24.24,0,0,0-.09.17c0,.23.85.33,1.08.36.27-1,.3-1.07.54-1.82a14.31,14.31,0,0,1-1.86-.41l.12-.9a18.58,18.58,0,0,0,2,.49c.33-1,.36-1.15.65-2.21l1.26.38c.09,0,.11.08.11.13a.15.15,0,0,1-.11.15l-.26.12a8.31,8.31,0,0,0-.66,1.58c.12,0,.41,0,.81,0a6.13,6.13,0,0,0,1-.07l-.26.86-.48,0c-.38,0-.91,0-1.35-.05-.31.84-.45,1.32-.57,1.75.19,0,.59,0,1,0a9.25,9.25,0,0,0,1.36-.1l-.28.92c-.2,0-.42,0-.83,0a11.14,11.14,0,0,1-1.41-.08,6.06,6.06,0,0,0-.16,1.12,1.63,1.63,0,0,0,1.81,1.56,1.94,1.94,0,0,0,2.07-1.84,2.75,2.75,0,0,0-.77-1.83l.85-.5a4.17,4.17,0,0,1,.91,2.31A2.88,2.88,0,0,1,38.36,57.39Z"/><path d="M48.26,56.83a5.85,5.85,0,0,1-1.82-2,5.48,5.48,0,0,1-2.19,2.53l-1-.66a4.16,4.16,0,0,0,2-1.68,5,5,0,0,0,.68-1.81h-.57a17.14,17.14,0,0,0-1.76.08v-1c.6.07,1.49.09,1.76.09H46c0-.15,0-.43,0-.74A7.82,7.82,0,0,0,46,50.52H45a3.73,3.73,0,0,1-.76,1l-.91-.51a5.21,5.21,0,0,0,1.05-1.33,8.66,8.66,0,0,0,.55-1.67l1.09.38a.16.16,0,0,1,.11.15c0,.14-.18.17-.37.2-.07.2-.15.39-.36.92h1.91a10.64,10.64,0,0,0,1.38-.08v1a10.66,10.66,0,0,0-1.38-.09H47a5.79,5.79,0,0,1,0,.77c0,.43,0,.66,0,1,.4,0,1.25,0,1.89-.09v1a17.61,17.61,0,0,0-1.78-.09h-.22c0,.19,0,.22-.06.32a4.87,4.87,0,0,0,1.25,1.86,3.93,3.93,0,0,0,.84.71Zm3.39.13c0-.06.06-.56.09-.88H50.08c0,.33.06.89.08,1H49c.13-.72.15-3.09.15-3.23V51.31c0-1,0-1.5,0-1.88l1.25,0h1.21c.29,0,.88,0,1.15,0a16.42,16.42,0,0,0-.06,1.89v2.52c0,1,.07,2.73.13,3.11Zm.09-6.64H50.08v4.87h1.66Z"/><path d="M60.8,56.36c-.86.56-1.71.68-3.76.78l-.49-1.07a25.5,25.5,0,0,0,2.66-.1A1.91,1.91,0,0,0,61,54.27a1.33,1.33,0,0,0-1.46-1.36,4,4,0,0,0-2.88,1.63l-1-.4c0-.21.14-1.08.17-1.27.12-.83.29-1.9.46-2.67l1.12.26c.09,0,.21.06.21.18s-.1.14-.15.16L57.2,51a15.55,15.55,0,0,0-.48,2.19A4.69,4.69,0,0,1,59.59,52,2.23,2.23,0,0,1,62,54.24,2.36,2.36,0,0,1,60.8,56.36Zm-1-6.11a7.4,7.4,0,0,0-2.93-.87l.34-.93a10.69,10.69,0,0,1,3,.82Z"/><path d="M69.16,50.63a9.73,9.73,0,0,1-1.73.32,25,25,0,0,1-2.05,4.39l-1-.51a14.64,14.64,0,0,0,2-3.8,11.13,11.13,0,0,1-1.41,0l-.08-.94a5.56,5.56,0,0,0,1.1.1,6.64,6.64,0,0,0,.7,0,11,11,0,0,0,.48-2l1.09.26c.23.06.25.07.25.15s0,.11-.31.23c-.27.77-.32.89-.44,1.2a8.41,8.41,0,0,0,1.51-.33Zm2.92,1.47a3.11,3.11,0,0,0-.79-.1c-1.21,0-1.48.5-1.48,1.09a5.1,5.1,0,0,0,.27,1.39.93.93,0,0,0,0,.14,7.69,7.69,0,0,1,2.17,1l-.58.86a5.62,5.62,0,0,0-1.46-.91A1.63,1.63,0,0,1,70,56.7a1.88,1.88,0,0,1-1.47.54c-1.12,0-2.08-.64-2.08-1.54,0-.68.55-1.37,2-1.37a5.32,5.32,0,0,1,.74.07,7,7,0,0,1-.28-1.46,1.49,1.49,0,0,1,.35-1,2.33,2.33,0,0,1,1.71-.53A3.64,3.64,0,0,0,69.5,51L70,50.2a6.4,6.4,0,0,1,2.53,1.13ZM69.2,55.28a3.08,3.08,0,0,0-.85-.15c-.62,0-1,.21-1,.62s.72.64,1.11.64c.57,0,.79-.31.79-.71A2.18,2.18,0,0,0,69.2,55.28Z"/><path d="M77.13,56.37a1.78,1.78,0,0,1-1.2-.73A5.11,5.11,0,0,1,74.8,52c0-.41,0-.59.21-2.28,0,0,0-.23,0-.27l.95.33c.21.08.32.12.32.22s-.11.15-.26.22a7.18,7.18,0,0,0-.24,1.85c0,1.7.71,3,1.21,3s.81-1.17.92-1.73l.61.63C78.34,54.91,77.92,56.37,77.13,56.37Zm5.08-2.16a6.62,6.62,0,0,0-.63-2.58,6.76,6.76,0,0,0-1-1.66l1-.45a9.5,9.5,0,0,1,1.82,4.34Z"/><path d="M87.19,57.32A6.83,6.83,0,0,0,85,55.19l.71-.71a9.79,9.79,0,0,1,2.24,2Z"/><path d="M96.85,56.64c-2.13,0-3.79-.19-3.79-1.64a2.59,2.59,0,0,1,1.06-1.82l.66.59A2,2,0,0,0,94,54.93c0,.86,1.58.86,2.1.86a20.27,20.27,0,0,0,2.8-.19,7.62,7.62,0,0,0,1.12-.23l.09,1.11C98.51,56.6,97.92,56.64,96.85,56.64Zm-1.18-6.49a14.28,14.28,0,0,1-1.7-.07l-.19-1a16.45,16.45,0,0,0,2.52.19A13.64,13.64,0,0,0,99.19,49v1A28.81,28.81,0,0,1,95.67,50.15Z"/><path d="M109.91,56.56a1,1,0,0,1-1-1.13c0-.24,0-.35.07-1.3,0-.16.07-1.32.07-2.11,0-.48,0-.79-.34-1a.6.6,0,0,0-.34-.1c-1.16,0-2.38,1.76-2.57,2v1.53c0,.92.09,1.92.15,2.61h-1.18c0-.42.15-2,.15-2.71-.15.24-.82,1.32-1,1.55l-.88-.51A23.06,23.06,0,0,0,105,52.74v-.91a9.62,9.62,0,0,0-1.56.63l-.34-1a10.4,10.4,0,0,0,1.9-.56c0-.87,0-1,0-1.91,0-.17,0-.44,0-.53l1.4.16c.11,0,.15.06.15.13s-.13.18-.43.26c-.05.54-.05.54-.11,1.52l.19-.11.63.49a3.28,3.28,0,0,0-.47.62c.16-.11.23-.18,1-.81a2.48,2.48,0,0,1,1.54-.62c1.32,0,1.32,1.33,1.32,1.83,0,.69-.08,1.68-.09,1.78s-.07.78-.07.9,0,.75.36.75a.65.65,0,0,0,.52-.23,4.64,4.64,0,0,0,.6-.63l.11,1.13A2.67,2.67,0,0,1,109.91,56.56Z"/><path d="M119,55.83a1.37,1.37,0,0,1-1.45.92,2.7,2.7,0,0,1-.92-.15l-.16-1.08a2.21,2.21,0,0,0,1,.28c.26,0,.56,0,.84-.82a7.43,7.43,0,0,0,.48-2.4c0-.69-.17-1-.66-1a5.73,5.73,0,0,0-1,.14,15.27,15.27,0,0,1-2.25,5l-1-.45A8.94,8.94,0,0,0,116,51.92c-.4.08-1.37.33-1.75.45l-.35-1A15.18,15.18,0,0,0,116.2,51a9,9,0,0,0,.24-2.3l1,.1c.08,0,.43,0,.43.23s-.07.15-.33.37l-.3,1.4a8.25,8.25,0,0,1,1.15-.09c1.07,0,1.32.9,1.32,1.77A8.82,8.82,0,0,1,119,55.83Zm1.94-2-.71-.92c.86,0,1-.13,1-.44a1,1,0,0,0-.22-.57,11.31,11.31,0,0,0-1.24-1.44l.74-.47a13.08,13.08,0,0,1,1.16,1.27,2.05,2.05,0,0,1,.61,1.35C122.26,53.5,121.32,53.7,120.93,53.78Z"/><path d="M130.4,56.36c-.86.56-1.71.68-3.76.78l-.49-1.07a25.29,25.29,0,0,0,2.65-.1,1.91,1.91,0,0,0,1.77-1.7,1.34,1.34,0,0,0-1.47-1.36,4,4,0,0,0-2.87,1.63l-1-.4c0-.21.13-1.08.17-1.27.12-.83.29-1.9.46-2.67l1.11.26c.1,0,.21.06.21.18s-.09.14-.14.16l-.27.15a15.55,15.55,0,0,0-.48,2.19,4.69,4.69,0,0,1,2.87-1.1,2.23,2.23,0,0,1,2.39,2.2A2.36,2.36,0,0,1,130.4,56.36Zm-1-6.11a7.4,7.4,0,0,0-2.93-.87l.34-.93a10.69,10.69,0,0,1,3,.82Z"/><path d="M140.18,56.78l-.79-.87a4.26,4.26,0,0,0,2.3-1.19,3.67,3.67,0,0,0,.79-2.33A2.69,2.69,0,0,0,140.87,50a2.73,2.73,0,0,0-1.42-.3,17.71,17.71,0,0,1-1.3,5c-.2.42-.72,1.55-1.31,1.55a1.33,1.33,0,0,1-.88-.36,3.55,3.55,0,0,1-1.27-2.79,4.13,4.13,0,0,1,1.13-2.86,4.43,4.43,0,0,1,3.41-1.46,4.16,4.16,0,0,1,3.26,1.29,3.68,3.68,0,0,1,.94,2.49A4.27,4.27,0,0,1,140.18,56.78Zm-2-7a3.43,3.43,0,0,0-2.61,3.33c0,.92.57,1.9,1,1.9s.64-.62.76-.9a14.68,14.68,0,0,0,1.12-4.36Z"/><path d="M147.55,50.53H146.3c-.41,0-1.09,0-1.3.06v-.87c.18,0,.85.05,1.3.05h1.25c.43,0,1,0,1.44-.05v.87C148.32,50.55,147.85,50.53,147.55,50.53Zm.14,6.84c0-.19,0-.27,0-.44H146.2c0,.31,0,.35,0,.49h-.88c0-.15,0-.81,0-.94V55.4c0-.56,0-1.1,0-1.4.24,0,.83,0,1.16,0h.79c.36,0,1.07,0,1.29,0-.05.44-.07,1.21-.07,1.31v.93c0,.18.06,1,.07,1.13Zm-.23-3.95h-1a7.27,7.27,0,0,0-1.05.08v-.91a8,8,0,0,0,1.05.08h1a8,8,0,0,0,1.09-.08v.91A8.93,8.93,0,0,0,147.46,53.42Zm0-1.39h-1a5,5,0,0,0-1,.09v-.95a6.11,6.11,0,0,0,1,.09h1a7.24,7.24,0,0,0,1.09-.09v.95A7,7,0,0,0,147.46,52Zm0-2.82h-1.05a6.71,6.71,0,0,0-1,0v-.93a6.12,6.12,0,0,0,1,.09h1.05a5.29,5.29,0,0,0,1-.09v.93A7.31,7.31,0,0,0,147.47,49.21Zm.25,5.57h-1.54v1.31h1.54Zm4.81-3h-.38v1.47h.41a13.7,13.7,0,0,0,1.48-.09,14.69,14.69,0,0,0-.11,1.62V56a9.2,9.2,0,0,0,.11,1.39h-1.1c0-.15.05-.26.07-.49h-2.59a2,2,0,0,0,.05.48h-1c0-.45.05-.92.05-1.32V54.83c0-.56,0-1.11-.05-1.67a8.81,8.81,0,0,0,1.46.09h.39V51.78h-.48a16.56,16.56,0,0,0-1.73.09v-1c.59.07,1.46.09,1.73.09h.48V49.47a14,14,0,0,1-1.53.17l-.55-.87a11.61,11.61,0,0,0,2.1-.17,5,5,0,0,0,1.74-.61l.88.64a.17.17,0,0,1,.07.14.14.14,0,0,1-.14.12l-.29,0a8.84,8.84,0,0,1-1.42.46v1.64h.38a16.9,16.9,0,0,0,1.74-.09v1C153.52,51.79,152.58,51.78,152.53,51.78Zm.5,2.31H150.4v2H153Z"/><path d="M202.18,24.91a.88.88,0,0,1,.28,1.36,1.92,1.92,0,0,1-.57.53c-.15.1-.21.17-.1.36a.93.93,0,0,1-.24,1.35,2.73,2.73,0,0,1-2.2.62.89.89,0,0,1-.6-.35,3.47,3.47,0,0,0-.89-.73c-.26-.18-.33-.08-.4.16a15.24,15.24,0,0,0-.31,1.77,5.22,5.22,0,0,1-1,2.71,6.62,6.62,0,0,1-.78.81,11,11,0,0,0-1.95,2.25,2.29,2.29,0,0,0-.41,2,6.75,6.75,0,0,0,.21.68,4.8,4.8,0,0,1,.33,2.12c0,.9-.4,1.23-1.29,1.11l.12,1.22a36.31,36.31,0,0,1,.06,5.42c-.07,1.83-.07,3.66-.1,5.5,0,.18.08.26.23.33a3.67,3.67,0,0,1,1.83,2.13,1.48,1.48,0,0,1,.1.36c.14.79-.15,1.19-.94,1.37a3.7,3.7,0,0,1-3.61-1.2,6.18,6.18,0,0,1-.68-.85,1.43,1.43,0,0,1-.25-1.16,6.44,6.44,0,0,0-.1-1.75,40.68,40.68,0,0,0-1.62-8.32,10.08,10.08,0,0,0-1.45-2.94,3.87,3.87,0,0,0-2.44-1.62,6.63,6.63,0,0,0-4.51.46,3.88,3.88,0,0,0-1.77,1.72,15.29,15.29,0,0,0-1.67,3.82c-.25,1.35-.5,2.7-.64,4.07a5.24,5.24,0,0,1-.25,1.31,6.27,6.27,0,0,0-.39,2.54,3.14,3.14,0,0,1-.66,2.1c-.75.94-2.41,2.06-3.93,1.65-.79-.21-1.05-.63-.74-1.38a5.29,5.29,0,0,1,1.47-2,.45.45,0,0,0,.18-.47,41.48,41.48,0,0,1-.09-11.67c.07-.45.16-.89.24-1.33a.49.49,0,0,0-.55-.55,2.21,2.21,0,0,1-.37,0c-.64,0-.93-.27-.95-.92a1.91,1.91,0,0,1,.36-1.24,5,5,0,0,0,.87-2.86,49.79,49.79,0,0,1,1.4-8.66c.31-1.2.4-2.44.64-3.65a6,6,0,0,1,.19-.84c.1-.29.08-.39-.27-.36a19.74,19.74,0,0,1-6.12-.66,6.44,6.44,0,0,1-3.27-2.07c-1.5-1.7-1.44-3.64-.74-5.59a8.49,8.49,0,0,1,5.4-5.25,51.55,51.55,0,0,0,6.94-3.14,2.66,2.66,0,0,0,1.53-2.12,3.17,3.17,0,0,1,.64-1.69.72.72,0,0,1,1.12-.2c.22.14.19,0,.23-.14a1.24,1.24,0,0,1,1.34-.9c.28,0,.47.29.68.26s.33-.35.59-.42a.67.67,0,0,1,.57.05.41.41,0,0,0,.5,0c.5-.28,1-.1,1.27.47.13.24.19.33.46.11a1,1,0,0,1,1.75.56,7.92,7.92,0,0,1,.18,1.82c0,.29.11.37.41.34a2,2,0,0,1,2.37,2c0,.14,0,.29.19.35a1.28,1.28,0,0,1,.9,1.13,3.17,3.17,0,0,1,0,1.19c0,.13,0,.22.11.31a2.5,2.5,0,0,1,1.25,2.69c-.05.25,0,.34.23.44a2.15,2.15,0,0,1,1.1,3.09c-.1.15-.07.24,0,.36a2.07,2.07,0,0,1,.63,2.27.3.3,0,0,0,.12.32,2.46,2.46,0,0,1,.55,2.3,1.21,1.21,0,0,1-.69.76.32.32,0,0,0-.19.38,63.08,63.08,0,0,1,.81,8.12C193,31.11,193,33,193,35c0,.09,0,.18.06.27a.81.81,0,0,0,.33-.36A9,9,0,0,1,195,33a4.05,4.05,0,0,0,1.38-2.54,14.86,14.86,0,0,1,.36-2.1,5.44,5.44,0,0,0,.23-2,2.85,2.85,0,0,1,.94-2.28A.72.72,0,0,1,199,24c.16.11.23,0,.32-.07a2.58,2.58,0,0,1,1.41-.56,1,1,0,0,1,1.14,1.08C201.85,24.67,201.88,24.81,202.18,24.91ZM201.72,26c.09-.09.2-.19.13-.32s-.2-.08-.3-.06-.33.11-.5.16a.39.39,0,0,1-.4-.66,1.52,1.52,0,0,0,.41-.43.5.5,0,0,0,0-.5c-.09-.16-.26-.11-.4-.1a1.47,1.47,0,0,0-.64.21,3.31,3.31,0,0,0-.89.78c-.24.28-.57.24-.69-.07a2.56,2.56,0,0,1-.07-.36,2.44,2.44,0,0,0-.65,2.61.2.2,0,0,0,.18.15,1.93,1.93,0,0,1,1.31.79.48.48,0,0,0,.41.22,2,2,0,0,0,1.24-.32c.14-.1.33-.18.31-.39s-.2-.23-.35-.3-.4-.17-.4-.43.22-.37.43-.45A2.49,2.49,0,0,0,201.72,26Zm-8.44,31.24c.41-.05.49-.15.35-.54a3.27,3.27,0,0,0-1.56-1.92c-.08,0-.15-.1-.24-.06-.55.23-1.15.23-1.69.47-.22.1-.25.2-.11.39a5.27,5.27,0,0,0,.52.63,2.9,2.9,0,0,0,2.13,1.07l.41,0Zm-.53-16.51a3.93,3.93,0,0,0-.1-1.45,8.31,8.31,0,0,1-.56-3.17q.07-3.93-.18-7.85a51.46,51.46,0,0,0-.65-6.44,28.92,28.92,0,0,0-3.8-9.5A12.43,12.43,0,0,1,186.28,10c-.42-1.29-.88-2.57-1.28-3.87A13,13,0,0,1,184.21,2a1.61,1.61,0,0,0-.08-.48c-.11-.36-.36-.43-.59-.12A2.69,2.69,0,0,0,183,2.56c-.11.69-.24.86-.93.86a28.37,28.37,0,0,0-3.91.32c-.54.07-.71-.09-.81-.63a6.27,6.27,0,0,0-.24-1.06c0-.09,0-.22-.16-.22s-.14.1-.19.17a3.61,3.61,0,0,0-.48,1.44,3.26,3.26,0,0,1-1.59,2.36c-1,.56-2,1.09-3,1.61-1.41.72-2.94,1.17-4.4,1.78a7.83,7.83,0,0,0-4.6,4.55,4.72,4.72,0,0,0,.2,4.45,5.24,5.24,0,0,0,3,2.22,17.2,17.2,0,0,0,4.83.75,18.12,18.12,0,0,0,8.64-2.05,9.47,9.47,0,0,0,4.17-4.77c.3-.66.29-1.42.59-2.08.11-.24.2-.5.52-.43a.44.44,0,0,1,.29.63c-.23.62-.3,1.28-.51,1.91a11.53,11.53,0,0,1-2.11,3.51,7.19,7.19,0,0,1-1.9,1.61,17.41,17.41,0,0,1-7.16,2.35c-.26,0-.35.11-.37.38a49.72,49.72,0,0,1-1,6.77,48.46,48.46,0,0,0-1,8.05,1.24,1.24,0,0,1-.29.7,4.46,4.46,0,0,0-.85,1.61c0,.12-.08.29.1.36s.23-.06.31-.16.23-.33.46-.35.34.16.52.28c.15-.62.29-1.2.44-1.78.52-2,1.14-4,1.55-6.08a36.83,36.83,0,0,0,.8-6.95c0-.2-.06-.54.24-.53s.24.33.25.54a16.74,16.74,0,0,1,0,3.32,35.74,35.74,0,0,1-.71,4.73c-.59,2.27-1.13,4.56-1.7,6.83-.07.27.08.55-.08.8a2.37,2.37,0,0,0-.28.85,40.08,40.08,0,0,0-.14,12.56.35.35,0,0,0,.34.36c.45.06.9.11,1.34.19s.37-.06.36-.34a4.52,4.52,0,0,1,.1-1.6,18.3,18.3,0,0,0,.87-4.62,15.32,15.32,0,0,1,2.23-6A5.06,5.06,0,0,1,180,39.36a8.32,8.32,0,0,1,2.34-.17,5.31,5.31,0,0,1,3.65,1.5,8.79,8.79,0,0,1,1.84,3.06,31.34,31.34,0,0,1,1.35,5c.37,1.72.47,3.48.67,5.23,0,.24.05.34.33.24a4.23,4.23,0,0,1,.87-.2c.36-.06.48-.22.49-.6,0-1.84,0-3.69.06-5.53a32.67,32.67,0,0,0,0-4.08c0-.56-.11-1.12-.17-1.67a.39.39,0,0,0-.34-.36c-.19,0-.17.18-.24.28l-.11.19a1,1,0,0,1-1.78,0c-.07-.1-.1-.17-.26-.14-.63.09-.86-.05-1.15-.62a3.24,3.24,0,0,1-.17-2,7.11,7.11,0,0,0,0-2.21c-.24-1.63-.24-3.29-.43-4.92a79,79,0,0,1-.54-8,3.87,3.87,0,0,1,0-.48.22.22,0,0,1,.19-.2c.12,0,.19.07.22.17a4.21,4.21,0,0,1,.16.61c.31,2.36.45,4.74.8,7.1.3,2.08.28,4.2.61,6.29a1.34,1.34,0,0,1-.06.44,8.21,8.21,0,0,0-.14,2.52c0,.16.05.37.22.41s.21-.18.31-.27.11-.14.17-.2a.46.46,0,0,1,.58-.21c.26.1.29.33.27.56s-.05.35-.06.52,0,.31.14.35.19-.14.25-.24a2.75,2.75,0,0,0,.26-.9.47.47,0,0,1,.36-.46.5.5,0,0,1,.53.27c.06.1.08.24.24.28s.07-.23.11-.35a.44.44,0,0,1,.36-.33.42.42,0,0,1,.45.21,2.53,2.53,0,0,0,.13.22c0,.06.07.15.16.12S192.75,40.75,192.75,40.7Zm-.68-20.88c.24-.25.15-.57.11-.85a1,1,0,0,0-1-1l.55,1.82C191.83,20,192,20,192.07,19.82Zm-.51-2.95a1.2,1.2,0,0,0-.78-1.4.49.49,0,0,1-.34-.23.51.51,0,0,1,.12-.54,4.7,4.7,0,0,0,.35-.43,1.34,1.34,0,0,0-1-2c-.62,0-.77-.26-.54-.84a1.85,1.85,0,0,0-.27-1.94.66.66,0,0,0-.5-.29c-.69,0-.81-.25-.56-.92a2.23,2.23,0,0,0,.11-1.17c-.07-.41-.2-.5-.61-.46s-.61-.15-.55-.57a2.47,2.47,0,0,0,.06-.29,1.31,1.31,0,0,0-1.33-1.61l-.14,0c-.46,0-.46,0-.33.42.4,1.34,1,2.62,1.42,3.94a18.86,18.86,0,0,0,1.85,3.74,33.17,33.17,0,0,1,1.67,3.11c.18.39.35.78.52,1.18l.33.87C191.19,17.18,191.51,17.14,191.56,16.87ZM182.12,2.39A1.91,1.91,0,0,0,182,1c0-.1-.09-.23-.22-.22s-.18.15-.22.27-.06.21-.1.32a.39.39,0,0,1-.76,0L180.68,1c0-.08,0-.19-.14-.2s-.16.08-.19.16-.13.42-.2.64a.38.38,0,0,1-.38.3.38.38,0,0,1-.37-.31,1.66,1.66,0,0,0-.06-.21c-.08-.22-.14-.46-.45-.46a.57.57,0,0,0-.57.45,5.2,5.2,0,0,0-.12,1.18c0,.31,0,.41.38.35A13.51,13.51,0,0,1,181,2.61h.78A.28.28,0,0,0,182.12,2.39ZM173,55.44c.13-.2.06-.28-.17-.3a9.09,9.09,0,0,1-1.72-.29c-.17-.05-.26,0-.35.16a12.65,12.65,0,0,0-.9,1.27c-.42.71-.37.78.69.81A3.72,3.72,0,0,0,173,55.44Z"/><path class="cls-2" d="M201.85,25.65c.07.13,0,.23-.13.32a2.49,2.49,0,0,1-.85.53c-.21.08-.42.17-.43.45s.2.35.4.43.33.11.35.3-.17.29-.31.39a2,2,0,0,1-1.24.32.48.48,0,0,1-.41-.22,1.93,1.93,0,0,0-1.31-.79.2.2,0,0,1-.18-.15,2.44,2.44,0,0,1,.65-2.61,2.56,2.56,0,0,0,.07.36c.12.31.45.35.69.07a3.31,3.31,0,0,1,.89-.78,1.47,1.47,0,0,1,.64-.21c.14,0,.31-.06.4.1a.5.5,0,0,1,0,.5,1.52,1.52,0,0,1-.41.43.39.39,0,0,0,.4.66c.17-.05.33-.12.5-.16S201.79,25.52,201.85,25.65Z"/><path class="cls-2" d="M193.63,56.67c.14.39.06.49-.35.54l-.19,0-.41,0a2.9,2.9,0,0,1-2.13-1.07,5.27,5.27,0,0,1-.52-.63c-.14-.19-.11-.29.11-.39.54-.24,1.14-.24,1.69-.47.09,0,.16,0,.24.06A3.27,3.27,0,0,1,193.63,56.67Z"/><path class="cls-3" d="M192.65,39.25a3.93,3.93,0,0,1,.1,1.45s0,.13-.08.15-.12-.06-.16-.12a2.53,2.53,0,0,1-.13-.22.42.42,0,0,0-.45-.21.44.44,0,0,0-.36.33c0,.12,0,.25-.11.35s-.18-.18-.24-.28a.5.5,0,0,0-.53-.27.47.47,0,0,0-.36.46,2.75,2.75,0,0,1-.26.9c-.06.1-.1.27-.25.24s-.14-.22-.14-.35,0-.34.06-.52,0-.46-.27-.56a.46.46,0,0,0-.58.21c-.06.06-.11.14-.17.2s-.16.31-.31.27-.2-.25-.22-.41a8.21,8.21,0,0,1,.14-2.52,1.34,1.34,0,0,0,.06-.44c-.33-2.09-.31-4.21-.61-6.29-.35-2.36-.49-4.74-.8-7.1a4.21,4.21,0,0,0-.16-.61c0-.1-.1-.19-.22-.17a.22.22,0,0,0-.19.2,3.87,3.87,0,0,0,0,.48,79,79,0,0,0,.54,8c.19,1.63.19,3.29.43,4.92a7.11,7.11,0,0,1,0,2.21,3.24,3.24,0,0,0,.17,2c.29.57.52.71,1.15.62.16,0,.19,0,.26.14a1,1,0,0,0,1.78,0l.11-.19c.07-.1.05-.31.24-.28a.39.39,0,0,1,.34.36c.06.55.13,1.11.17,1.67a32.67,32.67,0,0,1,0,4.08c-.11,1.84,0,3.69-.06,5.53,0,.38-.13.54-.49.6a4.23,4.23,0,0,0-.87.2c-.28.1-.31,0-.33-.24-.2-1.75-.3-3.51-.67-5.23a31.34,31.34,0,0,0-1.35-5A8.79,8.79,0,0,0,186,40.69a5.31,5.31,0,0,0-3.65-1.5,8.32,8.32,0,0,0-2.34.17,5.06,5.06,0,0,0-3.46,2.35,15.32,15.32,0,0,0-2.23,6,18.3,18.3,0,0,1-.87,4.62,4.52,4.52,0,0,0-.1,1.6c0,.28-.07.39-.36.34s-.89-.13-1.34-.19a.35.35,0,0,1-.34-.36,40.08,40.08,0,0,1,.14-12.56,2.37,2.37,0,0,1,.28-.85c.16-.25,0-.53.08-.8.57-2.27,1.11-4.56,1.7-6.83a35.74,35.74,0,0,0,.71-4.73,16.74,16.74,0,0,0,0-3.32c0-.21,0-.54-.25-.54s-.23.33-.24.53a36.83,36.83,0,0,1-.8,7c-.41,2.05-1,4.06-1.55,6.08-.15.58-.29,1.16-.44,1.78-.18-.12-.3-.31-.52-.28s-.33.2-.46.35-.18.21-.31.16-.12-.24-.1-.36a4.46,4.46,0,0,1,.85-1.61,1.24,1.24,0,0,0,.29-.7,48.46,48.46,0,0,1,1-8,49.72,49.72,0,0,0,1-6.77c0-.27.11-.35.37-.38a17.41,17.41,0,0,0,7.16-2.35,7.19,7.19,0,0,0,1.9-1.61,11.53,11.53,0,0,0,2.11-3.51c.21-.63.28-1.29.51-1.91a.44.44,0,0,0-.29-.63c-.32-.07-.41.19-.52.43-.3.66-.29,1.42-.59,2.08a9.47,9.47,0,0,1-4.17,4.77,18.12,18.12,0,0,1-8.64,2.05,17.2,17.2,0,0,1-4.83-.75,5.24,5.24,0,0,1-3-2.22,4.72,4.72,0,0,1-.2-4.45,7.83,7.83,0,0,1,4.6-4.55c1.46-.61,3-1.06,4.4-1.78,1-.52,2-1,3-1.61a3.26,3.26,0,0,0,1.59-2.36A3.61,3.61,0,0,1,176.73,2c.05-.07.1-.18.19-.17s.13.13.16.22a6.27,6.27,0,0,1,.24,1.06c.1.54.27.7.81.63A28.37,28.37,0,0,1,182,3.42c.69,0,.82-.17.93-.86a2.69,2.69,0,0,1,.57-1.16c.23-.31.48-.24.59.12a1.61,1.61,0,0,1,.08.48A13,13,0,0,0,185,6.09c.4,1.3.86,2.58,1.28,3.87a12.43,12.43,0,0,0,1.18,2.33,28.92,28.92,0,0,1,3.8,9.5,51.46,51.46,0,0,1,.65,6.44q.26,3.91.18,7.85A8.31,8.31,0,0,0,192.65,39.25ZM181.53,9.55a2.87,2.87,0,0,0,.62-2.13V6.75a1.56,1.56,0,0,0-.38-1c-.4-.49-.94-.32-1.43-.27s-.41.38-.5.67a5.9,5.9,0,0,0-.28,2.09,2,2,0,0,0,.64,1.38A.84.84,0,0,0,181.53,9.55ZM179,9.25a3.48,3.48,0,0,0,.56-2.17,5.63,5.63,0,0,0,0-.71,1.28,1.28,0,0,0-.92-1.06,1.16,1.16,0,0,0-1.22.83A6.65,6.65,0,0,0,177,8.76a1.08,1.08,0,0,0,.81,1A1,1,0,0,0,179,9.25Z"/><path class="cls-2" d="M192.18,19c0,.28.13.6-.11.85s-.24.19-.31-.06l-.55-1.82A1,1,0,0,1,192.18,19Z"/><path class="cls-2" d="M190.78,15.47a1.2,1.2,0,0,1,.78,1.4c-.05.27-.37.31-.55.55l-.33-.87c-.17-.4-.34-.79-.52-1.18l.28-.13A.49.49,0,0,0,190.78,15.47Z"/><path class="cls-2" d="M189.88,12.27a1.34,1.34,0,0,1,1,2,4.7,4.7,0,0,1-.35.43.51.51,0,0,0-.12.54l-.28.13a33.17,33.17,0,0,0-1.67-3.11,18.86,18.86,0,0,1-1.85-3.74c-.45-1.32-1-2.6-1.42-3.94-.13-.45-.13-.45.33-.42l.14,0A1.31,1.31,0,0,1,187,5.79a2.47,2.47,0,0,1-.06.29c-.06.42.14.62.55.57s.54,0,.61.46A2.23,2.23,0,0,1,188,8.28c-.25.67-.13.87.56.92a.66.66,0,0,1,.5.29,1.85,1.85,0,0,1,.27,1.94C189.11,12,189.26,12.24,189.88,12.27Z"/><path d="M182.15,7.42a2.87,2.87,0,0,1-.62,2.13.84.84,0,0,1-1.33.08,2,2,0,0,1-.64-1.38,5.9,5.9,0,0,1,.28-2.09c.09-.29.14-.64.5-.67s1-.22,1.43.27a1.56,1.56,0,0,1,.38,1Zm-1,1.6a2.54,2.54,0,0,0,.38-1.7,2.1,2.1,0,0,0-.16-1c-.23-.38-.51-.07-.76-.1s-.2.15-.22.29a7,7,0,0,0-.12,1.89,1.06,1.06,0,0,0,.3.67C180.8,9.31,180.91,9.3,181.14,9Z"/><path class="cls-2" d="M182,1a1.91,1.91,0,0,1,.08,1.41.28.28,0,0,1-.31.22H181a13.51,13.51,0,0,0-2.45.27c-.34.06-.41,0-.38-.35a5.2,5.2,0,0,1,.12-1.18.57.57,0,0,1,.57-.45c.31,0,.37.24.45.46a1.66,1.66,0,0,1,.06.21.38.38,0,0,0,.37.31.38.38,0,0,0,.38-.3c.07-.22.13-.43.2-.64s.08-.17.19-.16.12.12.14.2l.06.33a.39.39,0,0,0,.76,0c0-.11.06-.22.1-.32s.06-.27.22-.27S182,.88,182,1Z"/><path d="M181.1,7.14A1.61,1.61,0,0,1,181,8.3c0,.08-.1.19-.21.18s-.16-.15-.17-.26,0-.32,0-.48h0c0-.2,0-.4.07-.59a.28.28,0,0,1,.25-.25C181,6.88,181.08,7,181.1,7.14Z"/><path d="M179.52,7.08A3.48,3.48,0,0,1,179,9.25a1,1,0,0,1-1.15.55,1.08,1.08,0,0,1-.81-1,6.65,6.65,0,0,1,.34-2.62,1.16,1.16,0,0,1,1.22-.83,1.28,1.28,0,0,1,.92,1.06A5.63,5.63,0,0,1,179.52,7.08Zm-.81,1.26a4.64,4.64,0,0,0,.14-1.86.58.58,0,0,0-.09-.25.46.46,0,0,0-.47-.3c-.22,0-.27.2-.32.36a6.57,6.57,0,0,0-.26,1.23c0,.22,0,.43,0,.64s0,.32,0,.49a.45.45,0,0,0,.3.5c.25.06.35-.14.46-.3A2.52,2.52,0,0,0,178.71,8.34Z"/><path d="M178.5,7.59c0,.1,0,.2,0,.36a1.78,1.78,0,0,1,0,.31c0,.1-.08.18-.25.17-.33,0-.24-.33-.26-.55a1.5,1.5,0,0,1,0-.3v0c0-.16.06-.32.26-.31S178.49,7.42,178.5,7.59Z"/><path class="cls-2" d="M172.84,55.14c.23,0,.3.1.17.3a3.72,3.72,0,0,1-2.45,1.65c-1.06,0-1.11-.1-.69-.81a12.65,12.65,0,0,1,.9-1.27c.09-.11.18-.21.35-.16A9.09,9.09,0,0,0,172.84,55.14Z"/></g></g></svg>