<svg xmlns="http://www.w3.org/2000/svg" width="55.181" height="13.644" viewBox="0 0 55.181 13.644"><g transform="translate(-261.563 -220.401)"><path d="M425.85,237.158a4.255,4.255,0,1,1-4.4,4.252A4.236,4.236,0,0,1,425.85,237.158Zm19.174.039c2.711,0,3.95,2.107,3.95,4.408,0,.151,0,.3-.015.449-.009.091-.053.148-.138.155h-5.533a1.877,1.877,0,0,0,1.99,1.6,2.662,2.662,0,0,0,1.882-.731.147.147,0,0,1,.2-.012l.015.012,1.073.966a.146.146,0,0,1,.02.224,4.262,4.262,0,1,1-3.443-7.071Zm-8.992-1.931a.143.143,0,0,1,.156.156v1.931h1.755a.144.144,0,0,1,.156.156v1.638a.143.143,0,0,1-.156.156h-1.755v3.54c0,.536.239.79.712.79a1.985,1.985,0,0,0,.985-.2c.107-.054.185-.02.185.088v1.531a.215.215,0,0,1-.107.195,3.2,3.2,0,0,1-1.716.419c-1.263,0-2.165-.454-2.336-1.9a5.955,5.955,0,0,1-.024-.633V239.3h-.819a.143.143,0,0,1-.156-.156V237.51a.144.144,0,0,1,.156-.156h.819v-1.931a.143.143,0,0,1,.156-.156Zm-20.3,1.892a2.533,2.533,0,0,1,2.677,2.2,5.026,5.026,0,0,1,.073.941v5.008a.144.144,0,0,1-.156.156h-1.99a.144.144,0,0,1-.156-.156V240.9c0-1.083-.517-1.658-1.395-1.658s-1.434.566-1.434,1.658v4.408a.144.144,0,0,1-.156.156h-1.99a.144.144,0,0,1-.156-.156v-7.8a.144.144,0,0,1,.156-.156h1.99a.143.143,0,0,1,.156.156v.926A2.872,2.872,0,0,1,415.737,237.158Zm10.113,1.989a2.267,2.267,0,1,0,2.126,2.263A2.139,2.139,0,0,0,425.85,239.148Zm19.174-.107c-.917,0-1.513.624-1.773,1.686l-.012.05h3.5C446.575,239.762,446.019,239.041,445.024,239.041Z" transform="translate(-132.23 -13.149)" fill="#707070" fill-rule="evenodd"/><path d="M266.752,226.408h-1.609a1.033,1.033,0,0,1-.351-.039.69.69,0,0,1,0-1.307,1.027,1.027,0,0,1,.351-.039h1.044V223.98a1.024,1.024,0,0,1,.039-.351.69.69,0,0,1,1.307,0,1.031,1.031,0,0,1,.039.351v1.609a1.333,1.333,0,0,1-.02.283.713.713,0,0,1-.517.517,1.334,1.334,0,0,1-.283.019Zm5.169,5.91h-8.631v-7.6a.339.339,0,0,1,.1-.249l2.238-2.238a.339.339,0,0,1,.249-.1h6.042Zm-9.938-8.88a1.361,1.361,0,0,0-.41.839c0,.054-.01.132-.01.21v8.6a1.85,1.85,0,0,0,.01.215.869.869,0,0,0,.736.736,1.831,1.831,0,0,0,.215.01h10.162a1.831,1.831,0,0,0,.215-.01.869.869,0,0,0,.736-.736,1.792,1.792,0,0,0,.01-.215V221.362a1.792,1.792,0,0,0-.01-.215.869.869,0,0,0-.736-.736,1.831,1.831,0,0,0-.215-.01H265.65c-.078,0-.156.005-.21.01a1.358,1.358,0,0,0-.839.41Z" fill="#707070" fill-rule="evenodd"/></g></svg>