<svg xmlns="http://www.w3.org/2000/svg" width="60.171" height="13" viewBox="0 0 60.171 13"><g transform="translate(-80.283 239.9)"><path d="M513.088-239.746a10.746,10.746,0,0,1-2.283.325h-.366l.219.219c.431.455.5.747.528,2.405l.032,1.519-.374-.154a4.3,4.3,0,0,0-4.656,1.081,4.859,4.859,0,0,0-.959,2.194c-.4,2.34.276,4.184,1.812,4.94a2.036,2.036,0,0,0,1.235.268,2.627,2.627,0,0,0,1.934-.731,3.334,3.334,0,0,0,.8-1.324c-.024-.016-.154.1-.3.26a1.425,1.425,0,0,1-1.251.561,1.483,1.483,0,0,1-1.536-1.081,8.049,8.049,0,0,1-.292-3.656c.2-1.568.723-2.364,1.633-2.486a1.568,1.568,0,0,1,1.706.918c.2.39.2.4.219,3.884.008,1.918.032,3.534.057,3.583.016.065.309.024.951-.138.5-.13,1.219-.276,1.592-.325l.674-.1-.284-.236a1.827,1.827,0,0,1-.431-.618c-.138-.357-.146-.739-.146-5.541,0-2.836.024-5.33.057-5.549s.032-.374,0-.374S513.372-239.827,513.088-239.746Z" transform="translate(-390.318 0)" fill="#707070"/><path d="M179.073-207.439a12.751,12.751,0,0,1-2.048,1.341c-.163.049.032.219.276.219h.236v2.779c0,1.56.041,3.023.089,3.315a2.432,2.432,0,0,0,1.406,2.039,3.159,3.159,0,0,0,2.218,0,2.418,2.418,0,0,0,1.137-1.121c.146-.349.081-.431-.163-.211a1.223,1.223,0,0,1-1.007.349,1.159,1.159,0,0,1-1.178-.666c-.187-.341-.187-.4-.211-3.421l-.024-3.063h1.146c1.081,0,1.138-.008,1.138-.163s-.057-.163-1.138-.163h-1.138v-.853c0-.634-.024-.853-.1-.845A2.837,2.837,0,0,0,179.073-207.439Z" transform="translate(-88.827 -29.398)" fill="#707070"/><path d="M82.779-188.4a2.88,2.88,0,0,0-2.137,1.528,2.2,2.2,0,0,0-.179,1.024c0,1.227.512,1.861,2.21,2.746,1.593.829,1.974,1.219,1.974,1.983,0,.748-.463,1.162-1.3,1.162a2.666,2.666,0,0,1-2.381-1.7,3.638,3.638,0,0,1-.3-.707c0-.065-.033-.114-.073-.114a4.536,4.536,0,0,0-.211,1.016c-.179,1.211-.2,1.154.7,1.454,2.291.764,4.6.26,5.281-1.154a2.4,2.4,0,0,0-.033-1.991c-.309-.618-.821-1.024-2.153-1.714-1.194-.618-1.633-.959-1.877-1.454a1.165,1.165,0,0,1,0-1.194,1.215,1.215,0,0,1,1.024-.618c.861-.1,1.641.626,2.129,1.974l.236.634.081-.325c.236-.886.423-1.658.423-1.739a4.715,4.715,0,0,0-1.544-.723A5.47,5.47,0,0,0,82.779-188.4Z" transform="translate(0 -47.279)" fill="#707070"/><path d="M264.249-188.391a5.65,5.65,0,0,0-1.82.65l-.382.244.13.422c.455,1.568.6,2.039.634,2.072.049.049.081-.065.2-.715a3.094,3.094,0,0,1,1.584-2.364,1.254,1.254,0,0,1,1.479.683,6.308,6.308,0,0,1,.358,2.145v.666l-2.291.756c-2.275.756-2.283.756-2.4,1.04a2.54,2.54,0,0,0-.13.853,1.915,1.915,0,0,0,.236,1.056,2.4,2.4,0,0,0,4.306-.2c.163-.455.163-.455-.122-.211a1.339,1.339,0,0,1-1.089.26c-.626-.122-1.016-.715-1.024-1.568,0-.837.032-.869,1.243-1.251.585-.187,1.105-.349,1.17-.374.089-.033.106.382.106,2.291,0,2.226.008,2.324.146,2.275a20.842,20.842,0,0,1,2.413-.536l.691-.1-.325-.276c-.5-.431-.569-.78-.569-2.779,0-.918-.041-1.9-.081-2.186a3.037,3.037,0,0,0-2.259-2.7A5.913,5.913,0,0,0,264.249-188.391Z" transform="translate(-166.585 -47.284)" fill="#707070"/><path d="M419.543-188.663a2.7,2.7,0,0,0-1.463.853c-.374.4-.78,1.081-.7,1.17.016.016.13-.089.252-.228a1.6,1.6,0,0,1,1.292-.577,1.267,1.267,0,0,1,1.121.487c.349.414.4.878.366,3.534-.024,2.714-.057,2.9-.569,3.209l-.268.163h3.965l-.3-.268a1.055,1.055,0,0,1-.374-.585c-.041-.179-.081-1.479-.081-2.884,0-2.787-.049-3.185-.439-3.859A2.748,2.748,0,0,0,419.543-188.663Z" transform="translate(-309.699 -47.021)" fill="#707070"/><path d="M378.328-187.878a13.042,13.042,0,0,1-2.291.325c-.4,0-.552.114-.292.219.2.073.431.593.528,1.178a27.8,27.8,0,0,1,.065,3.2c-.033,2.974-.057,3.128-.569,3.445l-.268.162h3.949l-.276-.268c-.463-.431-.479-.569-.447-4.656C378.75-188.268,378.774-188.057,378.328-187.878Z" transform="translate(-271.23 -47.724)" fill="#707070"/><path d="M691.6-159.641a1.61,1.61,0,0,0-.934,1.365c-.057.366-.065.382-.333.382-.284,0-.325.073-.487.878l-.049.26h.829v3.494h1.381v-3.494h1.219v3.494h1.381v-1.422a4.726,4.726,0,0,1,.122-1.666.682.682,0,0,1,.682-.406c.666,0,.74.195.74,2.031v1.471l.674-.024.666-.024.041-1.528.041-1.536.228-.195a.816.816,0,0,1,.5-.195c.707,0,.772.179.772,2.031v1.471l.674-.024.666-.024.024-1.341c.041-2.559-.276-3.25-1.528-3.315a1.759,1.759,0,0,0-1.462.5l-.179.2-.211-.252a1.387,1.387,0,0,0-1.154-.471,1.448,1.448,0,0,0-1.089.4c-.211.236-.292.211-.292-.073v-.244H692.01v-.211c0-.479.358-.691.837-.488l.276.114.26-.479.26-.471-.268-.138A3,3,0,0,0,691.6-159.641Z" transform="translate(-559.993 -73.646)" fill="#707070"/><path d="M641.19-115.736a1.279,1.279,0,0,0-.837.821,1.328,1.328,0,0,0,1.389,1.8,1.241,1.241,0,0,0,1.1-.748,1.349,1.349,0,0,0-.886-1.918A.892.892,0,0,0,641.19-115.736Z" transform="translate(-514.479 -113.975)" fill="#707070"/></g></svg>