<svg id="TWITTER_icon-icons.com_65486" xmlns="http://www.w3.org/2000/svg" width="17.111" height="14" viewBox="0 0 17.111 14">
  <path id="パス_116" data-name="パス 116" d="M3.324,85.937a7.167,7.167,0,0,0,5.124-1.463,3.633,3.633,0,0,1-3.3-2.458A3.91,3.91,0,0,0,6.7,81.955,3.635,3.635,0,0,1,3.9,78.44a3.757,3.757,0,0,0,1.592.427,3.565,3.565,0,0,1-1.541-3.048,3.283,3.283,0,0,1,.474-1.649,10.124,10.124,0,0,0,7.27,3.684c-.017-.129-.027-.23-.041-.335A3.511,3.511,0,0,1,14.5,73.581a3.391,3.391,0,0,1,3.075.891.4.4,0,0,0,.42.1,8.445,8.445,0,0,0,1.954-.762,3.66,3.66,0,0,1-1.405,1.89c.152-.027.308-.047.461-.078s.318-.071.477-.115.3-.088.45-.139a3.138,3.138,0,0,1,.484-.139c-.088.122-.173.251-.268.369A7.9,7.9,0,0,1,18.8,76.926a.267.267,0,0,0-.091.19,10.368,10.368,0,0,1-4.632,8.865,9.465,9.465,0,0,1-3.224,1.3,10.646,10.646,0,0,1-3.451.149,9.558,9.558,0,0,1-3.295-1.013c-.274-.139-.538-.295-.806-.444A.253.253,0,0,0,3.324,85.937Z" transform="translate(-3.3 -73.51)" fill="#1da1f2"/>
</svg>
