<svg xmlns="http://www.w3.org/2000/svg" width="44.326" height="13.077" viewBox="0 0 44.326 13.077"><g transform="translate(16.081 1.372)"><path d="M89.3,8.708a.155.155,0,0,0-.077-.206.152.152,0,0,0-.064-.014H88a.31.31,0,0,0-.281.18L86.4,11.532a.04.04,0,0,1-.072,0l-1.3-2.865a.309.309,0,0,0-.282-.181h-1.2a.155.155,0,0,0-.155.156.15.15,0,0,0,.014.064l2.112,4.638a.154.154,0,0,1,0,.129l-1.252,2.717a.155.155,0,0,0,.138.22h1.157a.308.308,0,0,0,.281-.18Z" transform="translate(-61.068 -5.95)" fill="#707070"/><path d="M74.464,11.782a.306.306,0,0,0-.376.092,1.474,1.474,0,0,1-1.2.594,1.417,1.417,0,0,1-1.457-1.375v-.029A1.416,1.416,0,0,1,72.86,9.658h.03a1.473,1.473,0,0,1,1.19.584.307.307,0,0,0,.375.092l.912-.421a.155.155,0,0,0,.076-.206L75.438,9.7a2.915,2.915,0,0,0-2.547-1.43,2.821,2.821,0,0,0-2.9,2.739c0,.02,0,.039,0,.059a2.821,2.821,0,0,0,2.842,2.8h.059a2.916,2.916,0,0,0,2.555-1.444.156.156,0,0,0-.06-.212l-.01-.005Z" transform="translate(-53.844 -5.831)" fill="#707070"/><g transform="translate(13.293)"><rect width="1.551" height="5.397" rx="0.504" transform="translate(0.106 2.538)" fill="#707070"/><circle cx="0.881" cy="0.881" r="0.881" fill="#707070"/></g><path d="M51.724,8.261A2.822,2.822,0,0,0,48.821,11c0,.02,0,.041,0,.061a2.821,2.821,0,0,0,2.843,2.8h.061a2.821,2.821,0,0,0,2.9-2.737c0-.02,0-.041,0-.061a2.821,2.821,0,0,0-2.842-2.8Zm0,4.2a1.417,1.417,0,0,1-1.457-1.375v-.029a1.416,1.416,0,0,1,1.427-1.405h.03a1.416,1.416,0,0,1,1.457,1.374v.031a1.416,1.416,0,0,1-1.427,1.405Z" transform="translate(-42.422 -5.828)" fill="#707070"/><path d="M40.7,8.491H39.546a.31.31,0,0,0-.281.18l-1.322,2.866a.04.04,0,0,1-.072,0l-1.3-2.865a.31.31,0,0,0-.282-.181h-1.2a.155.155,0,0,0-.155.154.157.157,0,0,0,.014.065l2.276,5a.309.309,0,0,0,.282.181h.763a.31.31,0,0,0,.281-.18l2.3-5a.155.155,0,0,0-.076-.205A.157.157,0,0,0,40.7,8.491Z" transform="translate(-34.924 -5.953)" fill="#707070"/></g><g transform="translate(0 0)"><path d="M12.461.016C10.984.507,8.233,2.347,6.733,6.932,5.233,2.347,2.481.507,1,.016A.308.308,0,0,0,.626.176C.222,1.041-.92,4.22,1.489,8.7A10.155,10.155,0,0,0,6.5,13.031a.634.634,0,0,0,.471,0A10.135,10.135,0,0,0,11.977,8.7c2.409-4.479,1.266-7.658.862-8.523A.309.309,0,0,0,12.461.016ZM5.949,11.023A8.12,8.12,0,0,1,2.864,7.96,9.453,9.453,0,0,1,1.588,2.679c.018-.208.046-.4.076-.579a7.155,7.155,0,0,1,.914.761A11.065,11.065,0,0,1,5.252,7.419v.01A10.594,10.594,0,0,1,5.949,11.023ZM10.6,7.96a8.117,8.117,0,0,1-3.085,3.063,10.605,10.605,0,0,1,.7-3.594v-.01a11.066,11.066,0,0,1,2.675-4.558A7.183,7.183,0,0,1,11.8,2.1c.031.178.058.371.076.579A9.448,9.448,0,0,1,10.6,7.96Z" transform="translate(0 0.001)" fill="#707070"/></g></svg>