<svg xmlns="http://www.w3.org/2000/svg" width="60.536" height="13.538" viewBox="0 0 60.536 13.538">
  <g id="グループ_132" data-name="グループ 132" transform="translate(0 0)">
    <path id="パス_117" data-name="パス 117" d="M754.905,944.846a2.43,2.43,0,0,0-1.711-1.711c-1.5-.409-7.538-.409-7.538-.409s-6.038.012-7.538.422a2.43,2.43,0,0,0-1.711,1.711,26.429,26.429,0,0,0,.012,9.286,2.43,2.43,0,0,0,1.711,1.711c1.5.409,7.538.409,7.538.409s6.038,0,7.538-.409a2.43,2.43,0,0,0,1.711-1.711A26,26,0,0,0,754.905,944.846Zm-11.17,7.55v-5.8l5.009,2.9Z" transform="translate(-736.001 -942.726)" fill="#da1725"/>
    <path id="パス_119" data-name="パス 119" d="M913.99,961.87a2.1,2.1,0,0,1-.818-1.2,7.9,7.9,0,0,1-.236-2.17V957.27a7.075,7.075,0,0,1,.273-2.194,2.139,2.139,0,0,1,.868-1.2,2.851,2.851,0,0,1,1.537-.384,2.59,2.59,0,0,1,1.5.384,2.243,2.243,0,0,1,.831,1.2,7.433,7.433,0,0,1,.26,2.182v1.227a7.342,7.342,0,0,1-.26,2.17,2.179,2.179,0,0,1-.831,1.2,2.837,2.837,0,0,1-1.55.384A2.769,2.769,0,0,1,913.99,961.87Zm2.145-1.327a3.957,3.957,0,0,0,.161-1.351v-2.641a3.84,3.84,0,0,0-.161-1.326.572.572,0,0,0-.558-.422.558.558,0,0,0-.546.422,3.89,3.89,0,0,0-.161,1.326v2.641a4.383,4.383,0,0,0,.149,1.351.555.555,0,0,0,.558.409A.575.575,0,0,0,916.135,960.543Zm27.176-2.021v.434l.05,1.227a1.234,1.234,0,0,0,.2.6.681.681,0,0,0,1.054-.149,2.856,2.856,0,0,0,.174-1.1l1.649.1a2.038,2.038,0,0,1,.012.3,2.211,2.211,0,0,1-.645,1.748,2.623,2.623,0,0,1-1.81.583,2.158,2.158,0,0,1-1.971-.88,5.2,5.2,0,0,1-.57-2.728v-1.5c.042-2.108.413-3.651,2.591-3.657a2.654,2.654,0,0,1,1.5.36,1.946,1.946,0,0,1,.744,1.116,7.827,7.827,0,0,1,.211,2.1v1.451h-3.186Zm.248-3.571a1.178,1.178,0,0,0-.2.583c-.037.273-.05,1.24-.05,1.24v.607H944.7v-.607c0,.607-.012-.955-.05-1.24a1.142,1.142,0,0,0-.2-.6.569.569,0,0,0-.446-.173A.578.578,0,0,0,943.559,954.952Zm-34.205,3.409-2.17-7.835h1.9s.886,3.93,1.19,5.777h.05c.345-1.961,1.215-5.777,1.215-5.777h1.9l-2.194,7.823v3.756h-1.872v-3.744Z" transform="translate(-885.961 -949.559)" fill="#da1725"/>
    <path id="A" d="M1009.329,975.726v8.468h-1.488l-.161-1.041h-.037a1.963,1.963,0,0,1-1.823,1.178c-1.459,0-1.621-1.24-1.636-2.281v-6.323h1.909v6.211a1.841,1.841,0,0,0,.124.806c.176.345.632.257.88.087a1,1,0,0,0,.335-.384v-6.72Z" transform="translate(-970.935 -971.635)" fill="#da1725"/>
    <path id="パス_120" data-name="パス 120" d="M1047.537,949h-1.9v10.054h-1.86V949h-1.9V947.46h5.641V949Zm10.9,2.938a2.183,2.183,0,0,0-.558-1.165,1.519,1.519,0,0,0-1.066-.36,1.749,1.749,0,0,0-.98.3,2.04,2.04,0,0,0-.707.781h-.012v-4.463h-1.835v12.013h1.575l.2-.806h.037a1.735,1.735,0,0,0,.657.682,2.013,2.013,0,0,0,.979.248,1.511,1.511,0,0,0,1.425-.893,6.5,6.5,0,0,0,.459-2.777v-1.339a11.372,11.372,0,0,0-.174-2.219Zm-1.748,3.459a10.827,10.827,0,0,1-.074,1.451,1.515,1.515,0,0,1-.26.744.6.6,0,0,1-.483.223.836.836,0,0,1-.756-.446v-4.81a1.148,1.148,0,0,1,.335-.57.608.608,0,0,1,.955,0,1.775,1.775,0,0,1,.223.769c.037.36.062.868.062,1.537Z" transform="translate(-1003.961 -946.493)" fill="#da1725"/>
    <path id="A-2" d="M1088.229,975.726v8.468h-1.488l-.161-1.041h-.037a1.963,1.963,0,0,1-1.822,1.178c-1.459,0-1.622-1.24-1.636-2.281v-6.323h1.909v6.211a1.845,1.845,0,0,0,.124.806c.176.345.632.257.88.087a.993.993,0,0,0,.335-.384v-6.72Z" transform="translate(-1040.053 -971.635)" fill="#da1725"/>
  </g>
</svg>
