<svg xmlns="http://www.w3.org/2000/svg" xmlns:xlink="http://www.w3.org/1999/xlink" width="40" height="40" viewBox="0 0 40 40">
  <defs>
    <filter id="楕円形_21" x="-9" y="-6" width="58" height="58" filterUnits="userSpaceOnUse">
      <feOffset dy="3" input="SourceAlpha"/>
      <feGaussianBlur stdDeviation="3" result="blur"/>
      <feFlood flood-opacity="0.161"/>
      <feComposite operator="in" in2="blur"/>
      <feComposite in="SourceGraphic"/>
    </filter>
    <clipPath id="clip-path">
      <g transform="matrix(1, 0, 0, 1, 0, 0)" filter="url(#楕円形_21)">
        <circle id="楕円形_21-2" data-name="楕円形 21" cx="20" cy="20" r="20" transform="translate(1079 182)" fill="#fff" stroke="#707070" stroke-width="1"/>
      </g>
    </clipPath>
  </defs>
  <g id="マスクグループ_3" data-name="マスクグループ 3" transform="translate(-1079 -182)" clip-path="url(#clip-path)">
    <g id="動画再生ボタン" transform="translate(1073 121)">
      <path id="パス_148" data-name="パス 148" d="M49.508,64.878C46.817,62.705,37.329,61,26.256,61S5.7,62.705,3,64.878C.532,66.872,0,75.885,0,81S.532,95.128,3,97.122C5.7,99.295,15.184,101,26.256,101s20.561-1.705,23.252-3.878c2.473-1.994,3-11.006,3-16.122S51.981,66.872,49.508,64.878ZM34.135,81.247,21.946,88.522a.287.287,0,0,1-.434-.247V73.724a.287.287,0,0,1,.434-.247l12.189,7.276a.285.285,0,0,1,.139.247A.289.289,0,0,1,34.135,81.247Z" transform="translate(0)" fill="#fa1929"/>
    </g>
  </g>
</svg>
