<svg xmlns="http://www.w3.org/2000/svg" xmlns:xlink="http://www.w3.org/1999/xlink" width="58" height="58" viewBox="0 0 58 58">
  <defs>
    <filter id="楕円形_16" x="0" y="0" width="58" height="58" filterUnits="userSpaceOnUse">
      <feOffset dy="3" input="SourceAlpha"/>
      <feGaussianBlur stdDeviation="3" result="blur"/>
      <feFlood flood-opacity="0.161"/>
      <feComposite operator="in" in2="blur"/>
      <feComposite in="SourceGraphic"/>
    </filter>
  </defs>
  <g id="グループ_175" data-name="グループ 175" transform="translate(9 6)">
    <g transform="matrix(1, 0, 0, 1, -9, -6)" filter="url(#楕円形_16)">
      <circle id="楕円形_16-2" data-name="楕円形 16" cx="20" cy="20" r="20" transform="translate(9 6)" fill="#eee"/>
    </g>
    <path id="iconmonstr-twitter-1" d="M24,4.557a9.831,9.831,0,0,1-2.828.775,4.932,4.932,0,0,0,2.165-2.724A9.864,9.864,0,0,1,20.21,3.8a4.927,4.927,0,0,0-8.391,4.49A13.978,13.978,0,0,1,1.671,3.149,4.93,4.93,0,0,0,3.194,9.723,4.9,4.9,0,0,1,.965,9.107,4.927,4.927,0,0,0,4.914,14a4.935,4.935,0,0,1-2.224.084A4.928,4.928,0,0,0,7.29,17.5,9.9,9.9,0,0,1,0,19.54a13.939,13.939,0,0,0,7.548,2.212A13.925,13.925,0,0,0,21.543,7.106,10.025,10.025,0,0,0,24,4.557Z" transform="translate(9 8.752)" fill="#1da1f2"/>
  </g>
</svg>
