<svg xmlns="http://www.w3.org/2000/svg" xmlns:xlink="http://www.w3.org/1999/xlink" width="58" height="58" viewBox="0 0 58 58">
  <defs>
    <filter id="楕円形_18" x="0" y="0" width="58" height="58" filterUnits="userSpaceOnUse">
      <feOffset dy="3" input="SourceAlpha"/>
      <feGaussianBlur stdDeviation="3" result="blur"/>
      <feFlood flood-opacity="0.161"/>
      <feComposite operator="in" in2="blur"/>
      <feComposite in="SourceGraphic"/>
    </filter>
  </defs>
  <g id="グループ_177" data-name="グループ 177" transform="translate(9 -122)">
    <g transform="matrix(1, 0, 0, 1, -9, 122)" filter="url(#楕円形_18)">
      <circle id="楕円形_18-2" data-name="楕円形 18" cx="20" cy="20" r="20" transform="translate(9 6)" fill="#eee"/>
    </g>
    <path id="iconmonstr-line-1" d="M24,10.3C24,4.935,18.617.566,12,.566S0,4.935,0,10.3c0,4.814,4.269,8.846,10.036,9.608.391.084.922.258,1.057.592a2.47,2.47,0,0,1,.039,1.085l-.171,1.027c-.053.3-.242,1.186,1.039.647A38.73,38.73,0,0,0,21.428,16.3,8.665,8.665,0,0,0,24,10.3ZM5.012,7.709a.234.234,0,0,1,.234.234V12.1H7.533a.233.233,0,0,1,.233.233v.842a.233.233,0,0,1-.233.234H4.17a.232.232,0,0,1-.161-.065h0l0,0H4l0,0a.234.234,0,0,1-.065-.161V7.943a.233.233,0,0,1,.233-.234h.842ZM20,7.709a.233.233,0,0,1,.233.234v.842A.233.233,0,0,1,20,9.019H17.717V9.9H20a.233.233,0,0,1,.233.234v.842a.233.233,0,0,1-.233.234H17.717V12.1H20a.233.233,0,0,1,.233.233v.842a.233.233,0,0,1-.233.234H16.641a.234.234,0,0,1-.162-.065l0,0,0,0a.235.235,0,0,1-.066-.161V7.943a.234.234,0,0,1,.065-.161l0,0,0,0a.235.235,0,0,1,.162-.066H20Zm-10.442,0a.233.233,0,0,1,.234.233v5.229a.234.234,0,0,1-.234.233H8.72a.234.234,0,0,1-.234-.233V7.943A.233.233,0,0,1,8.72,7.71h.842Zm2.127,0h.043l.013,0,.008,0,.014,0,.008,0,.013.006.007,0,.013.007.007,0,.012.009.006,0,.013.011,0,0,.014.014,0,0,.018.023,2.4,3.236V7.943a.233.233,0,0,1,.234-.233h.841a.233.233,0,0,1,.234.233v5.229a.233.233,0,0,1-.234.233h-.841l-.06-.008h0l-.015-.005-.007,0-.012,0-.011-.006-.007,0-.014-.009,0,0-.06-.058-2.4-3.24v3.106a.233.233,0,0,1-.234.233h-.841a.234.234,0,0,1-.234-.233V7.943a.233.233,0,0,1,.234-.233h.841Z" transform="translate(8 138)" fill="#00b900" fill-rule="evenodd"/>
  </g>
</svg>
