<svg xmlns="http://www.w3.org/2000/svg" width="40" height="40" viewBox="0 0 40 40">
  <g id="グループ_168" data-name="グループ 168" transform="translate(-1059 -431)">
    <circle id="楕円形_20" data-name="楕円形 20" cx="20" cy="20" r="20" transform="translate(1059 431)" fill="#fff"/>
    <g id="マイクのフリーアイコンその21" transform="translate(1059 431)">
      <path id="パス_125" data-name="パス 125" d="M223.749,141.53a2.88,2.88,0,0,0,1.875-.669,2.129,2.129,0,0,0,.779-1.616v-5.706a2.125,2.125,0,0,0-.779-1.613,2.955,2.955,0,0,0-3.751,0,2.125,2.125,0,0,0-.779,1.613v5.706a2.129,2.129,0,0,0,.779,1.616A2.881,2.881,0,0,0,223.749,141.53Z" transform="translate(-203.748 -120.263)" fill="#fa0012"/>
      <path id="パス_126" data-name="パス 126" d="M20,0A20,20,0,1,0,40,20,20,20,0,0,0,20,0ZM15.565,12.982a4.435,4.435,0,1,1,8.87,0v6.812a4.435,4.435,0,1,1-8.87,0Zm13.487,6.6a9.059,9.059,0,0,1-7.869,8.967v3.159H18.817V28.554a9.059,9.059,0,0,1-7.869-8.967v-1.34h1.776v1.34a7.277,7.277,0,0,0,14.553,0v-1.34h1.776v1.34Z" fill="#fa0012"/>
    </g>
  </g>
</svg>
