<svg xmlns="http://www.w3.org/2000/svg" width="13.542" height="12.903" viewBox="0 0 13.542 12.903"><path d="M13.542,6.061C13.542,3.031,10.5.566,6.771.566S0,3.031,0,6.061c0,2.716,2.409,4.991,5.663,5.421.221.047.52.146.6.334a1.394,1.394,0,0,1,.022.612l-.1.579c-.03.171-.137.669.586.365a21.853,21.853,0,0,0,5.32-3.931,4.889,4.889,0,0,0,1.451-3.381ZM2.828,4.6a.132.132,0,0,1,.132.132V7.072H4.25a.131.131,0,0,1,.131.131v.475a.132.132,0,0,1-.131.132h-1.9a.131.131,0,0,1-.091-.037h0l0,0a.132.132,0,0,1-.037-.091V4.728A.132.132,0,0,1,2.353,4.6h.475Zm8.459,0a.132.132,0,0,1,.131.132V5.2a.132.132,0,0,1-.131.132H10v.5h1.29a.132.132,0,0,1,.131.132v.475a.132.132,0,0,1-.131.132H10v.5h1.29a.132.132,0,0,1,.131.131v.475a.132.132,0,0,1-.131.132h-1.9A.132.132,0,0,1,9.3,7.774l0,0,0,0a.132.132,0,0,1-.037-.091V4.728a.132.132,0,0,1,.037-.091l0,0,0,0A.133.133,0,0,1,9.389,4.6h1.9ZM5.4,4.6a.132.132,0,0,1,.132.131v2.95A.132.132,0,0,1,5.4,7.81H4.92a.132.132,0,0,1-.132-.131V4.728A.132.132,0,0,1,4.92,4.6H5.4Zm1.2,0H6.62l.007,0,0,0,.008,0,0,0,.007,0,0,0,.007,0,0,0,.007.005,0,0,.007.006,0,0,.008.008h0l.01.013L8.057,6.481V4.728A.132.132,0,0,1,8.189,4.6h.475a.131.131,0,0,1,.132.131v2.95a.132.132,0,0,1-.132.131H8.189l-.034,0h0l-.008,0,0,0-.007,0-.006,0,0,0-.008-.005h0l-.034-.033L6.727,5.926V7.679A.132.132,0,0,1,6.6,7.81H6.121a.132.132,0,0,1-.132-.131V4.728A.132.132,0,0,1,6.121,4.6H6.6Z" transform="translate(0 -0.566)" fill="#00b900" fill-rule="evenodd"/></svg>